<svg width="48" height="48" viewBox="0 0 48 48" fill="none" xmlns="http://www.w3.org/2000/svg">
<g filter="url(#filter0_d)">
<path d="M14.8714 37.3182L15.4837 37.6803C18.0553 39.2036 21.0036 40.0092 24.0105 40.0107H24.0169C33.2508 40.0107 40.7659 32.5119 40.7697 23.2949C40.7713 18.8285 39.0305 14.6284 35.8673 11.469C32.7042 8.30968 28.4983 6.56892 24.0233 6.56704C14.7823 6.56704 7.26718 14.0651 7.26378 23.2813C7.26228 26.4396 8.14791 29.5157 9.82481 32.1773L10.2235 32.8096L8.53071 38.9776L14.8714 37.3182ZM3.69141 43.7556L6.55104 33.3344C4.78732 30.2847 3.8594 26.8247 3.86053 23.2802C3.86506 12.1914 12.9064 3.16992 24.0169 3.16992C29.4085 3.17255 34.469 5.26675 38.2751 9.06816C42.08 12.8696 44.1752 17.9223 44.1733 23.2964C44.1684 34.3845 35.1255 43.4075 24.0169 43.4075C24.0161 43.4075 24.0177 43.4075 24.0169 43.4075H24.0082C20.6352 43.4061 17.3206 42.5616 14.3765 40.9591L3.69141 43.7556Z" fill="white"/>
<path d="M14.8693 37.318L15.4816 37.6801C18.0532 39.2035 21.0016 40.0091 24.0084 40.0106H24.0149C33.2488 40.0106 40.7638 32.5117 40.7676 23.2948C40.7693 18.8283 39.0284 14.6283 35.8653 11.4689C32.7021 8.30954 28.4963 6.56878 24.0213 6.56689C14.7802 6.56689 7.26512 14.065 7.26172 23.2812C7.26021 26.4394 8.14585 29.5155 9.82275 32.1772L10.2214 32.8094L8.52864 38.9774L14.8693 37.318Z" fill="url(#paint0_linear)"/>
<path fill-rule="evenodd" clip-rule="evenodd" d="M18.9817 14.8733C18.6042 14.0365 18.207 14.0195 17.8484 14.0049C17.5547 13.9924 17.2187 13.9932 16.8831 13.9932C16.5471 13.9932 16.0016 14.119 15.5403 14.622C15.0786 15.125 13.7773 16.3409 13.7773 18.8142C13.7773 21.2874 15.5822 23.677 15.8336 24.0127C16.0854 24.3481 19.3177 29.5854 24.4371 31.6001C28.6912 33.2745 29.5569 32.9414 30.4806 32.8578C31.404 32.7742 33.4603 31.6419 33.8797 30.4682C34.2995 29.2945 34.2995 28.2889 34.1738 28.0786C34.0477 27.8688 33.7121 27.7433 33.2082 27.492C32.7046 27.2407 30.2285 26.0244 29.7668 25.8567C29.3051 25.689 28.9695 25.6054 28.6335 26.1084C28.2979 26.6114 27.3333 27.7433 27.0393 28.0786C26.7456 28.4143 26.4519 28.4562 25.9479 28.2048C25.4443 27.9528 23.8221 27.4226 21.898 25.7101C20.4008 24.3778 19.3902 22.7324 19.0961 22.2294C18.8024 21.7264 19.0647 21.4543 19.3173 21.2038C19.5434 20.9784 19.8209 20.6167 20.0731 20.3232C20.3241 20.0297 20.4083 19.8202 20.5759 19.4852C20.7439 19.1495 20.6601 18.856 20.534 18.6047C20.4083 18.3534 19.4294 15.8673 18.9817 14.8733Z" fill="white"/>
</g>
<defs>
<filter id="filter0_d" x="0.691406" y="1.16992" width="46.4819" height="46.5857" filterUnits="userSpaceOnUse" color-interpolation-filters="sRGB">
<feFlood flood-opacity="0" result="BackgroundImageFix"/>
<feColorMatrix in="SourceAlpha" type="matrix" values="0 0 0 0 0 0 0 0 0 0 0 0 0 0 0 0 0 0 127 0"/>
<feOffset dy="1"/>
<feGaussianBlur stdDeviation="1.5"/>
<feColorMatrix type="matrix" values="0 0 0 0 0 0 0 0 0 0 0 0 0 0 0 0 0 0 0.18 0"/>
<feBlend mode="normal" in2="BackgroundImageFix" result="effect1_dropShadow"/>
<feBlend mode="normal" in="SourceGraphic" in2="effect1_dropShadow" result="shape"/>
</filter>
<linearGradient id="paint0_linear" x1="24.0137" y1="40.0107" x2="24.0137" y2="6.56678" gradientUnits="userSpaceOnUse">
<stop stop-color="#20B038"/>
<stop offset="0.0078125" stop-color="#20B038"/>
<stop offset="0.015625" stop-color="#21B039"/>
<stop offset="0.0234375" stop-color="#21B139"/>
<stop offset="0.03125" stop-color="#22B139"/>
<stop offset="0.0390625" stop-color="#22B13A"/>
<stop offset="0.046875" stop-color="#23B23A"/>
<stop offset="0.0546875" stop-color="#23B23B"/>
<stop offset="0.0625" stop-color="#24B23B"/>
<stop offset="0.0703125" stop-color="#24B33B"/>
<stop offset="0.078125" stop-color="#25B33C"/>
<stop offset="0.0859375" stop-color="#25B33C"/>
<stop offset="0.09375" stop-color="#26B33C"/>
<stop offset="0.101562" stop-color="#26B43D"/>
<stop offset="0.109375" stop-color="#27B43D"/>
<stop offset="0.117188" stop-color="#27B43E"/>
<stop offset="0.125" stop-color="#28B53E"/>
<stop offset="0.132813" stop-color="#28B53E"/>
<stop offset="0.140625" stop-color="#29B53F"/>
<stop offset="0.148438" stop-color="#29B53F"/>
<stop offset="0.15625" stop-color="#2AB640"/>
<stop offset="0.164063" stop-color="#2AB640"/>
<stop offset="0.171875" stop-color="#2BB640"/>
<stop offset="0.179688" stop-color="#2BB741"/>
<stop offset="0.1875" stop-color="#2CB741"/>
<stop offset="0.195313" stop-color="#2CB742"/>
<stop offset="0.203125" stop-color="#2DB842"/>
<stop offset="0.210937" stop-color="#2DB842"/>
<stop offset="0.21875" stop-color="#2EB843"/>
<stop offset="0.226563" stop-color="#2EB843"/>
<stop offset="0.234375" stop-color="#2FB944"/>
<stop offset="0.242188" stop-color="#2FB944"/>
<stop offset="0.25" stop-color="#30B944"/>
<stop offset="0.257813" stop-color="#30BA45"/>
<stop offset="0.265625" stop-color="#31BA45"/>
<stop offset="0.273438" stop-color="#31BA45"/>
<stop offset="0.28125" stop-color="#32BB46"/>
<stop offset="0.289063" stop-color="#32BB46"/>
<stop offset="0.296875" stop-color="#33BB47"/>
<stop offset="0.304688" stop-color="#33BB47"/>
<stop offset="0.3125" stop-color="#34BC47"/>
<stop offset="0.320313" stop-color="#34BC48"/>
<stop offset="0.328125" stop-color="#35BC48"/>
<stop offset="0.335938" stop-color="#35BD49"/>
<stop offset="0.34375" stop-color="#36BD49"/>
<stop offset="0.351563" stop-color="#36BD49"/>
<stop offset="0.359375" stop-color="#37BE4A"/>
<stop offset="0.367188" stop-color="#37BE4A"/>
<stop offset="0.375" stop-color="#38BE4B"/>
<stop offset="0.382813" stop-color="#38BE4B"/>
<stop offset="0.390625" stop-color="#39BF4B"/>
<stop offset="0.398438" stop-color="#39BF4C"/>
<stop offset="0.40625" stop-color="#3ABF4C"/>
<stop offset="0.414063" stop-color="#3AC04D"/>
<stop offset="0.421875" stop-color="#3BC04D"/>
<stop offset="0.429687" stop-color="#3BC04D"/>
<stop offset="0.4375" stop-color="#3CC04E"/>
<stop offset="0.445313" stop-color="#3CC14E"/>
<stop offset="0.453125" stop-color="#3DC14E"/>
<stop offset="0.460937" stop-color="#3DC14F"/>
<stop offset="0.46875" stop-color="#3EC24F"/>
<stop offset="0.476563" stop-color="#3EC250"/>
<stop offset="0.484375" stop-color="#3FC250"/>
<stop offset="0.492187" stop-color="#3FC350"/>
<stop offset="0.5" stop-color="#40C351"/>
<stop offset="0.507813" stop-color="#40C351"/>
<stop offset="0.515625" stop-color="#41C352"/>
<stop offset="0.523438" stop-color="#41C452"/>
<stop offset="0.53125" stop-color="#42C452"/>
<stop offset="0.539062" stop-color="#42C453"/>
<stop offset="0.546875" stop-color="#43C553"/>
<stop offset="0.554688" stop-color="#43C554"/>
<stop offset="0.5625" stop-color="#44C554"/>
<stop offset="0.570313" stop-color="#44C654"/>
<stop offset="0.578125" stop-color="#45C655"/>
<stop offset="0.585938" stop-color="#45C655"/>
<stop offset="0.59375" stop-color="#46C655"/>
<stop offset="0.601563" stop-color="#46C756"/>
<stop offset="0.609375" stop-color="#47C756"/>
<stop offset="0.617188" stop-color="#47C757"/>
<stop offset="0.625" stop-color="#48C857"/>
<stop offset="0.632813" stop-color="#48C857"/>
<stop offset="0.640625" stop-color="#49C858"/>
<stop offset="0.648438" stop-color="#49C858"/>
<stop offset="0.65625" stop-color="#4AC959"/>
<stop offset="0.664063" stop-color="#4AC959"/>
<stop offset="0.671875" stop-color="#4BC959"/>
<stop offset="0.679688" stop-color="#4BCA5A"/>
<stop offset="0.6875" stop-color="#4CCA5A"/>
<stop offset="0.695313" stop-color="#4CCA5B"/>
<stop offset="0.703125" stop-color="#4DCB5B"/>
<stop offset="0.710938" stop-color="#4DCB5B"/>
<stop offset="0.71875" stop-color="#4ECB5C"/>
<stop offset="0.726563" stop-color="#4ECB5C"/>
<stop offset="0.734375" stop-color="#4FCC5D"/>
<stop offset="0.742188" stop-color="#4FCC5D"/>
<stop offset="0.75" stop-color="#50CC5D"/>
<stop offset="0.757812" stop-color="#50CD5E"/>
<stop offset="0.765625" stop-color="#51CD5E"/>
<stop offset="0.773438" stop-color="#51CD5E"/>
<stop offset="0.78125" stop-color="#52CE5F"/>
<stop offset="0.789063" stop-color="#52CE5F"/>
<stop offset="0.796875" stop-color="#53CE60"/>
<stop offset="0.804687" stop-color="#53CE60"/>
<stop offset="0.8125" stop-color="#54CF60"/>
<stop offset="0.820313" stop-color="#54CF61"/>
<stop offset="0.828125" stop-color="#55CF61"/>
<stop offset="0.835938" stop-color="#55D062"/>
<stop offset="0.84375" stop-color="#56D062"/>
<stop offset="0.851562" stop-color="#56D062"/>
<stop offset="0.859375" stop-color="#57D163"/>
<stop offset="0.867187" stop-color="#57D163"/>
<stop offset="0.875" stop-color="#58D164"/>
<stop offset="0.882813" stop-color="#58D164"/>
<stop offset="0.890625" stop-color="#59D264"/>
<stop offset="0.898438" stop-color="#59D265"/>
<stop offset="0.90625" stop-color="#5AD265"/>
<stop offset="0.914062" stop-color="#5AD366"/>
<stop offset="0.921875" stop-color="#5BD366"/>
<stop offset="0.929687" stop-color="#5BD366"/>
<stop offset="0.9375" stop-color="#5CD367"/>
<stop offset="0.945313" stop-color="#5CD467"/>
<stop offset="0.953125" stop-color="#5DD467"/>
<stop offset="0.960938" stop-color="#5DD468"/>
<stop offset="0.96875" stop-color="#5ED568"/>
<stop offset="0.976562" stop-color="#5ED569"/>
<stop offset="0.984375" stop-color="#5FD569"/>
<stop offset="0.992188" stop-color="#5FD669"/>
<stop offset="1" stop-color="#60D66A"/>
</linearGradient>
</defs>
</svg>
