<svg width="102" height="51" viewBox="0 0 102 51" fill="none" xmlns="http://www.w3.org/2000/svg">
<path d="M11.4446 36.2623C11.4996 36.3016 11.4917 36.38 11.4211 36.4978C11.3505 36.6077 11.2484 36.7333 11.115 36.8746C10.9894 37.0159 10.8481 37.1572 10.6911 37.2984C10.5419 37.4319 10.4164 37.5457 10.3143 37.6399L9.92576 37.5693C9.66672 37.3259 9.39984 37.1258 9.1251 36.9688C8.85037 36.8039 8.55994 36.6783 8.2538 36.592C7.95552 36.5056 7.63761 36.4468 7.30008 36.4154C6.96255 36.3761 6.60147 36.3565 6.21685 36.3565C6.02061 36.3565 5.77335 36.4036 5.47506 36.4978C5.18463 36.5841 4.87457 36.7294 4.54489 36.9334C4.22306 37.1297 3.90123 37.3926 3.5794 37.7223C3.25756 38.0442 2.96321 38.4445 2.69632 38.9233C2.43729 39.3943 2.22535 39.9477 2.06051 40.5835C1.90352 41.2114 1.82502 41.9336 1.82502 42.75C1.82502 43.841 1.97024 44.7908 2.26067 45.5993C2.5511 46.4078 2.93181 47.079 3.40278 47.6128C3.87375 48.1387 4.4036 48.5351 4.99231 48.802C5.58103 49.061 6.17367 49.1905 6.77024 49.1905C7.34326 49.1905 7.86918 49.1356 8.348 49.0257C8.83467 48.9079 9.27032 48.7431 9.65495 48.5312V44.5397C9.65495 44.4533 9.6157 44.3709 9.53721 44.2924C9.46656 44.206 9.33704 44.1236 9.14865 44.0451C8.96811 43.9666 8.72085 43.8881 8.40687 43.8096C8.10074 43.7312 7.70826 43.6527 7.22944 43.5742V43.0679H12.6574V43.5742C12.21 43.6841 11.8921 43.8293 11.7037 44.0098C11.5153 44.1825 11.4211 44.3591 11.4211 44.5397V48.437C10.8402 48.9158 10.3182 49.2965 9.85511 49.5791C9.39984 49.8617 8.97989 50.0814 8.59526 50.2384C8.21063 50.3876 7.84563 50.4857 7.50025 50.5328C7.15487 50.5799 6.80556 50.6034 6.45233 50.6034C5.65953 50.6034 4.8785 50.4582 4.10924 50.1678C3.33998 49.8695 2.64922 49.4221 2.03696 48.8255C1.43254 48.2211 0.941946 47.4715 0.565168 46.5766C0.188389 45.6739 0 44.6142 0 43.3975C0 42.0945 0.204088 40.9289 0.612265 39.9006C1.02829 38.8644 1.59346 37.9892 2.30777 37.2749C3.02208 36.5527 3.85413 36.0033 4.80393 35.6265C5.76157 35.2497 6.77809 35.0613 7.85348 35.0613C8.11251 35.0613 8.3951 35.0888 8.70123 35.1437C9.01521 35.1987 9.33312 35.2772 9.65495 35.3792C9.97678 35.4813 10.2908 35.6069 10.5969 35.756C10.9109 35.9052 11.1935 36.0739 11.4446 36.2623Z" fill="#2E2739"/>
<path d="M13.9408 50.2502V49.7439C14.2783 49.689 14.5609 49.634 14.7886 49.5791C15.0162 49.5163 15.1967 49.4574 15.3302 49.4025C15.4636 49.3397 15.5578 49.2769 15.6128 49.2141C15.6756 49.1513 15.707 49.0885 15.707 49.0257V34.9907C15.707 34.6374 15.6834 34.3627 15.6363 34.1665C15.5892 33.9702 15.5029 33.825 15.3773 33.7308C15.2517 33.6288 15.0829 33.5621 14.871 33.5307C14.659 33.4914 14.3882 33.4522 14.0585 33.4129V32.9419C14.6237 32.8321 15.1418 32.7104 15.6128 32.5769C16.0837 32.4435 16.5626 32.2512 17.0492 32L17.4731 32.4003V49.0257C17.4731 49.1434 17.6065 49.2651 17.8734 49.3907C18.1403 49.5163 18.5956 49.634 19.2393 49.7439V50.2502H13.9408Z" fill="#2E2739"/>
<path d="M23.9254 49.0728C24.3964 49.0728 24.8949 48.955 25.4208 48.7195C25.9545 48.4762 26.5197 48.0955 27.1163 47.5774V44.5279C26.4569 44.6378 25.9114 44.7437 25.4796 44.8458C25.0558 44.9478 24.7065 45.0538 24.4317 45.1637C24.157 45.2657 23.9372 45.3756 23.7724 45.4934C23.6075 45.6111 23.4623 45.7367 23.3367 45.8702C23.1326 46.0821 22.9678 46.3254 22.8422 46.6002C22.7166 46.867 22.6538 47.185 22.6538 47.5539C22.6538 47.8679 22.7009 48.123 22.7951 48.3192C22.8893 48.5155 23.0031 48.6724 23.1366 48.7902C23.27 48.9001 23.4074 48.9747 23.5487 49.0139C23.6978 49.0531 23.8234 49.0728 23.9254 49.0728ZM30.6839 49.2847C30.0167 49.7478 29.4633 50.0814 29.0237 50.2855C28.592 50.4975 28.2662 50.6034 28.0464 50.6034C27.7874 50.6034 27.5716 50.4229 27.3989 50.0618C27.2262 49.7007 27.132 49.2023 27.1163 48.5665C26.763 48.9197 26.4098 49.2258 26.0566 49.4849C25.7034 49.7439 25.358 49.9558 25.0204 50.1207C24.6829 50.2855 24.3611 50.4072 24.055 50.4857C23.7567 50.5642 23.4819 50.6034 23.2307 50.6034C22.9482 50.6034 22.6577 50.5563 22.3594 50.4621C22.0612 50.3679 21.7904 50.2188 21.547 50.0147C21.3115 49.8106 21.1153 49.5477 20.9583 49.2258C20.8013 48.904 20.7228 48.5155 20.7228 48.0602C20.7228 47.4636 20.8249 46.9652 21.0289 46.5648C21.2409 46.1645 21.4921 45.8191 21.7825 45.5287C21.9709 45.3403 22.1828 45.1637 22.4183 44.9989C22.6617 44.8262 22.9796 44.6613 23.372 44.5043C23.7724 44.3473 24.2708 44.1982 24.8674 44.0569C25.4639 43.9156 26.2136 43.7782 27.1163 43.6448V41.9846C27.1163 41.7177 27.0849 41.4705 27.0221 41.2428C26.9593 41.0074 26.8533 40.8072 26.7042 40.6424C26.555 40.4697 26.3509 40.3401 26.0919 40.2538C25.8407 40.1596 25.5228 40.1164 25.1382 40.1243C24.887 40.1321 24.6397 40.1753 24.3964 40.2538C24.1531 40.3323 23.9411 40.4422 23.7606 40.5835C23.5801 40.7248 23.4388 40.8935 23.3367 41.0898C23.2347 41.2782 23.1954 41.4901 23.219 41.7256C23.2268 41.7962 23.1444 41.8787 22.9717 41.9729C22.8069 42.0592 22.6067 42.1377 22.3712 42.2083C22.1436 42.279 21.9159 42.3339 21.6883 42.3732C21.4685 42.4124 21.3115 42.4203 21.2173 42.3967L21.0525 41.9375C21.233 41.5451 21.5078 41.1683 21.8767 40.8072C22.2456 40.4461 22.6656 40.1282 23.1366 39.8535C23.6154 39.5787 24.1177 39.359 24.6437 39.1941C25.1774 39.0293 25.6916 38.9469 26.1861 38.9469C27.0496 38.9469 27.7128 39.1745 28.176 39.6298C28.6469 40.0772 28.8824 40.7052 28.8824 41.5137V48.1544C28.8824 48.4841 28.9256 48.7195 29.0119 48.8608C29.0983 49.0021 29.2121 49.0728 29.3534 49.0728C29.4633 49.0728 29.6046 49.0531 29.7773 49.0139C29.95 48.9747 30.1933 48.8883 30.5073 48.7549L30.6839 49.2847Z" fill="#2E2739"/>
<path d="M39.0908 46.9181C39.0908 47.4754 39.0123 47.9542 38.8553 48.3545C38.6983 48.747 38.4942 49.0806 38.243 49.3554C37.9918 49.6301 37.7132 49.8499 37.407 50.0147C37.1009 50.1796 36.7987 50.3052 36.5004 50.3915C36.2021 50.4778 35.9195 50.5328 35.6527 50.5563C35.3936 50.5877 35.1895 50.6034 35.0404 50.6034C34.6636 50.6034 34.2083 50.5328 33.6746 50.3915C33.1487 50.2502 32.6227 50.0343 32.0968 49.7439C32.0419 49.7204 32.0026 49.5948 31.9791 49.3671C31.9634 49.1316 31.9594 48.8648 31.9673 48.5665C31.983 48.2603 32.0065 47.9542 32.0379 47.6481C32.0772 47.3419 32.1243 47.0986 32.1792 46.9181L32.6855 47.0476C32.7012 47.3773 32.7876 47.6873 32.9446 47.9778C33.1016 48.2682 33.3096 48.5194 33.5686 48.7313C33.8355 48.9433 34.1416 49.112 34.487 49.2376C34.8402 49.3632 35.2209 49.426 35.6291 49.426C35.9117 49.426 36.1707 49.3828 36.4062 49.2965C36.6417 49.2023 36.8458 49.0767 37.0185 48.9197C37.1912 48.7549 37.3246 48.5586 37.4188 48.331C37.513 48.1034 37.5601 47.8522 37.5601 47.5774C37.5601 47.2634 37.4738 46.9848 37.3011 46.7415C37.1362 46.4981 36.9164 46.2783 36.6417 46.0821C36.367 45.878 36.053 45.6896 35.6998 45.5169C35.3544 45.3364 35.0012 45.1519 34.6401 44.9635C34.3104 44.7987 33.9925 44.6221 33.6864 44.4337C33.3802 44.2453 33.1055 44.0334 32.8621 43.7979C32.6267 43.5624 32.4343 43.2994 32.2852 43.009C32.1439 42.7186 32.0733 42.385 32.0733 42.0082C32.0733 41.5215 32.1714 41.0898 32.3676 40.713C32.5639 40.3284 32.8229 40.0065 33.1447 39.7475C33.4744 39.4885 33.8473 39.2922 34.2633 39.1588C34.6872 39.0175 35.1228 38.9469 35.5702 38.9469C35.8136 38.9469 36.0805 38.9704 36.3709 39.0175C36.6692 39.0567 36.9596 39.1156 37.2422 39.1941C37.5326 39.2726 37.8034 39.3668 38.0546 39.4767C38.3058 39.5866 38.5099 39.7122 38.6669 39.8535C38.714 39.9006 38.7179 40.0065 38.6787 40.1714C38.6473 40.3362 38.5923 40.5168 38.5138 40.713C38.4432 40.9092 38.3647 41.0937 38.2783 41.2664C38.192 41.4391 38.1253 41.5568 38.0782 41.6196L37.619 41.5254C37.2422 40.9603 36.8497 40.5678 36.4415 40.348C36.0412 40.1204 35.6487 40.0065 35.2641 40.0065C35.0051 40.0065 34.7735 40.0497 34.5694 40.1361C34.3653 40.2224 34.1887 40.3362 34.0396 40.4775C33.8983 40.611 33.7884 40.7601 33.7099 40.9249C33.6393 41.0898 33.6039 41.2546 33.6039 41.4195C33.6039 41.6706 33.6785 41.8983 33.8276 42.1024C33.9768 42.2986 34.173 42.487 34.4164 42.6675C34.6597 42.8402 34.9344 43.009 35.2406 43.1738C35.5545 43.3308 35.8764 43.4957 36.2061 43.6684C36.5436 43.841 36.885 44.0255 37.2304 44.2217C37.5758 44.418 37.8859 44.6456 38.1606 44.9047C38.4353 45.1558 38.659 45.4463 38.8317 45.776C39.0044 46.0978 39.0908 46.4785 39.0908 46.9181Z" fill="#2E2739"/>
<path d="M40.8805 50.2502V49.7439C41.218 49.689 41.5006 49.634 41.7282 49.5791C41.9559 49.5163 42.1364 49.4574 42.2698 49.4025C42.4033 49.3397 42.4975 49.2769 42.5524 49.2141C42.6152 49.1513 42.6466 49.0885 42.6466 49.0257V34.9907C42.6466 34.6374 42.6231 34.3627 42.576 34.1665C42.5289 33.9702 42.4425 33.825 42.3169 33.7308C42.1913 33.6288 42.0226 33.5621 41.8106 33.5307C41.5987 33.4914 41.3279 33.4522 40.9982 33.4129V32.9419C41.5634 32.8321 42.0814 32.7104 42.5524 32.5769C43.0234 32.4435 43.5022 32.2512 43.9889 32L44.4128 32.4003V49.0257C44.4128 49.1434 44.5462 49.2651 44.8131 49.3907C45.08 49.5163 45.5352 49.634 46.1789 49.7439V50.2502H40.8805Z" fill="#2E2739"/>
<path d="M50.8651 49.0728C51.3361 49.0728 51.8345 48.955 52.3604 48.7195C52.8942 48.4762 53.4594 48.0955 54.0559 47.5774V44.5279C53.3966 44.6378 52.851 44.7437 52.4193 44.8458C51.9954 44.9478 51.6461 45.0538 51.3714 45.1637C51.0967 45.2657 50.8769 45.3756 50.712 45.4934C50.5472 45.6111 50.402 45.7367 50.2764 45.8702C50.0723 46.0821 49.9075 46.3254 49.7819 46.6002C49.6563 46.867 49.5935 47.185 49.5935 47.5539C49.5935 47.8679 49.6406 48.123 49.7348 48.3192C49.829 48.5155 49.9428 48.6724 50.0762 48.7902C50.2097 48.9001 50.347 48.9747 50.4883 49.0139C50.6375 49.0531 50.7631 49.0728 50.8651 49.0728ZM57.6236 49.2847C56.9563 49.7478 56.403 50.0814 55.9634 50.2855C55.5317 50.4975 55.2059 50.6034 54.9861 50.6034C54.7271 50.6034 54.5112 50.4229 54.3385 50.0618C54.1658 49.7007 54.0716 49.2023 54.0559 48.5665C53.7027 48.9197 53.3495 49.2258 52.9963 49.4849C52.643 49.7439 52.2976 49.9558 51.9601 50.1207C51.6226 50.2855 51.3007 50.4072 50.9946 50.4857C50.6963 50.5642 50.4216 50.6034 50.1704 50.6034C49.8878 50.6034 49.5974 50.5563 49.2991 50.4621C49.0008 50.3679 48.73 50.2188 48.4867 50.0147C48.2512 49.8106 48.055 49.5477 47.898 49.2258C47.741 48.904 47.6625 48.5155 47.6625 48.0602C47.6625 47.4636 47.7645 46.9652 47.9686 46.5648C48.1805 46.1645 48.4317 45.8191 48.7222 45.5287C48.9106 45.3403 49.1225 45.1637 49.358 44.9989C49.6013 44.8262 49.9192 44.6613 50.3117 44.5043C50.712 44.3473 51.2105 44.1982 51.807 44.0569C52.4036 43.9156 53.1532 43.7782 54.0559 43.6448V41.9846C54.0559 41.7177 54.0245 41.4705 53.9617 41.2428C53.8989 41.0074 53.793 40.8072 53.6438 40.6424C53.4947 40.4697 53.2906 40.3401 53.0316 40.2538C52.7804 40.1596 52.4625 40.1164 52.0779 40.1243C51.8267 40.1321 51.5794 40.1753 51.3361 40.2538C51.0927 40.3323 50.8808 40.4422 50.7003 40.5835C50.5197 40.7248 50.3784 40.8935 50.2764 41.0898C50.1743 41.2782 50.1351 41.4901 50.1586 41.7256C50.1665 41.7962 50.0841 41.8787 49.9114 41.9729C49.7465 42.0592 49.5464 42.1377 49.3109 42.2083C49.0832 42.279 48.8556 42.3339 48.628 42.3732C48.4082 42.4124 48.2512 42.4203 48.157 42.3967L47.9922 41.9375C48.1727 41.5451 48.4474 41.1683 48.8164 40.8072C49.1853 40.4461 49.6052 40.1282 50.0762 39.8535C50.555 39.5787 51.0574 39.359 51.5833 39.1941C52.1171 39.0293 52.6312 38.9469 53.1258 38.9469C53.9892 38.9469 54.6525 39.1745 55.1156 39.6298C55.5866 40.0772 55.8221 40.7052 55.8221 41.5137V48.1544C55.8221 48.4841 55.8653 48.7195 55.9516 48.8608C56.0379 49.0021 56.1518 49.0728 56.2931 49.0728C56.403 49.0728 56.5442 49.0531 56.7169 49.0139C56.8896 48.9747 57.133 48.8883 57.4469 48.7549L57.6236 49.2847Z" fill="#2E2739"/>
<path d="M65.6772 50.2502V49.7439C66.2424 49.5948 66.6584 49.4652 66.9253 49.3554C67.1922 49.2455 67.3256 49.1356 67.3256 49.0257V42.7971C67.3256 42.3182 67.2981 41.9297 67.2432 41.6314C67.1882 41.3331 67.1019 41.0976 66.9841 40.9249C66.8664 40.7522 66.7094 40.6345 66.5132 40.5717C66.3248 40.5089 66.0932 40.4775 65.8185 40.4775C65.5752 40.4775 65.3043 40.5364 65.0061 40.6541C64.7078 40.7719 64.3859 40.9603 64.0406 41.2193C63.703 41.4783 63.3459 41.8198 62.9691 42.2437C62.6002 42.6597 62.2273 43.1738 61.8505 43.7861V49.0257C61.8505 49.1434 61.9958 49.2651 62.2862 49.3907C62.5845 49.5163 62.9887 49.634 63.4989 49.7439V50.2502H58.436V49.7439C58.9541 49.6105 59.3583 49.4927 59.6487 49.3907C59.9392 49.2808 60.0844 49.1591 60.0844 49.0257V41.8787C60.0844 41.5725 60.0726 41.3292 60.0491 41.1487C60.0255 40.9681 59.9588 40.8268 59.8489 40.7248C59.7469 40.6227 59.5859 40.5482 59.3662 40.5011C59.1464 40.454 58.8363 40.4069 58.436 40.3598V39.8888C58.9698 39.8025 59.4643 39.6808 59.9196 39.5238C60.3748 39.359 60.8223 39.1666 61.2618 38.9469L61.6739 39.359L61.8034 42.2908C62.1488 41.7648 62.5295 41.2978 62.9456 40.8896C63.3616 40.4736 63.7815 40.1243 64.2054 39.8417C64.6293 39.5513 65.0375 39.3315 65.4299 39.1823C65.8303 39.0253 66.1835 38.9469 66.4896 38.9469C66.8272 38.9469 67.1529 38.9979 67.4669 39.0999C67.7809 39.202 68.0556 39.359 68.2911 39.5709C68.5344 39.7828 68.7268 40.0536 68.868 40.3833C69.0172 40.7052 69.0918 41.0859 69.0918 41.5254V49.0257C69.0918 49.1356 69.2095 49.2455 69.445 49.3554C69.6883 49.4574 70.12 49.5869 70.7402 49.7439V50.2502H65.6772Z" fill="#2E2739"/>
<path d="M83.4682 49.2612C83.1071 49.5045 82.7853 49.7125 82.5027 49.8852C82.228 50.05 81.9846 50.1835 81.7727 50.2855C81.5686 50.3954 81.392 50.4739 81.2429 50.521C81.0937 50.576 80.9642 50.6034 80.8543 50.6034C80.5953 50.6034 80.3833 50.4268 80.2185 50.0736C80.0536 49.7204 79.9438 49.1159 79.8888 48.2603C79.5905 48.6214 79.2922 48.9472 78.994 49.2376C78.7035 49.528 78.4013 49.7753 78.0873 49.9794C77.7812 50.1756 77.4555 50.3287 77.1101 50.4386C76.7647 50.5485 76.3918 50.6034 75.9915 50.6034C75.5519 50.6034 75.1006 50.4778 74.6375 50.2267C74.1743 49.9676 73.7465 49.5987 73.3541 49.1199C72.9694 48.641 72.6515 48.0563 72.4003 47.3655C72.157 46.6747 72.0353 45.8937 72.0353 45.0224C72.0353 44.575 72.0942 44.1119 72.212 43.633C72.3375 43.1542 72.5142 42.6911 72.7418 42.2437C72.9694 41.7962 73.2481 41.3724 73.5778 40.972C73.9075 40.5717 74.2764 40.2224 74.6846 39.9241C75.0927 39.618 75.5402 39.3786 76.0268 39.2059C76.5135 39.0332 77.0316 38.9469 77.581 38.9469C77.95 38.9469 78.315 38.9939 78.6761 39.0881C79.045 39.1745 79.4414 39.3747 79.8653 39.6886V35.2497C79.8653 34.818 79.8535 34.4765 79.8299 34.2253C79.8064 33.9663 79.7397 33.7701 79.6298 33.6366C79.5199 33.4953 79.3511 33.4011 79.1235 33.354C78.8958 33.2991 78.574 33.2559 78.158 33.2245V32.7653C78.8017 32.679 79.3786 32.5652 79.8888 32.4239C80.399 32.2747 80.8582 32.1334 81.2664 32L81.6314 32.3532V47.2595C81.6314 47.5343 81.6353 47.7697 81.6432 47.966C81.6589 48.1622 81.6785 48.3271 81.7021 48.4605C81.7256 48.5939 81.7531 48.7038 81.7845 48.7902C81.8159 48.8765 81.8551 48.9472 81.9022 49.0021C81.9729 49.0885 82.1063 49.1159 82.3026 49.0845C82.5066 49.0453 82.8442 48.9354 83.3151 48.7549L83.4682 49.2612ZM79.8653 47.1771V41.6549C79.6062 41.2075 79.2412 40.8621 78.7702 40.6188C78.2993 40.3676 77.7812 40.242 77.216 40.242C76.7137 40.242 76.2545 40.3362 75.8384 40.5246C75.4224 40.7052 75.0613 40.9799 74.7552 41.3488C74.4569 41.7177 74.2214 42.1769 74.0487 42.7264C73.8839 43.2759 73.8015 43.9195 73.8015 44.6574C73.8015 45.3246 73.8957 45.933 74.0841 46.4824C74.2803 47.024 74.5276 47.4872 74.8259 47.8718C75.1241 48.2564 75.4499 48.5547 75.8031 48.7666C76.1642 48.9707 76.5057 49.0728 76.8275 49.0728C77.0944 49.0728 77.3573 49.0178 77.6164 48.9079C77.8754 48.798 78.1305 48.6567 78.3817 48.4841C78.6329 48.3035 78.8801 48.0994 79.1235 47.8718C79.3747 47.6442 79.6219 47.4126 79.8653 47.1771Z" fill="#2E2739"/>
<path d="M84.469 50.2502V49.7439C85.0028 49.634 85.411 49.5163 85.6936 49.3907C85.9761 49.2572 86.1174 49.1356 86.1174 49.0257V42.3614C86.1174 41.9611 86.1096 41.6392 86.0939 41.3959C86.0782 41.1447 86.0193 40.9524 85.9173 40.819C85.8152 40.6777 85.6504 40.5756 85.4227 40.5128C85.203 40.45 84.8851 40.399 84.469 40.3598V39.8888C84.7124 39.8417 84.9675 39.7868 85.2344 39.724C85.5091 39.6533 85.7799 39.5787 86.0468 39.5002C86.3137 39.4139 86.5688 39.3236 86.8121 39.2294C87.0555 39.1352 87.2792 39.041 87.4833 38.9469H87.8836V49.0257C87.8836 49.1199 88.0131 49.2376 88.2721 49.3789C88.539 49.5123 88.959 49.634 89.532 49.7439V50.2502H84.469ZM88.2368 35.4028C88.2368 35.6226 88.2015 35.8306 88.1308 36.0268C88.0602 36.2231 87.9621 36.3957 87.8365 36.5449C87.7187 36.6862 87.5774 36.8 87.4126 36.8863C87.2478 36.9727 87.0672 37.0159 86.871 37.0159C86.5178 37.0159 86.2626 36.9177 86.1057 36.7215C85.9565 36.5253 85.8819 36.2466 85.8819 35.8855C85.8819 35.6657 85.9173 35.4577 85.9879 35.2615C86.0586 35.0652 86.1567 34.8965 86.2823 34.7552C86.4079 34.6061 86.5492 34.4922 86.7061 34.4137C86.871 34.3274 87.0476 34.2842 87.236 34.2842C87.9032 34.2842 88.2368 34.6571 88.2368 35.4028Z" fill="#2E2739"/>
<path d="M94.3359 49.0728C94.8069 49.0728 95.3053 48.955 95.8313 48.7195C96.365 48.4762 96.9302 48.0955 97.5268 47.5774V44.5279C96.8674 44.6378 96.3218 44.7437 95.8901 44.8458C95.4662 44.9478 95.1169 45.0538 94.8422 45.1637C94.5675 45.2657 94.3477 45.3756 94.1828 45.4934C94.018 45.6111 93.8728 45.7367 93.7472 45.8702C93.5431 46.0821 93.3783 46.3254 93.2527 46.6002C93.1271 46.867 93.0643 47.185 93.0643 47.5539C93.0643 47.8679 93.1114 48.123 93.2056 48.3192C93.2998 48.5155 93.4136 48.6724 93.547 48.7902C93.6805 48.9001 93.8178 48.9747 93.9591 49.0139C94.1083 49.0531 94.2339 49.0728 94.3359 49.0728ZM101.094 49.2847C100.427 49.7478 99.8738 50.0814 99.4342 50.2855C99.0025 50.4975 98.6767 50.6034 98.4569 50.6034C98.1979 50.6034 97.982 50.4229 97.8093 50.0618C97.6367 49.7007 97.5425 49.2023 97.5268 48.5665C97.1735 48.9197 96.8203 49.2258 96.4671 49.4849C96.1138 49.7439 95.7685 49.9558 95.4309 50.1207C95.0934 50.2855 94.7716 50.4072 94.4654 50.4857C94.1671 50.5642 93.8924 50.6034 93.6412 50.6034C93.3586 50.6034 93.0682 50.5563 92.7699 50.4621C92.4716 50.3679 92.2008 50.2188 91.9575 50.0147C91.722 49.8106 91.5258 49.5477 91.3688 49.2258C91.2118 48.904 91.1333 48.5155 91.1333 48.0602C91.1333 47.4636 91.2353 46.9652 91.4394 46.5648C91.6514 46.1645 91.9025 45.8191 92.193 45.5287C92.3814 45.3403 92.5933 45.1637 92.8288 44.9989C93.0721 44.8262 93.39 44.6613 93.7825 44.5043C94.1828 44.3473 94.6813 44.1982 95.2779 44.0569C95.8744 43.9156 96.6241 43.7782 97.5268 43.6448V41.9846C97.5268 41.7177 97.4954 41.4705 97.4326 41.2428C97.3698 41.0074 97.2638 40.8072 97.1147 40.6424C96.9655 40.4697 96.7614 40.3401 96.5024 40.2538C96.2512 40.1596 95.9333 40.1164 95.5487 40.1243C95.2975 40.1321 95.0502 40.1753 94.8069 40.2538C94.5636 40.3323 94.3516 40.4422 94.1711 40.5835C93.9905 40.7248 93.8492 40.8935 93.7472 41.0898C93.6451 41.2782 93.6059 41.4901 93.6295 41.7256C93.6373 41.7962 93.5549 41.8787 93.3822 41.9729C93.2174 42.0592 93.0172 42.1377 92.7817 42.2083C92.5541 42.279 92.3264 42.3339 92.0988 42.3732C91.879 42.4124 91.722 42.4203 91.6278 42.3967L91.463 41.9375C91.6435 41.5451 91.9183 41.1683 92.2872 40.8072C92.6561 40.4461 93.0761 40.1282 93.547 39.8535C94.0259 39.5787 94.5282 39.359 95.0541 39.1941C95.5879 39.0293 96.1021 38.9469 96.5966 38.9469C97.46 38.9469 98.1233 39.1745 98.5864 39.6298C99.0574 40.0772 99.2929 40.7052 99.2929 41.5137V48.1544C99.2929 48.4841 99.3361 48.7195 99.4224 48.8608C99.5088 49.0021 99.6226 49.0728 99.7639 49.0728C99.8738 49.0728 100.015 49.0531 100.188 49.0139C100.36 48.9747 100.604 48.8883 100.918 48.7549L101.094 49.2847Z" fill="#2E2739"/>
<path d="M73.4152 6.65957C73.1732 4.54727 72.2942 2.35619 69.4436 1.15226L69.3571 1.11876C66.7619 0.202808 63.9856 -0.151547 61.171 0.0587712L37.6088 0.00580767C35.5006 0.054981 33.4343 0.426034 31.4715 1.11876L31.3851 1.15226C28.5345 2.35629 27.6554 4.54727 27.4134 6.65957H24.291V9.7329H27.4101C27.5916 11.4769 28.0981 13.622 29.1002 15.5247C30.8391 18.8261 33.5922 20.5711 37.062 20.5711C39.6995 20.5711 42.5291 19.2103 44.8252 16.8376C46.7695 14.8286 48.119 12.297 48.6417 9.7329H52.187C52.7097 12.2969 54.0592 14.8285 56.0036 16.8376C58.2997 19.2103 61.1293 20.5711 63.7667 20.5711C67.2365 20.5711 69.9897 18.8261 71.7286 15.5247C72.7307 13.622 73.2372 11.477 73.4186 9.7329H76.5376V6.65957H73.4152ZM51.9954 6.65957H48.8331C48.7344 5.67702 48.4691 4.76998 48.0431 3.98157C47.8689 3.65908 47.6666 3.35686 47.4401 3.07402H53.3884C53.1619 3.35697 52.9596 3.65908 52.7853 3.98157C52.3595 4.76998 52.0941 5.67702 51.9954 6.65957Z" fill="#5768FF"/>
</svg>
