<svg width="118" height="30" viewBox="0 0 118 30" fill="none" xmlns="http://www.w3.org/2000/svg">
<path d="M19.7466 27.3648C18.3287 26.5368 17.0484 25.4391 15.9851 24.1482C14.919 22.86 14.0805 21.3707 13.5118 19.7783C13.3822 19.3762 13.2446 18.9742 13.1388 18.5668C13.0489 18.1541 12.9431 17.7441 12.869 17.3262C12.8134 16.9056 12.7526 16.4876 12.7103 16.0671L12.6521 14.8L12.7103 13.5329C12.7552 13.1124 12.8134 12.6918 12.8716 12.2738C12.9483 11.8585 13.0515 11.4459 13.1414 11.0332C13.2473 10.6232 13.3875 10.2238 13.5144 9.8217C14.0831 8.22928 14.9243 6.74266 15.9877 5.45444C17.0511 4.16622 18.3314 3.06845 19.7492 2.2405C20.2386 1.95482 20.7438 1.70352 21.2596 1.48132C19.3074 0.531689 17.1172 0 14.8 0C6.62627 0 0 6.62627 0 14.8C0 22.9737 6.62627 29.6 14.8 29.6C17.1146 29.6 19.3048 29.0683 21.2543 28.1213C20.7412 27.9018 20.2333 27.6505 19.7466 27.3648Z" fill="#6B00F2"/>
<path d="M25.8082 4.90942C25.0385 5.92254 24.3851 6.99121 23.8667 8.11807C22.8879 10.2316 22.3933 12.5118 22.3906 14.7999C22.3959 17.088 22.8906 19.3682 23.8693 21.4817C24.3878 22.6059 25.0411 23.6772 25.8109 24.6904C28.1678 22.069 29.6041 18.6037 29.6041 14.7999C29.6015 10.9961 28.1678 7.53083 25.8082 4.90942Z" fill="#6B00F2"/>
<path d="M22.3998 22.2806C21.0111 20.0745 20.2625 17.4372 20.2652 14.7999C20.2625 12.1653 21.0138 9.52534 22.4025 7.32187C23.1432 6.13946 24.0663 5.08137 25.1191 4.20051C24.188 3.2932 23.1352 2.50757 21.9925 1.86743C20.1038 3.08952 18.5087 4.64491 17.3078 6.44631C15.6387 8.93017 14.7578 11.8584 14.7578 14.7999C14.7605 17.7414 15.6413 20.667 17.3104 23.1509C18.5087 24.9523 20.1064 26.5076 21.9925 27.7297C23.1352 27.0922 24.1854 26.3066 25.1165 25.3993C24.0637 24.5237 23.1405 23.463 22.3998 22.2806Z" fill="#6B00F2"/>
<path d="M41.4707 4.0249H45.6685V21.9464H52.3205V25.5629H41.4707V4.0249Z" fill="#6B00F2"/>
<path d="M69.0192 4.0249V7.64149H61.2694V12.4528H68.6963V16.0694H61.2694V21.9464H69.0192V25.5629H57.0715V4.0249H69.0192Z" fill="#6B00F2"/>
<path d="M79.1407 25.5629H74.9428V4.0249H77.849L90.9591 18.3944V4.0249H95.157V25.5629H92.2508L79.1407 11.1612V25.5629Z" fill="#6B00F2"/>
<path d="M117.621 4.0249L107.159 21.9464H117.104V25.5629H100.184L110.646 7.64149H101.831V4.0249H117.621Z" fill="#6B00F2"/>
</svg>
