<svg width="28" height="29" viewBox="0 0 28 29" fill="none" xmlns="http://www.w3.org/2000/svg">
<g opacity="0.8">
<g clip-path="url(#clip0)">
<path d="M22.5333 2.87614H22.1606V0.888489H19.676V2.87614H9.61355V0.888489H7.12898V2.87614H6.13515C3.40213 2.87614 1.16602 5.11225 1.16602 7.84528V22.7527C1.16602 25.4857 3.40213 27.7218 6.13515 27.7218H22.5333C25.2663 27.7218 27.5024 25.4857 27.5024 22.7527V7.84528C27.5024 5.11225 25.2663 2.87614 22.5333 2.87614ZM6.13515 5.36071H7.12898V7.09991H9.61355V5.36071H19.676V7.09991H22.1606V5.36071H22.5333C23.8998 5.36071 25.0179 6.47877 25.0179 7.84528V8.21796H3.65058V7.84528C3.65058 6.47877 4.76864 5.36071 6.13515 5.36071ZM22.5333 25.2373H6.13515C4.76864 25.2373 3.65058 24.1192 3.65058 22.7527V10.7025H25.0179V22.7527C25.0179 24.1192 23.8998 25.2373 22.5333 25.2373Z" fill="white"/>
<path d="M8.12119 16.4163C8.80729 16.4163 9.36347 15.8601 9.36347 15.174C9.36347 14.4879 8.80729 13.9317 8.12119 13.9317C7.4351 13.9317 6.87891 14.4879 6.87891 15.174C6.87891 15.8601 7.4351 16.4163 8.12119 16.4163Z" fill="white"/>
<path d="M21.6559 13.9317H10.5996V16.4163H21.6559V13.9317Z" fill="white"/>
<path d="M8.12119 21.387C8.80729 21.387 9.36347 20.8308 9.36347 20.1447C9.36347 19.4586 8.80729 18.9024 8.12119 18.9024C7.4351 18.9024 6.87891 19.4586 6.87891 20.1447C6.87891 20.8308 7.4351 21.387 8.12119 21.387Z" fill="white"/>
<path d="M21.6559 18.9024H10.5996V21.387H21.6559V18.9024Z" fill="white"/>
</g>
</g>
<defs>
<clipPath id="clip0">
<rect width="28" height="28" fill="white" transform="translate(0 0.888489)"/>
</clipPath>
</defs>
</svg>
