<svg width="28" height="29" viewBox="0 0 28 29" fill="none" xmlns="http://www.w3.org/2000/svg">
<g opacity="0.8">
<g clip-path="url(#clip0)">
<path d="M6.18294 12.0885C6.18294 7.77182 9.68294 4.38849 13.9996 4.38849C18.3163 4.38849 21.6996 7.77182 21.6996 12.0885C21.6996 14.0718 20.9996 15.8218 19.8329 17.1052L21.5829 18.6218C23.0996 16.8718 24.0329 14.5385 24.0329 12.0885C24.0329 6.48849 19.4829 2.05516 13.9996 2.05516C8.39961 2.05516 3.84961 6.48849 3.84961 12.0885C3.84961 14.6552 4.78294 16.8718 6.29961 18.6218L8.16628 17.1052C6.88294 15.7052 6.18294 13.9552 6.18294 12.0885ZM12.4829 12.0885C12.4829 11.2718 13.1829 10.6885 13.8829 10.6885C14.6996 10.6885 15.2829 11.3885 15.2829 12.0885C15.2829 12.9052 14.5829 13.4885 13.8829 13.4885C13.1829 13.6052 12.4829 12.9052 12.4829 12.0885ZM13.9996 8.35516C11.8996 8.35516 10.2663 9.98849 10.2663 12.0885C10.2663 14.1885 11.8996 15.8218 13.9996 15.8218C16.0996 15.8218 17.7329 14.1885 17.7329 12.0885C17.7329 10.1052 16.0996 8.35516 13.9996 8.35516Z" fill="white"/>
<path d="M24.9667 10.8051C25.55 10.5718 26.3667 10.5718 26.95 10.9218C27.65 11.2718 28.1167 12.0885 27.7667 13.0218C27.7667 15.1218 27.4167 20.2551 24.5 22.8218C23.6833 23.5218 22.8667 24.3385 22.1667 24.9218C21.2333 25.7385 20.7667 26.9051 20.7667 28.1885H18.4333C18.4333 26.2051 19.1333 24.4551 20.5333 23.1718C21.2333 22.4718 22.1667 21.6551 22.9833 20.9551C25.2549 19.1379 25.5362 14.5565 25.5495 13.0234C24.8492 15.1237 23.3327 18.8557 20.65 20.9551L18.7833 22.7051C18.3167 23.0551 17.6167 23.0551 17.15 22.5885C16.8 22.1218 16.8 21.4218 17.2667 20.9551L19.1333 19.3218L19.6 18.5051V18.3885C16.1 21.3051 15.4 22.7051 15.2833 23.1718C14.9333 24.5718 15.05 27.3718 15.05 28.1885H12.7167C12.8333 27.3718 12.8333 24.5718 12.4833 23.1718C12.3667 22.7051 11.6667 21.3051 8.28333 18.5051L8.75 19.3218L10.6167 20.9551C11.0833 21.4218 11.2 22.1218 10.7333 22.5885C10.2667 23.0551 9.56667 23.1718 9.1 22.7051L7.23333 20.9551C4.55 18.8551 3.03333 15.1218 2.33333 13.0218C2.33333 14.5385 2.68333 19.0885 4.78333 20.8385C5.71667 21.6551 6.53333 22.3551 7.23333 23.0551C8.51667 24.3385 9.33333 26.3218 9.33333 28.1885H7C7 26.9051 6.53333 25.6218 5.6 24.8051C4.9 24.2218 4.08333 23.4051 3.26667 22.7051C0.466666 20.2551 0 15.0051 0 12.9051C0 12.0885 0.466667 11.2718 1.16667 10.9218C1.75 10.5718 2.56667 10.5718 3.15 10.8051C3.85 11.0385 4.43333 11.6218 4.66667 12.3218C5.01667 13.4885 5.6 15.2385 6.65 16.7551L6.76667 16.6385C7.58333 15.8218 8.86667 15.8218 9.8 16.6385C11.9 18.2718 13.3 19.6718 14.1167 20.9551C14.9333 19.6718 16.3333 18.2718 18.4333 16.6385C19.3667 15.8218 20.65 15.8218 21.4667 16.6385L21.5833 16.7551C22.5167 15.2385 23.2167 13.4885 23.5667 12.3218C23.8 11.6218 24.2667 11.0385 24.9667 10.8051Z" fill="white"/>
</g>
</g>
<defs>
<clipPath id="clip0">
<rect width="28" height="28" fill="white" transform="translate(0 0.888489)"/>
</clipPath>
</defs>
</svg>
