<svg width="93" height="31" viewBox="0 0 93 31" fill="none" xmlns="http://www.w3.org/2000/svg">
<path d="M13.0785 7.46924H0.234394V11.5592L8.60572 11.5592C8.85438 11.5592 9.09284 11.658 9.26867 11.8338C9.44449 12.0096 9.54327 12.2481 9.54328 12.4968V19.7392H7.7542C7.50554 19.7392 7.26707 19.6404 7.09125 19.4645C6.91542 19.2887 6.81664 19.0503 6.81664 18.8016V13.6042H3.28143C2.8505 13.6042 2.4238 13.6891 2.02568 13.854C1.62756 14.0189 1.26581 14.2606 0.961105 14.5653C0.656396 14.87 0.414688 15.2318 0.249782 15.6299C0.0848748 16.028 -1.07117e-06 16.4547 0 16.8856V20.5477C-4.28463e-07 20.9786 0.0848759 21.4053 0.249783 21.8035C0.41469 22.2016 0.656398 22.5633 0.961106 22.868C1.26582 23.1727 1.62756 23.4145 2.02568 23.5794C2.4238 23.7443 2.8505 23.8291 3.28143 23.8291H16.3599V10.7507C16.3599 10.3197 16.275 9.89304 16.1101 9.49492C15.9452 9.0968 15.7035 8.73505 15.3988 8.43035C15.0941 8.12564 14.7323 7.88393 14.3342 7.71902C13.9361 7.55411 13.5094 7.46924 13.0785 7.46924Z" fill="#0ABF53"/>
<path d="M28.6289 19.7394H26.8398C26.5912 19.7394 26.3527 19.6406 26.1769 19.4648C26.0011 19.289 25.9023 19.0505 25.9023 18.8019V7.46942H22.3674C21.9364 7.46942 21.5097 7.55429 21.1116 7.7192C20.7135 7.8841 20.3518 8.12581 20.047 8.43052C19.7423 8.73523 19.5006 9.09697 19.3357 9.49509C19.1708 9.89321 19.0859 10.3199 19.0859 10.7508V20.548C19.0859 20.9789 19.1708 21.4056 19.3357 21.8037C19.5006 22.2018 19.7423 22.5636 20.047 22.8683C20.3518 23.173 20.7135 23.4147 21.1116 23.5796C21.5097 23.7445 21.9364 23.8294 22.3674 23.8294H35.4458V0.652832H28.6291L28.6289 19.7394Z" fill="#0ABF53"/>
<path d="M47.715 19.7392H45.9259C45.6772 19.7392 45.4388 19.6404 45.2629 19.4646C45.0871 19.2888 44.9883 19.0503 44.9883 18.8017V7.46924H38.1719V20.5478C38.1719 20.9787 38.2567 21.4054 38.4217 21.8035C38.5866 22.2017 38.8283 22.5634 39.133 22.8681C39.4377 23.1728 39.7994 23.4145 40.1976 23.5794C40.5957 23.7443 41.0224 23.8292 41.4533 23.8292H47.7152V25.8742H38.4063V30.6449H51.2505C52.1208 30.6449 52.9554 30.2992 53.5708 29.6838C54.1862 29.0684 54.5319 28.2338 54.5319 27.3635V7.46924H47.715V19.7392Z" fill="#0ABF53"/>
<path d="M70.3401 7.46924H57.2617V20.5477C57.2617 20.9786 57.3466 21.4053 57.5115 21.8035C57.6764 22.2016 57.9181 22.5633 58.2228 22.868C58.5275 23.1727 58.8893 23.4145 59.2874 23.5794C59.6855 23.7443 60.1122 23.8291 60.5431 23.8291H73.3871V19.7391H65.0157C64.7671 19.7391 64.5286 19.6404 64.3528 19.4645C64.177 19.2887 64.0782 19.0503 64.0782 18.8016V11.5593H65.8673C65.9904 11.5593 66.1123 11.5835 66.2261 11.6306C66.3398 11.6777 66.4432 11.7468 66.5302 11.8338C66.6173 11.9209 66.6864 12.0243 66.7335 12.138C66.7806 12.2518 66.8048 12.3737 66.8048 12.4968V17.6942H70.3401C70.771 17.6942 71.1977 17.6093 71.5958 17.4444C71.994 17.2795 72.3557 17.0378 72.6604 16.7331C72.9651 16.4283 73.2068 16.0666 73.3717 15.6685C73.5366 15.2704 73.6215 14.8437 73.6215 14.4127V10.7507C73.6215 10.3197 73.5366 9.89304 73.3717 9.49492C73.2068 9.09679 72.9651 8.73505 72.6604 8.43034C72.3557 8.12563 71.994 7.88393 71.5958 7.71902C71.1977 7.55411 70.771 7.46924 70.3401 7.46924Z" fill="#0ABF53"/>
<path d="M89.4263 7.46924H76.3477V23.8291H83.1644V11.5592H84.9535C85.2019 11.5599 85.4399 11.6589 85.6156 11.8346C85.7913 12.0102 85.8903 12.2483 85.891 12.4967V23.8291H92.7077V10.7507C92.7077 10.3197 92.6228 9.89304 92.4579 9.49492C92.293 9.09679 92.0513 8.73505 91.7466 8.43034C91.4419 8.12563 91.0802 7.88393 90.682 7.71902C90.2839 7.55411 89.8572 7.46924 89.4263 7.46924Z" fill="#0ABF53"/>
</svg>
