<svg width="28" height="29" viewBox="0 0 28 29" fill="none" xmlns="http://www.w3.org/2000/svg">
<g opacity="0.8">
<path fill-rule="evenodd" clip-rule="evenodd" d="M13.9828 13.155C12.6188 13.155 11.513 14.2608 11.513 15.6248C11.513 16.9888 12.6188 18.0946 13.9828 18.0946C15.3468 18.0946 16.4526 16.9888 16.4526 15.6248C16.4526 14.2608 15.3468 13.155 13.9828 13.155ZM9.17969 15.6248C9.17969 12.9721 11.3301 10.8217 13.9828 10.8217C16.6355 10.8217 18.7859 12.9721 18.7859 15.6248C18.7859 18.2775 16.6355 20.4279 13.9828 20.4279C11.3301 20.4279 9.17969 18.2775 9.17969 15.6248Z" fill="white"/>
<path fill-rule="evenodd" clip-rule="evenodd" d="M13.982 10.3964C12.0231 10.3964 10.1415 11.0198 8.45753 11.9113L7.36571 9.84922C9.27125 8.84031 11.531 8.06302 13.982 8.06302C17.7801 8.06302 21.1323 9.9279 23.4622 11.6836C24.6406 12.5715 25.592 13.4576 26.2498 14.1224C26.5793 14.4554 26.8368 14.7345 27.014 14.9329C27.1026 15.0321 27.1713 15.1113 27.2189 15.167C27.2427 15.1949 27.2613 15.2169 27.2745 15.2327L27.2902 15.2516L27.2951 15.2574L27.2967 15.2594C27.297 15.2597 27.2979 15.2608 26.3961 16.001C27.2979 16.7412 27.2976 16.7415 27.2974 16.7418L27.2951 16.7446L27.2902 16.7504L27.2745 16.7693C27.2613 16.7851 27.2427 16.8071 27.2189 16.835C27.1713 16.8907 27.1026 16.9699 27.014 17.0691C26.8368 17.2675 26.5793 17.5466 26.2498 17.8796C25.592 18.5444 24.6406 19.4304 23.4622 20.3184C21.1323 22.0741 17.7801 23.939 13.982 23.939C10.1839 23.939 6.83176 22.0741 4.50183 20.3184C3.32345 19.4304 2.37203 18.5444 1.71423 17.8796C1.3847 17.5466 1.12719 17.2675 0.950011 17.0691C0.861383 16.9699 0.792734 16.8907 0.745106 16.835C0.721288 16.8071 0.702714 16.7851 0.689516 16.7693L0.67376 16.7504L0.668933 16.7446L0.667288 16.7426C0.667026 16.7422 0.666156 16.7412 1.56794 16.001C0.666156 15.2608 0.666245 15.2607 0.666338 15.2606L0.668175 15.2583L0.67147 15.2543L0.681865 15.2418L0.717714 15.1992C0.748242 15.1632 0.791966 15.1121 0.848377 15.0477C0.961163 14.919 1.12488 14.7367 1.33545 14.5139C1.75612 14.0688 2.36639 13.4595 3.13359 12.7926L4.6644 14.5536C4.02972 15.1053 3.51394 15.6129 3.14137 16.001C3.21318 16.0758 3.29037 16.1551 3.37277 16.2384C3.97134 16.8433 4.83792 17.65 5.90605 18.4549C8.06913 20.0849 10.924 21.6056 13.982 21.6056C17.04 21.6056 19.8949 20.0849 22.058 18.4549C23.1261 17.65 23.9927 16.8433 24.5912 16.2384C24.6736 16.1551 24.7508 16.0758 24.8226 16.001C24.7508 15.9262 24.6736 15.8469 24.5912 15.7636C23.9927 15.1587 23.1261 14.352 22.058 13.5471C19.8949 11.9171 17.04 10.3964 13.982 10.3964ZM1.56794 16.001L0.666338 15.2606L0.0585938 16.001L0.666156 16.7412L1.56794 16.001ZM26.3961 16.001L27.2974 16.7418L27.9054 16.001L27.2979 15.2608L26.3961 16.001Z" fill="white"/>
<path fill-rule="evenodd" clip-rule="evenodd" d="M6.27011 5.88672L5.45541 6.72181L4.64072 5.88672L5.45541 5.09192L6.27011 5.88672ZM5.45541 8.48408C5.53629 8.58709 5.61894 8.69617 5.70136 8.81011C6.28148 9.61215 6.67124 10.4146 6.67124 10.9852C6.67124 11.7524 6.45821 12.395 6.1747 12.8128C5.88688 13.237 5.6115 13.3296 5.45541 13.3296C5.29933 13.3296 5.02395 13.237 4.73612 12.8128C4.45262 12.395 4.23958 11.7524 4.23958 10.9852C4.23958 10.4146 4.62934 9.61215 5.20947 8.81011C5.29188 8.69617 5.37454 8.58709 5.45541 8.48408ZM4.64072 5.88672C4.6409 5.88654 4.64071 5.88672 5.45541 6.72181C6.27011 5.88672 6.26992 5.88654 6.27011 5.88672L6.27191 5.88848L6.27459 5.89111L6.28251 5.89891L6.30824 5.92455C6.32965 5.94601 6.3594 5.97615 6.39631 6.0143C6.47004 6.09053 6.57278 6.19918 6.6949 6.33487C6.93793 6.60493 7.2637 6.98877 7.59196 7.44261C8.20309 8.28751 9.00458 9.61679 9.00458 10.9852C9.00458 12.1572 8.68427 13.2701 8.10548 14.123C7.53101 14.9696 6.61515 15.6629 5.45541 15.6629C4.29568 15.6629 3.37981 14.9696 2.80535 14.123C2.22656 13.2701 1.90625 12.1572 1.90625 10.9852C1.90625 9.61679 2.70774 8.28751 3.31886 7.44261C3.64713 6.98877 3.9729 6.60493 4.21593 6.33487C4.33804 6.19918 4.44078 6.09053 4.51452 6.0143C4.55143 5.97615 4.58118 5.94601 4.60258 5.92455L4.62832 5.89891L4.63624 5.89111L4.63891 5.88848L4.64072 5.88672Z" fill="white"/>
</g>
</svg>
