<svg width="160" height="133" viewBox="0 0 160 133" fill="none" xmlns="http://www.w3.org/2000/svg">
<g filter="url(#filter0_d)">
<circle cx="80" cy="71" r="40" fill="white"/>
</g>
<path d="M32.1071 27.2654C32.8495 26.9787 33.5919 26.9309 34.3502 27.0902C35.1084 27.2495 35.8034 27.6319 36.4669 28.2373C37.1304 28.8427 37.5726 29.4959 37.8096 30.2288C38.0465 30.9617 38.0623 31.7105 37.857 32.4912C37.6516 33.2559 37.2409 33.9888 36.6249 34.6898L34.5555 37L28 31.0414L30.0693 28.7312C30.6854 28.0302 31.3646 27.5363 32.1071 27.2654ZM36.3247 31.599C36.2931 30.882 35.9298 30.2129 35.2506 29.5915C34.5713 28.9702 33.8605 28.6834 33.1496 28.6993C32.423 28.7312 31.7596 29.0976 31.1277 29.7827L30.2905 30.7227L34.6187 34.658L35.4559 33.718C36.072 33.017 36.3721 32.3159 36.3247 31.599Z" fill="#1B84F9"/>
<path d="M42.5631 19L48 26.0192L46.4369 27L41 19.9808L42.5631 19Z" fill="#1B84F9"/>
<path d="M55.1603 21C54.6055 21 54.116 20.8572 53.6918 20.6034C53.2675 20.3496 52.9412 19.9689 52.7127 19.4771L54.5239 18.7474C54.6871 19.0806 54.9319 19.2868 55.2256 19.3978C55.5356 19.5089 55.8783 19.4771 56.2699 19.3185C56.6615 19.1599 56.9389 18.9378 57.0858 18.6681C57.2326 18.3984 57.2489 18.1129 57.1184 17.8115C57.0205 17.5736 56.8573 17.3991 56.6289 17.3039C56.4004 17.2087 56.172 17.1611 55.8946 17.1611C55.6172 17.1611 55.2745 17.1928 54.8177 17.2404C54.1976 17.3039 53.6918 17.3356 53.2838 17.3198C52.8759 17.3039 52.4843 17.1928 52.109 16.9866C51.7337 16.7804 51.44 16.4156 51.2115 15.9079C50.9994 15.4162 50.9505 14.9561 51.0484 14.4961C51.1463 14.0361 51.3747 13.6236 51.75 13.2429C52.1253 12.8781 52.5985 12.5608 53.1696 12.3387C54.0344 11.9897 54.834 11.9104 55.5519 12.1008C56.2699 12.2911 56.8084 12.7512 57.1837 13.4491L55.3235 14.1947C55.1929 13.925 54.9645 13.7347 54.6545 13.6395C54.3445 13.5443 54.0018 13.576 53.6265 13.7347C53.3001 13.8616 53.0717 14.0519 52.9412 14.3058C52.8106 14.5437 52.8106 14.8292 52.9575 15.1465C53.0554 15.3686 53.2022 15.5114 53.4144 15.6065C53.6265 15.6858 53.8549 15.7334 54.116 15.7334C54.3771 15.7334 54.7361 15.7176 55.1766 15.67C55.7967 15.6065 56.3025 15.5748 56.7105 15.5907C57.1184 15.6065 57.5263 15.7176 57.9016 15.9397C58.2769 16.1459 58.5869 16.5107 58.7991 17.0184C58.9949 17.4625 59.0438 17.9067 58.9622 18.3826C58.897 18.8585 58.6685 19.2868 58.3259 19.6992C57.9669 20.0958 57.4774 20.4289 56.8736 20.6827C56.2862 20.889 55.7151 21 55.1603 21Z" fill="#1B84F9"/>
<path d="M66.3366 10.6737C66.6437 9.94946 67.1286 9.3512 67.759 8.89462C68.4055 8.43805 69.149 8.15466 70.0056 8.04445C71.0077 7.9185 71.9129 8.0602 72.7372 8.46954C73.5615 8.87888 74.1757 9.50863 74.5798 10.3588L72.5109 10.6107C72.2523 10.2171 71.929 9.94946 71.525 9.77628C71.1209 9.61884 70.6845 9.55587 70.1996 9.61884C69.6824 9.68182 69.2298 9.855 68.8581 10.1384C68.4863 10.4218 68.2115 10.7996 68.0337 11.2562C67.8721 11.7285 67.8236 12.2481 67.8883 12.8306C67.9691 13.4131 68.1469 13.9012 68.4217 14.3105C68.6964 14.7199 69.0682 15.019 69.5046 15.2079C69.941 15.3968 70.4259 15.4598 70.9431 15.3968C71.428 15.3339 71.8482 15.1764 72.1876 14.9245C72.5271 14.6726 72.7857 14.3105 72.9311 13.8697L75 13.6178C74.8222 14.5467 74.3858 15.3024 73.6908 15.8849C73.012 16.4674 72.1553 16.8295 71.1532 16.9555C70.2966 17.0657 69.5046 16.9712 68.7611 16.6721C68.0176 16.373 67.4195 15.9164 66.9347 15.2866C66.4498 14.6569 66.1588 13.9169 66.0457 13.0668C65.9326 12.2008 66.0295 11.4136 66.3366 10.6737Z" fill="#1B84F9"/>
<path d="M84.6372 15.9952C84.0255 15.5082 83.5706 14.8956 83.2882 14.1573C83.0059 13.419 82.9274 12.6178 83.0686 11.7695C83.2098 10.9213 83.5235 10.1987 84.0412 9.58602C84.5431 8.97338 85.1706 8.53353 85.9078 8.26648C86.6451 7.99943 87.4137 7.93659 88.2294 8.06227C89.0451 8.20364 89.751 8.51782 90.3785 9.00479C90.9902 9.49177 91.4294 10.1044 91.7118 10.8427C91.9941 11.581 92.0726 12.3665 91.9314 13.2148C91.7902 14.063 91.4765 14.8013 90.9745 15.414C90.4726 16.0266 89.8451 16.4665 89.1079 16.7335C88.3706 17.0006 87.602 17.0634 86.7863 16.9377C85.9706 16.7964 85.249 16.4822 84.6372 15.9952ZM88.4647 15.2569C88.9039 15.0841 89.2647 14.8013 89.5628 14.3929C89.8608 14.0002 90.049 13.4975 90.1432 12.9163C90.2373 12.3351 90.2059 11.8167 90.0647 11.3454C89.9079 10.8741 89.6569 10.4971 89.2961 10.1987C88.9353 9.90019 88.4961 9.71169 87.9784 9.63314C87.4608 9.5546 86.9745 9.58602 86.5353 9.75882C86.0961 9.9159 85.7353 10.2144 85.4372 10.6071C85.1392 10.9998 84.951 11.4868 84.8568 12.068C84.7627 12.6492 84.7941 13.1676 84.9353 13.6546C85.0921 14.1259 85.3431 14.5186 85.7039 14.817C86.0647 15.1155 86.5039 15.304 87.0216 15.3983C87.5549 15.4611 88.0255 15.4297 88.4647 15.2569Z" fill="#1B84F9"/>
<path d="M110 15.6252L103.013 22L101 21.0937L101.933 12L103.7 12.7988L102.816 19.9724L108.216 14.8418L110 15.6252Z" fill="#1B84F9"/>
<path d="M118.365 23.2292L116.885 24.9089L119.253 26.8085L118.316 27.876L115.947 25.9765L114.385 27.7504L117.049 29.9011L116.079 31L112 27.719L117.921 21L122 24.281L121.03 25.3799L118.365 23.2292Z" fill="#1B84F9"/>
<path d="M123.695 40.2632L125.38 36.5083L124.882 35.797L122.043 37.8977L121 36.3925L128.268 31L130.225 33.812C130.626 34.391 130.867 34.9534 130.963 35.5158C131.043 36.0782 130.995 36.5744 130.802 37.0376C130.61 37.4842 130.305 37.8647 129.888 38.1789C129.407 38.5263 128.877 38.7083 128.284 38.7083C127.69 38.7083 127.129 38.4767 126.599 38.0135L124.899 42L123.695 40.2632ZM125.973 34.9865L126.856 36.2436C127.145 36.6571 127.449 36.8887 127.786 36.9383C128.123 37.0045 128.444 36.9053 128.797 36.6571C129.134 36.409 129.326 36.1113 129.359 35.7805C129.391 35.4496 129.278 35.0692 129.006 34.6556L128.123 33.3985L125.973 34.9865Z" fill="#1B84F9"/>
<defs>
<filter id="filter0_d" x="0" y="0.333332" width="160" height="160" filterUnits="userSpaceOnUse" color-interpolation-filters="sRGB">
<feFlood flood-opacity="0" result="BackgroundImageFix"/>
<feColorMatrix in="SourceAlpha" type="matrix" values="0 0 0 0 0 0 0 0 0 0 0 0 0 0 0 0 0 0 127 0"/>
<feOffset dy="9.33333"/>
<feGaussianBlur stdDeviation="20"/>
<feColorMatrix type="matrix" values="0 0 0 0 0.278431 0 0 0 0 0.301961 0 0 0 0 0.529412 0 0 0 0.1 0"/>
<feBlend mode="normal" in2="BackgroundImageFix" result="effect1_dropShadow"/>
<feBlend mode="normal" in="SourceGraphic" in2="effect1_dropShadow" result="shape"/>
</filter>
<linearGradient id="paint0_linear" x1="87" y1="61.6666" x2="87.3617" y2="79.8267" gradientUnits="userSpaceOnUse">
<stop stop-color="#229AFA"/>
<stop offset="1" stop-color="#1168F8"/>
</linearGradient>
</defs>
</svg>
