<svg width="24" height="24" viewBox="0 0 24 24" fill="none" xmlns="http://www.w3.org/2000/svg">
<path d="M7.12117 5.70708C6.73064 5.31655 6.09748 5.31655 5.70696 5.70708C5.31643 6.0976 5.31643 6.73077 5.70696 7.12129L10.6567 12.0711L5.70698 17.0208C5.31646 17.4113 5.31646 18.0445 5.70698 18.435C6.09751 18.8255 6.73067 18.8255 7.1212 18.435L12.0709 13.4853L17.0207 18.435C17.4112 18.8255 18.0444 18.8255 18.4349 18.435C18.8254 18.0445 18.8254 17.4113 18.4349 17.0208L13.4851 12.0711L18.4349 7.12129C18.8254 6.73077 18.8254 6.0976 18.4349 5.70708C18.0444 5.31655 17.4112 5.31655 17.0207 5.70708L12.0709 10.6568L7.12117 5.70708Z" fill="url(#paint0_linear)"/>
<defs>
<linearGradient id="paint0_linear" x1="5.41406" y1="5.41418" x2="18.3678" y2="5.19306" gradientUnits="userSpaceOnUse">
<stop stop-color="#229AFA"/>
<stop offset="1" stop-color="#1168F8"/>
</linearGradient>
</defs>
</svg>
