<svg width="375" height="179" viewBox="0 0 375 179" fill="none" xmlns="http://www.w3.org/2000/svg">
<path d="M133.455 1.34778L132.153 1.34115C117.416 1.26612 105.416 12.3582 105.346 26.1201L105.125 69.4679C105.055 83.2298 93.055 94.3218 78.3179 94.2468L77.0165 94.2402C62.2794 94.1651 50.3929 82.9514 50.463 69.1895L50.5166 58.6565C50.5867 44.8946 38.7002 33.6808 23.9631 33.6058L22.6616 33.5992C7.92454 33.5241 -4.0755 44.6163 -4.14556 58.3782L-6.72801 565.587C-6.79808 579.349 5.08838 590.563 19.8255 590.638L21.127 590.644C35.8641 590.719 47.8641 579.627 47.9342 565.865L48.0332 546.42C48.1032 532.658 60.1033 521.566 74.8404 521.641L76.1418 521.647C90.8789 521.722 102.765 532.936 102.695 546.698L102.623 560.877C102.553 574.639 114.44 585.853 129.177 585.928L130.478 585.934C145.215 586.009 157.215 574.917 157.285 561.155L157.298 558.725C157.368 544.963 169.368 533.871 184.105 533.946L185.406 533.952C200.143 534.027 212.03 545.241 211.96 559.003L211.82 586.551C211.75 600.313 223.636 611.527 238.373 611.602L239.675 611.608C254.412 611.683 266.412 600.591 266.482 586.829L266.548 573.866C266.618 560.104 278.618 549.012 293.355 549.087L294.656 549.093C309.394 549.168 321.28 560.382 321.21 574.144L321.123 591.159C321.053 604.921 332.94 616.134 347.677 616.21L348.978 616.216C363.715 616.291 375.715 605.199 375.785 591.437L378.508 56.6803C378.578 42.9184 366.692 31.7046 351.955 31.6296L350.653 31.623C335.916 31.5479 323.916 42.6401 323.846 56.402L323.741 77.063C323.671 90.8249 311.671 101.917 296.934 101.842L295.632 101.835C280.895 101.76 269.009 90.5466 269.079 76.7847L269.165 59.7697C269.235 46.0078 257.349 34.7941 242.612 34.719L241.31 34.7124C226.573 34.6374 214.573 45.7295 214.503 59.4914C214.433 73.2533 202.433 84.3454 187.696 84.2703L186.394 84.2637C171.657 84.1887 159.771 72.975 159.841 59.2131L160.008 26.3985C160.078 12.6366 148.192 1.42281 133.455 1.34778Z" fill="white" fill-opacity="0.1"/>
</svg>
