<svg width="98" height="45" viewBox="0 0 98 45" fill="none" xmlns="http://www.w3.org/2000/svg">
<path d="M2.90964 11.2428C2.5745 10.1862 2.02392 9.36975 1.06638 8.76943C0.683367 8.5293 0.34823 7.97701 0.264446 7.52076C-0.39386 3.75074 -0.0228151 3.35453 3.69961 2.53809C10.2946 1.0733 16.9256 -0.079316 23.8438 0.0767677C30.4986 -0.127342 37.0099 1.10932 43.3057 3.72673C46.8007 5.1795 50.547 5.25154 54.0061 3.75074C62.9112 -0.103329 72.1874 -0.57158 81.6071 0.496993C84.7103 0.846394 87.7873 1.45314 90.8659 2.0602C92.442 2.37099 94.0185 2.68186 95.5991 2.95831C96.7601 3.16242 97.3346 3.70271 97.215 4.93938C97.1762 5.32826 97.1927 5.72218 97.2091 6.1146C97.218 6.32798 97.2269 6.54091 97.2269 6.75235C97.2269 7.74888 96.9516 8.5173 95.9941 9.10561C95.4076 9.4538 94.9288 10.1862 94.6895 10.8465C94.116 12.3979 93.579 13.9661 93.0418 15.5349C92.469 17.2078 91.8959 18.8814 91.2782 20.5357C89.9975 24.0056 87.3763 26.0827 83.977 27.2714C81.3917 28.1838 78.2557 28.6041 75.4669 28.6041C74.9601 28.6041 74.4607 28.5957 73.9672 28.5781V27.0224C74.4634 27.0513 74.9595 27.07 75.4549 27.0792C78.8422 27.0192 82.0021 26.659 85.0303 25.4584C87.0292 24.666 88.5732 23.3933 89.5666 21.4362C91.5176 17.5822 92.1999 13.4519 92.2238 9.18966C92.2358 5.9239 91.1825 4.48313 88.1064 3.4986C81.5233 1.37346 74.7607 0.869193 67.9024 1.56557C64.6348 1.90175 61.4271 2.49006 58.4467 3.99087C56.1845 5.13148 55.0834 6.93245 55.1911 9.4538C55.2511 11.0754 55.5162 12.6273 55.9469 14.1219H54.2264C54.1036 13.6744 53.9837 13.226 53.864 12.7781C53.7021 12.1723 53.5404 11.5673 53.3718 10.9666C52.6417 8.3492 51.8038 7.5928 49.1107 7.56879L49.1048 7.56866C48.5323 7.5567 47.9717 7.54498 47.4111 7.60481C45.5559 7.7849 44.7779 8.50529 44.2273 10.2942C43.8053 11.6606 43.4024 12.9002 42.9899 14.1219H41.4929C41.885 12.6585 42.1282 11.1364 42.2285 9.56186C42.3841 7.05251 41.3068 5.1795 39.0327 4.0509C38.4582 3.76274 37.8836 3.4866 37.2852 3.25847C33.096 1.68563 28.7033 1.38547 24.3465 1.24139C19.1159 1.39748 13.9931 1.84171 9.06181 3.57064C6.29692 4.54316 5.26757 5.9239 5.19576 8.87749C5.1 12.6475 5.80618 16.3095 7.08689 19.8634C8.2479 23.0451 10.4742 25.0261 13.7178 25.9506C17.4694 27.0236 21.2054 27.3138 24.9328 26.9233V28.2544C21.6929 28.5498 18.4373 28.4707 15.1661 27.7636C10.4861 26.7431 7.1587 24.0776 5.61468 19.4071C5.26935 18.3587 4.9187 17.312 4.5682 16.2657C4.00756 14.5922 3.44727 12.9198 2.90964 11.2428Z" fill="#2716E0"/>
<path d="M35.1897 19.1967C34.7161 19.1967 34.2703 19.2803 33.8525 19.4474C33.4439 19.6146 33.0864 19.87 32.7799 20.2135C32.4735 20.5571 32.2274 20.9936 32.0417 21.5229C31.8652 22.0429 31.777 22.6604 31.777 23.3754C31.777 24.0905 31.8652 24.7126 32.0417 25.2419C32.2274 25.762 32.4735 26.1938 32.7799 26.5374C33.0864 26.8809 33.4439 27.1363 33.8525 27.3035C34.2703 27.4706 34.7161 27.5542 35.1897 27.5542C35.6632 27.5542 36.1043 27.4706 36.5129 27.3035C36.9308 27.1363 37.2929 26.8809 37.5994 26.5374C37.9058 26.1938 38.1473 25.762 38.3237 25.2419C38.5094 24.7126 38.6023 24.0905 38.6023 23.3754C38.6023 22.6604 38.5094 22.0429 38.3237 21.5229C38.1473 20.9936 37.9058 20.5571 37.5994 20.2135C37.2929 19.87 36.9308 19.6146 36.5129 19.4474C36.1043 19.2803 35.6632 19.1967 35.1897 19.1967ZM35.1897 18.2217C36.0254 18.2217 36.7822 18.3331 37.4601 18.556C38.1473 18.7788 38.7323 19.1085 39.2152 19.5449C39.7073 19.9814 40.0881 20.52 40.3574 21.1607C40.6266 21.8015 40.7613 22.5397 40.7613 23.3754C40.7613 24.2112 40.6266 24.9494 40.3574 25.5902C40.0881 26.2309 39.7073 26.7695 39.2152 27.2059C38.7323 27.6424 38.1473 27.972 37.4601 28.1949C36.7822 28.4178 36.0254 28.5292 35.1897 28.5292C34.3539 28.5292 33.5925 28.4178 32.9053 28.1949C32.2181 27.972 31.6284 27.6424 31.1363 27.2059C30.6534 26.7695 30.2773 26.2309 30.008 25.5902C29.748 24.9494 29.618 24.2112 29.618 23.3754C29.618 22.5397 29.748 21.8015 30.008 21.1607C30.2773 20.52 30.6534 19.9814 31.1363 19.5449C31.6284 19.1085 32.2181 18.7788 32.9053 18.556C33.5925 18.3331 34.3539 18.2217 35.1897 18.2217Z" fill="#2716E0"/>
<path d="M48.5967 18.5003C49.2931 18.5003 49.9153 18.5792 50.4632 18.7371C51.0203 18.8856 51.4893 19.1085 51.87 19.4057C52.2508 19.6935 52.5433 20.051 52.7476 20.4782C52.9518 20.8961 53.054 21.3743 53.054 21.9129C53.054 22.4515 52.9518 22.9344 52.7476 23.3615C52.5433 23.7794 52.2508 24.1369 51.87 24.4341C51.4893 24.7219 51.0203 24.9448 50.4632 25.1027C49.9153 25.2512 49.2931 25.3255 48.5967 25.3255H45.6019V28.2506H43.5822V18.5003H48.5967ZM45.6019 19.5449V24.2808H48.5967C49.3303 24.2808 49.8967 24.0905 50.296 23.7097C50.7046 23.3197 50.9089 22.7208 50.9089 21.9129C50.9089 21.105 50.7046 20.5107 50.296 20.13C49.8967 19.74 49.3303 19.5449 48.5967 19.5449H45.6019Z" fill="#2716E0"/>
<path d="M63.8787 19.5449H60.1178V28.2506H58.0981V19.5449H54.3373V18.5003H63.8787V19.5449Z" fill="#2716E0"/>
<path d="M68.1578 28.2506H66.1381V18.5003H68.1578V28.2506Z" fill="#2716E0"/>
<path d="M24.64 42.8574H24.7793L28.2755 34.291H30.3509L26.3811 44.0414H23.0382L19.0684 34.291H21.1438L24.64 42.8574Z" fill="#2716E0"/>
<path d="M34.63 44.0414H32.6103V34.291H34.63V44.0414Z" fill="#2716E0"/>
<path d="M46.7802 41.4645C46.7802 41.8638 46.6966 42.2399 46.5295 42.5927C46.3623 42.9363 46.0884 43.2381 45.7076 43.4981C45.3362 43.7489 44.8487 43.9485 44.2451 44.0971C43.6508 44.2457 42.9172 44.32 42.0443 44.32C41.5521 44.32 41.0692 44.2828 40.5957 44.2085C40.1314 44.1342 39.6856 44.0274 39.2585 43.8882C38.8406 43.7489 38.4506 43.5817 38.0884 43.3867C37.7355 43.1824 37.4291 42.9595 37.1691 42.7181L37.8656 41.8824C38.3949 42.3374 39.0124 42.6856 39.7181 42.927C40.4239 43.1592 41.1993 43.2753 42.0443 43.2753C42.9822 43.2753 43.6461 43.1453 44.0361 42.8853C44.4262 42.6252 44.6212 42.2677 44.6212 41.8127C44.6212 41.4598 44.4679 41.1627 44.1615 40.9213C43.8551 40.6798 43.335 40.443 42.6014 40.2109L39.9549 39.3751C39.082 39.0965 38.4227 38.7437 37.977 38.3165C37.5313 37.8801 37.3084 37.3275 37.3084 36.659C37.3084 36.3154 37.3873 35.9857 37.5452 35.67C37.7123 35.345 37.9677 35.0617 38.3113 34.8203C38.6549 34.5696 39.0913 34.3746 39.6206 34.2353C40.1592 34.0867 40.8046 34.0124 41.5568 34.0124C42.0118 34.0124 42.4622 34.0496 42.9079 34.1239C43.3629 34.1981 43.7947 34.3049 44.2033 34.4442C44.6212 34.5835 45.0065 34.7553 45.3594 34.9596C45.7216 35.1546 46.0327 35.3728 46.2927 35.6143L45.5962 36.45C45.0669 35.995 44.4726 35.6514 43.8133 35.4193C43.154 35.1778 42.4018 35.0571 41.5568 35.0571C40.8603 35.0571 40.3356 35.1778 39.9828 35.4193C39.6392 35.6607 39.4674 35.9579 39.4674 36.3107C39.4674 36.5057 39.4999 36.6775 39.5649 36.8261C39.6299 36.9654 39.7367 37.1 39.8853 37.23C40.0431 37.3508 40.2474 37.4668 40.4982 37.5783C40.7489 37.6804 41.06 37.7919 41.4314 37.9126L44.064 38.7483C44.909 39.0176 45.573 39.3705 46.0559 39.8069C46.5387 40.2434 46.7802 40.7959 46.7802 41.4645Z" fill="#2716E0"/>
<path d="M51.3368 44.0414H49.3171V34.291H51.3368V44.0414Z" fill="#2716E0"/>
<path d="M59.7261 34.9875C59.2525 34.9875 58.8067 35.071 58.3889 35.2382C57.9803 35.4053 57.6228 35.6607 57.3163 36.0043C57.0099 36.3479 56.7638 36.7843 56.5781 37.3136C56.4017 37.8336 56.3134 38.4512 56.3134 39.1662C56.3134 39.8812 56.4017 40.5034 56.5781 41.0327C56.7638 41.5527 57.0099 41.9845 57.3163 42.3281C57.6228 42.6717 57.9803 42.927 58.3889 43.0942C58.8067 43.2613 59.2525 43.3449 59.7261 43.3449C60.1997 43.3449 60.6407 43.2613 61.0493 43.0942C61.4672 42.927 61.8294 42.6717 62.1358 42.3281C62.4422 41.9845 62.6837 41.5527 62.8601 41.0327C63.0458 40.5034 63.1387 39.8812 63.1387 39.1662C63.1387 38.4512 63.0458 37.8336 62.8601 37.3136C62.6837 36.7843 62.4422 36.3479 62.1358 36.0043C61.8294 35.6607 61.4672 35.4053 61.0493 35.2382C60.6407 35.071 60.1997 34.9875 59.7261 34.9875ZM59.7261 34.0124C60.5618 34.0124 61.3186 34.1239 61.9965 34.3467C62.6837 34.5696 63.2687 34.8992 63.7516 35.3357C64.2437 35.7721 64.6245 36.3107 64.8938 36.9515C65.1631 37.5922 65.2977 38.3304 65.2977 39.1662C65.2977 40.0019 65.1631 40.7402 64.8938 41.3809C64.6245 42.0217 64.2437 42.5602 63.7516 42.9967C63.2687 43.4331 62.6837 43.7628 61.9965 43.9857C61.3186 44.2085 60.5618 44.32 59.7261 44.32C58.8903 44.32 58.1289 44.2085 57.4417 43.9857C56.7545 43.7628 56.1649 43.4331 55.6727 42.9967C55.1898 42.5602 54.8137 42.0217 54.5444 41.3809C54.2844 40.7402 54.1544 40.0019 54.1544 39.1662C54.1544 38.3304 54.2844 37.5922 54.5444 36.9515C54.8137 36.3107 55.1898 35.7721 55.6727 35.3357C56.1649 34.8992 56.7545 34.5696 57.4417 34.3467C58.1289 34.1239 58.8903 34.0124 59.7261 34.0124Z" fill="#2716E0"/>
<path d="M78.1476 34.291V44.0414H75.501L70.2776 36.1018H70.1383V44.0414H68.1186V34.291H70.7651L75.9886 42.2306H76.1279V34.291H78.1476Z" fill="#2716E0"/>
</svg>
