<svg width="28" height="29" viewBox="0 0 28 29" fill="none" xmlns="http://www.w3.org/2000/svg">
<g opacity="0.8">
<path d="M1.70441 24.1052C1.46092 24.1052 1.09569 23.9885 0.852203 23.8718C0.36523 23.6385 0 23.0552 0 22.3552V9.05516C0 6.48849 2.19138 4.38849 4.86973 4.38849H20.2094C22.8877 4.38849 25.0791 6.48849 25.0791 9.05516V14.7718H22.6442V9.05516C22.6442 7.77182 21.5486 6.72182 20.2094 6.72182H4.86973C3.53055 6.72182 2.43487 7.77182 2.43487 9.05516V21.3052C4.26101 20.3718 6.33065 19.9052 8.40029 19.9052H14.3657V22.2385H8.40029C6.33065 22.2385 4.38276 22.8218 2.80009 23.8718C2.43487 23.9885 2.06964 24.1052 1.70441 24.1052Z" fill="white"/>
<path d="M27.9998 25.5051L26.2954 24.8051C25.4432 24.4551 24.591 24.3384 23.7388 24.3384H16.6777C14.6081 24.3384 13.0254 22.8218 13.0254 20.8384V17.4551C13.0254 15.4718 14.6081 13.9551 16.6777 13.9551H24.3475C26.4172 13.9551 27.9998 15.4718 27.9998 17.4551V25.5051ZM16.6777 16.2884C15.9472 16.2884 15.4603 16.7551 15.4603 17.4551V20.8384C15.4603 21.5384 15.9472 22.0051 16.6777 22.0051H23.7388C24.3475 22.0051 24.9562 22.0051 25.5649 22.1218V17.3384C25.5649 16.6384 25.078 16.1718 24.3475 16.1718H16.6777V16.2884Z" fill="white"/>
</g>
</svg>
