<svg width="28" height="29" viewBox="0 0 28 29" fill="none" xmlns="http://www.w3.org/2000/svg">
<g opacity="0.8">
<g clip-path="url(#clip0)">
<path d="M21.6406 18.3538L20.393 16.1083L13.7812 4.7558L12.5336 2.51025L10.6623 4.38154L4.17521 10.7439C0.931644 13.9875 0.183128 18.9776 2.55343 22.9697C2.80293 23.3439 5.29798 26.837 5.29798 26.837C6.42076 28.833 9.04056 29.4568 11.0366 28.334C13.0326 27.2113 13.6564 24.7162 12.6584 22.7202L12.0346 21.4726L19.2703 19.1023L21.6406 18.3538ZM4.42471 21.2231C3.17719 18.7281 3.42669 15.9835 4.92373 13.738L8.29204 19.9756L4.42471 21.2231ZM9.78908 26.2132C9.04056 26.7123 7.91779 26.4627 7.54353 25.5895L5.92175 23.4687L9.53957 22.3459L10.4128 23.9677C10.7871 24.7162 10.5376 25.7142 9.78908 26.2132ZM10.6623 19.2271L6.67026 11.7419L11.9099 6.50234L17.898 16.8568L10.6623 19.2271Z" fill="white"/>
<path d="M17.0234 3.13403C19.0195 4.0073 20.6413 5.50433 21.8888 7.50037C23.0116 9.49641 23.5106 11.742 23.2611 13.8628L25.7561 14.1123C26.0056 11.4925 25.5066 8.7479 24.1343 6.25285C22.7621 3.7578 20.5165 2.01126 18.0215 0.888489L17.0234 3.13403ZM17.2729 7.87463C17.8967 8.12414 18.3957 8.62315 18.77 9.24691C19.1442 9.87067 19.269 10.6192 19.1442 11.243L21.6393 11.4925C21.764 10.2449 21.5145 8.9974 20.8908 7.99938C20.267 6.87661 19.269 6.00334 18.1462 5.62909L17.2729 7.87463Z" fill="white"/>
</g>
</g>
<defs>
<clipPath id="clip0">
<rect width="28" height="28" fill="white" transform="translate(0 0.888489)"/>
</clipPath>
</defs>
</svg>
