<svg width="28" height="29" viewBox="0 0 28 29" fill="none" xmlns="http://www.w3.org/2000/svg">
<g opacity="0.8">
<g clip-path="url(#clip0)">
<path d="M14 0.888489C6.22222 0.888489 0 7.11071 0 14.8885C0 22.6663 6.22222 28.8885 14 28.8885C21.7778 28.8885 28 22.6663 28 14.8885C28 7.11071 21.7778 0.888489 14 0.888489ZM15.8148 26.1663V22.407C16.8519 22.1477 17.7593 21.8885 18.537 21.2403C19.7037 20.4626 20.6111 19.4255 21.2593 18.2589C21.9074 17.0922 22.1667 15.6663 22.1667 14.2403C22.1667 12.8144 21.7778 11.5181 21.1296 10.3515C20.3518 9.18478 19.4444 8.14775 18.1481 7.4996C15.6852 6.07367 12.3148 6.07367 9.85185 7.4996C8.68518 8.14775 7.77778 9.05516 7 10.3515C6.35185 11.5181 5.96296 12.944 5.83333 14.4996L8.42593 14.6292C8.42593 13.4626 8.81481 12.5552 9.2037 11.6477C9.72222 10.7403 10.3704 10.2218 11.1481 9.7033C11.9259 9.18478 12.963 9.05516 14 9.05516C15.037 9.05516 15.9444 9.31441 16.8519 9.83293C17.7593 10.3515 18.4074 10.9996 18.7963 11.7774C19.3148 12.5552 19.5741 13.4626 19.5741 14.37C19.5741 15.407 19.3148 16.3144 18.9259 17.2218C18.537 17.9996 17.8889 18.7774 17.1111 19.2959C16.3333 19.8144 15.4259 20.0737 14.5185 20.2033L13.3519 20.3329V26.5552C7.25926 25.907 2.59259 20.8515 2.59259 14.8885C2.59259 8.53664 7.64815 3.48108 14 3.48108C20.3519 3.48108 25.4074 8.53664 25.4074 14.8885C25.4074 20.5922 21.2593 25.2589 15.8148 26.1663Z" fill="white"/>
<path d="M14.0009 16.8719C15.0963 16.8719 15.9842 15.9839 15.9842 14.8885C15.9842 13.7932 15.0963 12.9052 14.0009 12.9052C12.9055 12.9052 12.0176 13.7932 12.0176 14.8885C12.0176 15.9839 12.9055 16.8719 14.0009 16.8719Z" fill="white"/>
</g>
</g>
<defs>
<clipPath id="clip0">
<rect width="28" height="28" fill="white" transform="translate(0 0.888489)"/>
</clipPath>
</defs>
</svg>
