<svg width="28" height="29" viewBox="0 0 28 29" fill="none" xmlns="http://www.w3.org/2000/svg">
<g opacity="0.8">
<g clip-path="url(#clip0)">
<path d="M11.1527 8.09382V5.60925H8.66816V8.09382H6.18359V10.5784H8.66816V13.063H11.1527V10.5784H13.6373V8.09382H11.1527V8.09382Z" fill="white"/>
<path d="M21.5894 0.888489H6.06084C3.94895 0.888489 2.33398 2.50346 2.33398 4.61534V23.995C2.33398 26.1069 3.94895 27.7218 6.06084 27.7218H17.8625C21.9621 27.7218 25.3162 24.3677 25.3162 20.2681V4.61534C25.3162 2.50346 23.577 0.888489 21.5894 0.888489ZM17.8625 25.2373H6.06084C5.31547 25.2373 4.81855 24.7403 4.81855 23.995V4.61534C4.81855 3.86997 5.31547 3.37306 6.06084 3.37306H21.5894C22.3348 3.37306 22.8317 3.86997 22.8317 4.61534V16.2928H6.55775V18.7774H22.8317V20.2681C22.8317 20.3923 22.8317 20.3923 22.8317 20.5166H6.55775V23.0011H22.0863C21.0925 24.3677 19.6017 25.2373 17.8625 25.2373Z" fill="white"/>
</g>
</g>
<defs>
<clipPath id="clip0">
<rect width="28" height="28" fill="white" transform="translate(0 0.888489)"/>
</clipPath>
</defs>
</svg>
