<svg width="156" height="32" viewBox="0 0 156 32" fill="none" xmlns="http://www.w3.org/2000/svg">
<path d="M33.2485 4.78739H40.9725C43.6501 4.78739 45.6298 5.42819 46.9114 6.7098C48.1472 7.94563 48.7651 9.58197 48.7651 11.6188C48.7651 14.2507 48.0213 16.2532 46.5338 17.6263C45.092 18.9766 42.8263 19.6517 39.7367 19.6517H36.7157L35.7202 27.6846H30.4336L33.2485 4.78739ZM38.0202 9.11281L37.2307 15.3263H39.1188C40.675 15.3263 41.785 14.9945 42.4486 14.3308C43.0437 13.7586 43.3412 12.9691 43.3412 11.9621C43.3412 11.1153 43.0894 10.4516 42.586 9.97102C41.9909 9.39888 40.9954 9.11281 39.5994 9.11281H38.0202Z" fill="#5930FF"/>
<path d="M65.355 9.25012H60.3773L58.1116 27.6846H52.825L55.0907 9.25012H50.1131L50.6623 4.78739H65.9043L65.355 9.25012Z" fill="#5930FF"/>
<path d="M68.7865 4.78739H74.0732L71.2582 27.6846H65.9716L68.7865 4.78739Z" fill="#5930FF"/>
<path d="M94.1096 21.2652L93.423 26.9637C91.7752 27.7876 89.9215 28.1996 87.8618 28.1996C84.5891 28.1996 81.9 27.1811 79.7945 25.1443C77.7348 23.0846 76.7049 20.4413 76.7049 17.2144C76.7049 13.3925 77.9179 10.2685 80.3438 7.84265C82.7239 5.46252 85.7792 4.27246 89.5095 4.27246C91.9583 4.27246 94.121 4.82172 95.9977 5.92024L95.3454 11.5158C93.8121 9.98247 91.9011 9.21579 89.6125 9.21579C87.3239 9.21579 85.516 9.9367 84.1886 11.3785C82.8154 12.8432 82.1289 14.6397 82.1289 16.7681C82.1289 18.7134 82.7239 20.2811 83.914 21.4711C85.104 22.6612 86.7175 23.2562 88.7543 23.2562C90.6767 23.2562 92.4618 22.5925 94.1096 21.2652Z" fill="#5930FF"/>
<path d="M100.065 4.78739H105.351L102.536 27.6846H97.2496L100.065 4.78739Z" fill="#5930FF"/>
<path d="M122.985 27.6846L121.817 23.3592H113.167L111.004 27.6846H105.305L117.389 4.78739H122.264L128.409 27.6846H122.985ZM115.158 19.3084H120.856L119.002 11.2412L115.158 19.3084Z" fill="#5930FF"/>
<path d="M136.158 27.6846H130.872L133.721 4.78739H138.321L148.86 19.686L150.714 4.78739H156L153.186 27.6846H148.585L137.978 12.7173L136.158 27.6846Z" fill="#5930FF"/>
<path fill-rule="evenodd" clip-rule="evenodd" d="M25.0571 24.8997L23.491 26.4658C17.4366 32.5202 7.62048 32.5202 1.56607 26.4658L0 24.8997L3.13214 21.7676L4.6982 23.3336C9.02278 27.6582 16.0343 27.6582 20.3589 23.3336L21.925 21.7676L25.0571 24.8997ZM21.925 9.23901L20.3589 7.67294C16.0343 3.34837 9.02278 3.34837 4.6982 7.67294L3.13214 9.23901L0 6.10688L1.56607 4.54081C7.62048 -1.5136 17.4366 -1.5136 23.491 4.54081L25.0571 6.10688L21.925 9.23901Z" fill="#F0AE05"/>
<circle cx="12.5272" cy="15.5032" r="4.42951" fill="#5930FF"/>
</svg>
