<svg width="28" height="29" viewBox="0 0 28 29" fill="none" xmlns="http://www.w3.org/2000/svg">
<g opacity="0.8">
<g clip-path="url(#clip0)">
<path d="M0.583984 21.4218V27.2551H2.91732V23.7551H6.65065V26.6718H8.98398V23.7551H12.7173V27.2551H15.0507V23.7551H18.9007V26.6718H21.234V23.7551H24.9673V27.2551H27.3006V21.4218H0.583984Z" fill="white"/>
<path d="M27.5333 10.3385L26.95 9.63848C26.95 9.63848 26.95 9.63848 26.95 9.52182C26.95 9.52182 26.8333 9.40515 26.7167 9.28848C26.6 9.05515 26.25 8.82182 26.0167 8.47182C25.3167 7.77182 24.3833 6.95515 23.2167 6.02182C20.8833 4.27182 17.6167 2.40515 13.8833 2.40515C10.15 2.40515 6.76667 4.27182 4.55 6.02182C3.26667 6.95515 2.33333 7.88848 1.63333 8.47182C1.28333 8.82182 1.05 9.05515 0.933333 9.28848C0.816667 9.40515 0.7 9.52182 0.7 9.52182C0.7 9.52182 0.7 9.52182 0.7 9.63848L0 10.3385L0.583333 11.0385C0.583333 11.0385 0.583333 11.0385 0.583333 11.1552C0.583333 11.1552 0.7 11.2718 0.816667 11.3885C1.05 11.6218 1.28333 11.8552 1.63333 12.2052C2.33333 12.9052 3.26667 13.7218 4.43333 14.6552C6.76667 16.4052 10.0333 18.2718 13.7667 18.2718C17.5 18.2718 20.8833 16.4052 23.1 14.6552C24.2667 13.7218 25.2 12.9052 25.9 12.2052C26.25 11.8552 26.4833 11.6218 26.6 11.3885C26.7167 11.3885 26.8333 11.2718 26.8333 11.1552C26.8333 11.1552 26.8333 11.1552 26.8333 11.0385L27.5333 10.3385ZM24.2667 10.5718C23.6833 11.1552 22.8667 11.9718 21.8167 12.7885C19.7167 14.4218 16.9167 15.9385 13.8833 15.9385C10.85 15.9385 8.05 14.4218 5.95 12.7885C4.78333 11.9718 3.85 11.1552 3.26667 10.5718C3.26667 10.5718 3.15 10.4552 3.03333 10.3385C3.15 10.2218 3.15 10.2218 3.26667 10.1052C3.85 9.52182 4.78333 8.70515 5.83333 8.00515C7.93333 6.37182 10.7333 4.85515 13.7667 4.85515C16.8 4.85515 19.6 6.37182 21.7 8.00515C22.75 8.82182 23.5667 9.63848 24.15 10.2218C24.2667 10.3385 24.2667 10.3385 24.3833 10.4552C24.3833 10.4552 24.2667 10.5718 24.2667 10.5718ZM13.7667 5.67182C11.0833 5.67182 8.98333 7.77182 8.98333 10.4552C8.98333 13.1385 11.0833 15.2385 13.7667 15.2385C16.45 15.2385 18.55 13.1385 18.55 10.4552C18.55 7.77182 16.45 5.67182 13.7667 5.67182ZM13.7667 12.7885C12.4833 12.7885 11.3167 11.7385 11.3167 10.3385C11.3167 8.93848 12.3667 7.88848 13.7667 7.88848C15.1667 7.88848 16.2167 8.93848 16.2167 10.3385C16.2167 11.7385 15.1667 12.7885 13.7667 12.7885Z" fill="white"/>
</g>
</g>
<defs>
<clipPath id="clip0">
<rect width="28" height="28" fill="white" transform="translate(0 0.888489)"/>
</clipPath>
</defs>
</svg>
