<svg width="28" height="29" viewBox="0 0 28 29" fill="none" xmlns="http://www.w3.org/2000/svg">
<g opacity="0.8">
<g clip-path="url(#clip0)">
<path fill-rule="evenodd" clip-rule="evenodd" d="M14.0639 5.48122C13.1326 5.48122 12.2307 5.5991 11.3722 5.81997L10.7909 3.56021C11.8378 3.29088 12.9349 3.14789 14.0639 3.14789C21.2268 3.14789 27.0537 8.89898 27.0537 16.0182C27.0537 23.1374 21.2268 28.8885 14.0639 28.8885C6.90111 28.8885 1.07422 23.1374 1.07422 16.0182C1.07422 12.253 2.70732 8.86642 5.30252 6.51612L6.86881 8.24562C4.73828 10.1751 3.40755 12.9433 3.40755 16.0182C3.40755 21.8265 8.16739 26.5552 14.0639 26.5552C19.9605 26.5552 24.7203 21.8265 24.7203 16.0182C24.7203 10.2099 19.9605 5.48122 14.0639 5.48122Z" fill="white"/>
<path fill-rule="evenodd" clip-rule="evenodd" d="M14.0636 13.841C12.7952 13.841 11.7669 14.8692 11.7669 16.1376C11.7669 17.406 12.7952 18.4343 14.0636 18.4343C15.332 18.4343 16.3602 17.406 16.3602 16.1376C16.3602 14.8692 15.332 13.841 14.0636 13.841ZM9.43359 16.1376C9.43359 13.5805 11.5065 11.5076 14.0636 11.5076C16.6207 11.5076 18.6936 13.5805 18.6936 16.1376C18.6936 18.6947 16.6207 20.7676 14.0636 20.7676C11.5065 20.7676 9.43359 18.6947 9.43359 16.1376Z" fill="white"/>
<path fill-rule="evenodd" clip-rule="evenodd" d="M9.34998 1.1361L8.63135 2.05516L7.91271 1.1361L8.63135 0.574188L9.34998 1.1361ZM8.63135 3.61093C8.46705 3.76924 8.2893 3.94972 8.11278 4.14532C7.7993 4.49268 7.51228 4.86296 7.30912 5.22061C7.09904 5.59041 7.02865 5.85936 7.02865 6.02711C7.02865 7.37893 7.92072 8.13145 8.63135 8.13145C9.34197 8.13145 10.234 7.37893 10.234 6.02711C10.234 5.85936 10.1636 5.59041 9.95358 5.22061C9.75041 4.86296 9.46339 4.49268 9.14991 4.14532C8.97339 3.94972 8.79564 3.76924 8.63135 3.61093ZM7.91271 1.1361C7.91292 1.13594 7.91271 1.1361 8.63135 2.05516C9.34998 1.1361 9.34977 1.13594 9.34998 1.1361L9.35194 1.13764L9.35493 1.13998L9.36388 1.14705L9.39329 1.17054C9.41783 1.19026 9.45208 1.21807 9.49466 1.25335C9.57973 1.32383 9.69857 1.42455 9.84 1.55052C10.1212 1.801 10.4998 2.15837 10.8821 2.58205C11.261 3.00186 11.6663 3.51167 11.9824 4.06812C12.2916 4.61241 12.5674 5.29159 12.5674 6.02711C12.5674 8.28835 10.9797 10.4648 8.63135 10.4648C6.28301 10.4648 4.69531 8.28835 4.69531 6.02711C4.69531 5.29159 4.97108 4.61241 5.28027 4.06812C5.59636 3.51167 6.00169 3.00186 6.38055 2.58205C6.7629 2.15837 7.14144 1.801 7.42269 1.55052C7.56412 1.42455 7.68296 1.32383 7.76803 1.25335C7.81061 1.21807 7.84486 1.19026 7.86941 1.17054L7.89881 1.14705L7.90776 1.13998L7.91075 1.13764L7.91271 1.1361ZM7.91176 2.97348C7.91159 2.97334 7.9116 2.97336 7.91176 2.97348Z" fill="white"/>
</g>
</g>
<defs>
<clipPath id="clip0">
<rect width="28" height="28" fill="white" transform="translate(0 0.888489)"/>
</clipPath>
</defs>
</svg>
