<svg width="99" height="20" viewBox="0 0 99 20" fill="none" xmlns="http://www.w3.org/2000/svg">
<path d="M7.81364 14.2326C9.39832 16.761 12.3047 18.4574 15.5392 18.4574C20.3185 18.4574 22.9494 14.4438 22.9494 14.4438L23.288 15.5129C21.0754 18.3132 17.1226 20.0002 12.7003 20.0002C7.60871 20.0002 3.2176 17.6366 1.19712 14.228C0.436382 12.9442 0.0117188 11.5102 0.0117188 9.99991C0.0117188 4.47695 5.69197 0 12.7001 0C17.6518 0 21.6385 2.06393 23.7313 5.05497L15.4229 9.89647L20.1645 2.81134C18.8079 1.98111 17.1436 1.20367 15.4229 1.20367C10.5585 1.20367 6.55207 5.15379 6.55207 9.88722C6.55207 11.4732 7.01491 12.9634 7.81364 14.2326ZM30.0601 14.2298C30.0352 14.3913 30.0228 14.5544 30.0229 14.7177C30.0229 16.5145 31.5199 17.9714 33.3665 17.9714C35.2131 17.9714 36.7099 16.5147 36.7099 14.7177C36.71 14.5538 36.6975 14.3901 36.6724 14.228C36.4306 12.6644 35.0427 11.4641 33.3663 11.4641C31.6901 11.4641 30.302 12.6644 30.0601 14.2298ZM42.4667 14.228L44.1284 19.6751H38.2993L37.1532 15.9452C36.3857 18.0944 33.7955 19.6751 30.7186 19.6751C27.0371 19.6751 24.0529 17.4124 24.0529 14.6208C24.0529 14.4902 24.0595 14.3604 24.0723 14.228C24.3342 11.6225 27.2097 9.56658 30.7186 9.56658C32.7102 9.56658 34.4978 10.2288 35.7192 11.2788L34.1314 6.11288H27.4413C27.4413 6.11288 28.5544 5.46324 33.4905 3.71551C38.4266 1.96795 39.9908 6.11288 39.9908 6.11288L42.4667 14.228ZM61.1038 14.228V19.6751H55.1059V7.7074C55.1059 7.28451 54.9333 6.87894 54.626 6.57991C54.3187 6.28088 53.9019 6.11288 53.4674 6.11288C53.1373 6.11281 52.8149 6.20973 52.5424 6.39094C52.27 6.57216 52.06 6.82924 51.9402 7.1285V19.6751H46.0536V6.11288H42.6205C42.6205 6.11288 47.3964 3.29728 49.0525 3.29728C50.622 3.29728 51.7837 4.47073 51.9289 5.96554C54.2387 4.75316 56.5291 3.29728 58.105 3.29728C59.7332 3.29728 61.0585 4.55996 61.1038 6.13421V14.228ZM70.3436 14.228L71.1783 16.9128C71.1943 18.0635 72.166 18.984 73.3587 18.984C74.5781 18.984 75.5663 18.0224 75.5663 16.836C75.5663 16.752 75.5613 16.6693 75.5517 16.5879L74.8421 14.228L72.3502 5.94047C72.2274 4.86656 71.2921 4.03171 70.1558 4.03171C69.031 4.03171 67.9587 5.05443 67.8217 6.11271L70.3436 14.228ZM79.8889 14.2291C78.753 17.5808 75.5089 20.0002 71.6838 20.0002C67.8586 20.0002 64.6143 17.5809 63.4781 14.228C63.1905 13.3782 63.0444 12.4891 63.0454 11.5944C63.0454 6.952 66.9128 3.18886 71.6838 3.18886C76.4545 3.18886 80.3219 6.952 80.3219 11.5944C80.3219 12.5146 80.17 13.4005 79.8889 14.2291ZM89.8198 14.228V19.6751H83.9329V6.11288H80.641C80.641 6.11288 85.2758 3.29728 86.9321 3.29728C88.5018 3.29728 89.6632 4.47073 89.8088 5.96554C92.1186 4.75316 94.4087 3.29728 95.9846 3.29728C97.6131 3.29728 98.9384 4.55996 98.9834 6.13421V19.6751H92.9855V7.7074C92.9855 7.28451 92.8128 6.87894 92.5056 6.57991C92.1983 6.28088 91.7815 6.11288 91.3469 6.11288C91.0169 6.11281 90.6945 6.20973 90.422 6.39094C90.1495 6.57216 89.9396 6.82924 89.8198 7.1285V14.228Z" fill="#CC2229"/>
</svg>
