<svg width="28" height="29" viewBox="0 0 28 29" fill="none" xmlns="http://www.w3.org/2000/svg">
<g opacity="0.8">
<path d="M23.8001 6.72183H4.20013C2.10013 6.72183 0.466797 8.35517 0.466797 10.4552V19.7885C0.466797 21.8885 2.10013 23.5218 4.20013 23.5218H23.8001C25.9001 23.5218 27.5335 21.8885 27.5335 19.7885V10.4552C27.6501 8.35517 25.9001 6.72183 23.8001 6.72183ZM4.20013 9.05517H23.8001C24.6168 9.05517 25.2001 9.6385 25.2001 10.4552V11.0385H2.80013V10.4552C2.80013 9.6385 3.38346 9.05517 4.20013 9.05517ZM23.8001 21.1885H4.20013C3.38346 21.1885 2.80013 20.6052 2.80013 19.7885V17.6885H16.2168V15.3552H2.80013V13.3718H25.3168V19.7885C25.3168 20.6052 24.6168 21.1885 23.8001 21.1885Z" fill="white"/>
<path d="M22.6328 20.3719C23.5993 20.3719 24.3828 19.5884 24.3828 18.6219C24.3828 17.6554 23.5993 16.8719 22.6328 16.8719C21.6663 16.8719 20.8828 17.6554 20.8828 18.6219C20.8828 19.5884 21.6663 20.3719 22.6328 20.3719Z" fill="white"/>
</g>
</svg>
