<svg width="87" height="38" viewBox="0 0 87 38" fill="none" xmlns="http://www.w3.org/2000/svg">
<path d="M1.49911 34.1124L3.24376 34.5616L3.85116 32.2258L4.96257 32.5082L4.35517 34.8439L6.20321 35.3188L6.88815 32.6879L8.0254 32.983L6.97861 37.0129L0 35.2033L1.04679 31.1735L2.18405 31.4686L1.49911 34.1124Z" fill="#1B84F9"/>
<path d="M13.9192 21.702L13.1308 22.9084L7.19903 22.9854L11.3603 25.642L10.572 26.8484L4.49805 22.9597L5.28637 21.7533L11.2311 21.6892L7.05687 19.0197L7.8452 17.8134L13.9192 21.702Z" fill="#1B84F9"/>
<path d="M17.8479 8.17517L18.5845 9.08637L17.0854 10.2799L20.872 14.9643L19.7476 15.8626L15.9611 11.1783L14.462 12.3718L13.7383 11.4606L17.8479 8.17517Z" fill="#1B84F9"/>
<path d="M29.7631 2.72084C30.4093 2.79784 30.965 3.04168 31.456 3.43953C31.9471 3.83738 32.309 4.3764 32.5675 5.0566C32.8259 5.72396 32.8905 6.37848 32.7871 6.98167C32.6838 7.5977 32.4124 8.13672 31.973 8.61157C31.5336 9.08643 30.965 9.45861 30.2542 9.71529L27.8892 10.588L25.3691 3.87588L27.7341 3.00318C28.4449 2.73367 29.1169 2.64383 29.7631 2.72084ZM31.1976 7.40519C31.4431 6.879 31.4302 6.26298 31.1717 5.56995C30.9133 4.87692 30.5126 4.38924 29.9828 4.14539C29.44 3.88872 28.8197 3.90155 28.1089 4.15823L27.1526 4.51757L28.8197 8.95809L29.776 8.59874C30.4868 8.32923 30.965 7.93138 31.1976 7.40519Z" fill="#1B84F9"/>
<path d="M41.3807 1.28339L41.4453 3.08012L43.8749 2.99029L43.9266 4.1325L41.497 4.22234L41.5746 6.12175L44.3143 6.01908L44.366 7.18696L40.1788 7.3538L39.8945 0.179674L44.0688 0L44.1205 1.16788L41.3807 1.28339Z" fill="#1B84F9"/>
<path d="M52.585 2.55388C53.0503 2.10469 53.593 1.80951 54.2134 1.65551C54.8337 1.51433 55.4669 1.52717 56.1389 1.71968C56.9143 1.93785 57.5347 2.3357 57.9999 2.88756C58.4652 3.43941 58.7236 4.10677 58.7495 4.87681L57.147 4.42762C57.0824 4.05544 56.9273 3.74743 56.6947 3.49075C56.4491 3.24691 56.1519 3.06723 55.7642 2.96456C55.3635 2.84906 54.9758 2.83622 54.6011 2.93889C54.2392 3.04156 53.9161 3.23407 53.6318 3.52925C53.3604 3.82443 53.1537 4.19661 53.0244 4.65863C52.8952 5.10781 52.8693 5.54417 52.9469 5.92918C53.0244 6.32703 53.1924 6.66071 53.4509 6.94306C53.7094 7.2254 54.0454 7.41791 54.446 7.53341C54.8208 7.63608 55.1826 7.64892 55.5186 7.57191C55.8546 7.48208 56.1519 7.3024 56.4103 7.02006L58.0128 7.46924C57.5734 8.11094 57.0177 8.53445 56.3199 8.76546C55.622 8.99647 54.8854 8.99647 54.11 8.76546C53.4509 8.57296 52.8952 8.25211 52.4429 7.80292C51.9906 7.35374 51.6933 6.81472 51.5382 6.19869C51.3832 5.58267 51.409 4.92814 51.6029 4.24795C51.7838 3.55492 52.1198 3.00306 52.585 2.55388Z" fill="#1B84F9"/>
<path d="M66.5303 14.9002L66.2589 10.7805L64.385 13.3858L63.209 12.5516L67.3962 6.71216L68.5722 7.54636L66.6983 10.1645L70.7175 9.06075L72.139 10.0746L67.6417 11.2553L68.0165 15.9654L66.5303 14.9002Z" fill="#1B84F9"/>
<path d="M78.1347 18.0315L76.6873 19.1096L78.1477 21.0346L77.2301 21.7148L75.7698 19.7898L74.2448 20.932L75.8861 23.1137L74.9427 23.8196L72.4355 20.4956L78.2123 16.1963L80.7194 19.5203L79.776 20.2261L78.1347 18.0315Z" fill="#1B84F9"/>
<path d="M80.1504 35.383L79.6851 34.0226L83.3166 29.3639L78.6254 30.9425L78.1602 29.5821L84.9966 27.272L85.4618 28.6324L81.8175 33.3039L86.5216 31.7253L86.9868 33.0857L80.1504 35.383Z" fill="#1B84F9"/>
</svg>
