<svg width="94" height="94" viewBox="0 0 94 94" fill="none" xmlns="http://www.w3.org/2000/svg">
<g clip-path="url(#clip0)">
<g filter="url(#filter0_d)">
<circle cx="47" cy="47.0002" r="30" fill="white"/>
</g>
<path d="M4.49911 34.1124L6.24376 34.5616L6.85116 32.2258L7.96257 32.5082L7.35517 34.8439L9.20321 35.3188L9.88815 32.6879L11.0254 32.983L9.97861 37.0129L3 35.2033L4.04679 31.1735L5.18405 31.4686L4.49911 34.1124Z" fill="#1B84F9"/>
<path d="M16.9192 21.702L16.1308 22.9084L10.199 22.9854L14.3603 25.642L13.572 26.8484L7.49805 22.9597L8.28637 21.7533L14.2311 21.6892L10.0569 19.0197L10.8452 17.8134L16.9192 21.702Z" fill="#1B84F9"/>
<path d="M20.8479 8.17517L21.5845 9.08637L20.0854 10.2799L23.872 14.9643L22.7476 15.8626L18.9611 11.1783L17.462 12.3718L16.7383 11.4606L20.8479 8.17517Z" fill="#1B84F9"/>
<path d="M32.7631 2.72084C33.4093 2.79784 33.965 3.04168 34.456 3.43953C34.9471 3.83738 35.309 4.3764 35.5675 5.0566C35.8259 5.72396 35.8905 6.37848 35.7871 6.98167C35.6838 7.5977 35.4124 8.13672 34.973 8.61157C34.5336 9.08643 33.965 9.45861 33.2542 9.71529L30.8892 10.588L28.3691 3.87588L30.7341 3.00318C31.4449 2.73367 32.1169 2.64383 32.7631 2.72084ZM34.1976 7.40519C34.4431 6.879 34.4302 6.26298 34.1717 5.56995C33.9133 4.87692 33.5126 4.38924 32.9828 4.14539C32.44 3.88872 31.8197 3.90155 31.1089 4.15823L30.1526 4.51757L31.8197 8.95809L32.776 8.59874C33.4868 8.32923 33.965 7.93138 34.1976 7.40519Z" fill="#1B84F9"/>
<path d="M44.3807 1.28339L44.4453 3.08012L46.8749 2.99029L46.9266 4.1325L44.497 4.22234L44.5746 6.12175L47.3143 6.01908L47.366 7.18696L43.1788 7.3538L42.8945 0.179674L47.0688 0L47.1205 1.16788L44.3807 1.28339Z" fill="#1B84F9"/>
<path d="M55.585 2.55388C56.0503 2.10469 56.593 1.80951 57.2134 1.65551C57.8337 1.51433 58.4669 1.52717 59.1389 1.71968C59.9143 1.93785 60.5347 2.3357 60.9999 2.88756C61.4652 3.43941 61.7236 4.10677 61.7495 4.87681L60.147 4.42762C60.0824 4.05544 59.9273 3.74743 59.6947 3.49075C59.4491 3.24691 59.1519 3.06723 58.7642 2.96456C58.3635 2.84906 57.9758 2.83622 57.6011 2.93889C57.2392 3.04156 56.9161 3.23407 56.6318 3.52925C56.3604 3.82443 56.1537 4.19661 56.0244 4.65863C55.8952 5.10781 55.8693 5.54417 55.9469 5.92918C56.0244 6.32703 56.1924 6.66071 56.4509 6.94306C56.7094 7.2254 57.0454 7.41791 57.446 7.53341C57.8208 7.63608 58.1826 7.64892 58.5186 7.57191C58.8546 7.48208 59.1519 7.3024 59.4103 7.02006L61.0128 7.46924C60.5734 8.11094 60.0177 8.53445 59.3199 8.76546C58.622 8.99647 57.8854 8.99647 57.11 8.76546C56.4509 8.57296 55.8952 8.25211 55.4429 7.80292C54.9906 7.35374 54.6933 6.81472 54.5382 6.19869C54.3832 5.58267 54.409 4.92814 54.6029 4.24795C54.7838 3.55492 55.1198 3.00306 55.585 2.55388Z" fill="#1B84F9"/>
<path d="M69.5303 14.9002L69.2589 10.7805L67.385 13.3858L66.209 12.5516L70.3962 6.71216L71.5722 7.54636L69.6983 10.1645L73.7175 9.06075L75.139 10.0746L70.6417 11.2553L71.0165 15.9654L69.5303 14.9002Z" fill="#1B84F9"/>
<path d="M81.1347 18.0315L79.6873 19.1096L81.1477 21.0346L80.2301 21.7148L78.7698 19.7898L77.2448 20.932L78.8861 23.1137L77.9427 23.8196L75.4355 20.4956L81.2123 16.1963L83.7194 19.5203L82.776 20.2261L81.1347 18.0315Z" fill="#1B84F9"/>
<path d="M83.1504 35.383L82.6851 34.0226L86.3166 29.3639L81.6254 30.9425L81.1602 29.5821L87.9966 27.272L88.4618 28.6324L84.8175 33.3039L89.5216 31.7253L89.9868 33.0857L83.1504 35.383Z" fill="#1B84F9"/>
</g>
<defs>
<filter id="filter0_d" x="-13" y="-5.99976" width="120" height="120" filterUnits="userSpaceOnUse" color-interpolation-filters="sRGB">
<feFlood flood-opacity="0" result="BackgroundImageFix"/>
<feColorMatrix in="SourceAlpha" type="matrix" values="0 0 0 0 0 0 0 0 0 0 0 0 0 0 0 0 0 0 127 0"/>
<feOffset dy="7"/>
<feGaussianBlur stdDeviation="15"/>
<feColorMatrix type="matrix" values="0 0 0 0 0.278431 0 0 0 0 0.301961 0 0 0 0 0.529412 0 0 0 0.1 0"/>
<feBlend mode="normal" in2="BackgroundImageFix" result="effect1_dropShadow"/>
<feBlend mode="normal" in="SourceGraphic" in2="effect1_dropShadow" result="shape"/>
</filter>
<linearGradient id="paint0_linear" x1="53" y1="40.0006" x2="53.2712" y2="53.6206" gradientUnits="userSpaceOnUse">
<stop stop-color="#229AFA"/>
<stop offset="1" stop-color="#1168F8"/>
</linearGradient>
<clipPath id="clip0">
<rect width="94" height="94" fill="white"/>
</clipPath>
</defs>
</svg>
