<svg width="28" height="29" viewBox="0 0 28 29" fill="none" xmlns="http://www.w3.org/2000/svg">
<g clip-path="url(#clip0)">
<path d="M6.18392 12.089C6.18392 7.77233 9.68392 4.389 14.0006 4.389C18.3173 4.389 21.7006 7.77233 21.7006 12.089C21.7006 14.0723 21.0006 15.8223 19.8339 17.1057L21.5839 18.6223C23.1006 16.8723 24.0339 14.539 24.0339 12.089C24.0339 6.489 19.4839 2.05566 14.0006 2.05566C8.40059 2.05566 3.85059 6.489 3.85059 12.089C3.85059 14.6557 4.78392 16.8723 6.30059 18.6223L8.16725 17.1057C6.88392 15.7057 6.18392 13.9557 6.18392 12.089ZM12.4839 12.089C12.4839 11.2723 13.1839 10.689 13.8839 10.689C14.7006 10.689 15.2839 11.389 15.2839 12.089C15.2839 12.9057 14.5839 13.489 13.8839 13.489C13.1839 13.6057 12.4839 12.9057 12.4839 12.089ZM14.0006 8.35566C11.9006 8.35566 10.2673 9.989 10.2673 12.089C10.2673 14.189 11.9006 15.8223 14.0006 15.8223C16.1006 15.8223 17.7339 14.189 17.7339 12.089C17.7339 10.1057 16.1006 8.35566 14.0006 8.35566Z" fill="white"/>
<path d="M24.9667 10.8052C25.55 10.5719 26.3667 10.5719 26.95 10.9219C27.65 11.2719 28.1167 12.0885 27.7667 13.0219C27.7667 15.1219 27.4167 20.2552 24.5 22.8219C23.6833 23.5219 22.8667 24.3385 22.1667 24.9219C21.2333 25.7385 20.7667 26.9052 20.7667 28.1885H18.4333C18.4333 26.2052 19.1333 24.4552 20.5333 23.1719C21.2333 22.4719 22.1667 21.6552 22.9833 20.9552C25.2549 19.138 25.5362 14.5565 25.5495 13.0234C24.8492 15.1237 23.3327 18.8557 20.65 20.9552L18.7833 22.7052C18.3167 23.0552 17.6167 23.0552 17.15 22.5885C16.8 22.1219 16.8 21.4219 17.2667 20.9552L19.1333 19.3219L19.6 18.5052V18.3885C16.1 21.3052 15.4 22.7052 15.2833 23.1719C14.9333 24.5719 15.05 27.3719 15.05 28.1885H12.7167C12.8333 27.3719 12.8333 24.5719 12.4833 23.1719C12.3667 22.7052 11.6667 21.3052 8.28333 18.5052L8.75 19.3219L10.6167 20.9552C11.0833 21.4219 11.2 22.1219 10.7333 22.5885C10.2667 23.0552 9.56667 23.1719 9.1 22.7052L7.23333 20.9552C4.55 18.8552 3.03333 15.1219 2.33333 13.0219C2.33333 14.5385 2.68333 19.0885 4.78333 20.8385C5.71667 21.6552 6.53333 22.3552 7.23333 23.0552C8.51667 24.3385 9.33333 26.3219 9.33333 28.1885H7C7 26.9052 6.53333 25.6219 5.6 24.8052C4.9 24.2219 4.08333 23.4052 3.26667 22.7052C0.466666 20.2552 0 15.0052 0 12.9052C0 12.0885 0.466667 11.2719 1.16667 10.9219C1.75 10.5719 2.56667 10.5719 3.15 10.8052C3.85 11.0385 4.43333 11.6219 4.66667 12.3219C5.01667 13.4885 5.6 15.2385 6.65 16.7552L6.76667 16.6385C7.58333 15.8219 8.86667 15.8219 9.8 16.6385C11.9 18.2719 13.3 19.6719 14.1167 20.9552C14.9333 19.6719 16.3333 18.2719 18.4333 16.6385C19.3667 15.8219 20.65 15.8219 21.4667 16.6385L21.5833 16.7552C22.5167 15.2385 23.2167 13.4885 23.5667 12.3219C23.8 11.6219 24.2667 11.0385 24.9667 10.8052Z" fill="white"/>
</g>
<defs>
<clipPath id="clip0">
<rect width="28" height="28" fill="white" transform="translate(0 0.888672)"/>
</clipPath>
</defs>
</svg>
