<svg width="101" height="20" viewBox="0 0 101 20" fill="none" xmlns="http://www.w3.org/2000/svg">
<path d="M39.5435 0.924316H21.7383V3.65455H24.9209V16.7654H21.7383V19.4933H42.6658V13.0112H39.5435V16.7654H28.0422V11.5564H33.3212V13.6113H36.4471V6.76526H33.3212V8.82389H28.0422V3.65455H39.5435V7.13516H42.6658V0.924316H39.5435Z" fill="black"/>
<path d="M44.8281 3.65442H47.7781V16.7652H44.8281V19.4931H53.8397V16.7652H50.8957V3.65442H53.8397V0.930176H44.8281V3.65442Z" fill="black"/>
<path d="M69.9594 8.62754L76.2905 3.65442H79.1175V0.930176H70.1151V3.65442H71.7803L62.5288 10.9151V3.65442H65.4718V0.930176H56.4672V3.65442H59.4051V16.7652H56.2461V19.4931H65.6985V16.7652H62.5288V14.4505L67.5456 10.5148L72.9886 16.7652H70.1151V19.4931H79.5684V16.7652H77.046L69.9594 8.62754Z" fill="black"/>
<path d="M89.9195 0.0600586C84.0952 0.0600586 79.375 4.50388 79.375 9.98553C79.375 15.4653 84.0952 19.9115 89.9195 19.9115C95.7453 19.9115 100.468 15.4653 100.468 9.98553C100.468 4.50388 95.7453 0.0600586 89.9195 0.0600586ZM89.9195 16.9684C85.8231 16.9684 82.4977 13.8425 82.4977 9.98784C82.4977 6.12855 85.8231 3.00034 89.9195 3.00034C94.0197 3.00034 97.3433 6.12855 97.3433 9.98784C97.3433 13.8425 94.0197 16.9684 89.9195 16.9684Z" fill="black"/>
<path d="M8.89615 8.56708C6.85322 8.515 4.40856 8.3358 3.7296 7.36245C3.24639 6.66689 3.41082 5.52496 3.5854 5.21222C4.03313 4.41161 4.9245 3.33783 7.55478 3.25076C12.105 3.09599 15.2494 4.10203 16.4871 6.08467V7.26712H19.6153V1.06133H16.4871V2.41472C14.3912 1.14151 11.3652 0.502595 7.59115 0.565236C4.40855 0.615896 1.87181 1.80849 0.787937 3.7409C-0.115881 5.36099 -0.248989 7.06996 0.42403 8.31557C1.18087 9.69609 2.43058 11.1808 7.8035 11.3056C15.6404 11.4769 16.0905 12.0794 16.5594 12.7156L16.6064 12.7806C17.0634 13.3914 17.1039 14.3536 16.7174 15.1331C16.4433 15.6835 16.0361 16.0368 15.2129 16.4546C12.7117 17.7173 8.47557 17.3248 5.98855 16.2363C5.20086 15.8867 4.44402 15.5099 3.85808 15.2003V13.3439H0.729873V19.5534H3.85808V18.2829L4.94247 18.7551C8.13795 20.1532 13.6942 20.5714 16.8676 18.9702C18.6388 18.0798 19.6282 17.0604 19.9 15.8655C20.1621 14.6973 20.2367 12.9293 19.0957 11.1241C17.811 9.09495 15.5437 8.71953 8.89615 8.56708Z" fill="black"/>
</svg>
