<svg width="28" height="29" viewBox="0 0 28 29" fill="none" xmlns="http://www.w3.org/2000/svg">
<path fill-rule="evenodd" clip-rule="evenodd" d="M20.416 26.005C22.3036 27.0969 24.4952 27.7218 26.8327 27.7218V25.0482C25.4033 25.0482 24.0429 24.7531 22.8091 24.2204C25.2866 21.8806 26.8327 18.5651 26.8327 14.8885C26.8327 11.2119 25.2866 7.89637 22.8091 5.55666C24.0429 5.02395 25.4033 4.72879 26.8327 4.72879V2.05518C24.4952 2.05518 22.3036 2.68012 20.416 3.77205C18.5284 2.68012 16.3369 2.05518 13.9993 2.05518C6.91169 2.05518 1.16602 7.80085 1.16602 14.8885C1.16602 21.9762 6.91169 27.7218 13.9993 27.7218C16.3369 27.7218 18.5284 27.0969 20.416 26.005ZM18.0229 24.2204C16.7891 24.7531 15.4287 25.0482 13.9993 25.0482C8.38829 25.0482 3.83963 20.4996 3.83963 14.8885C3.83963 9.27745 8.38829 4.72879 13.9993 4.72879C15.4287 4.72879 16.7891 5.02395 18.0229 5.55666C15.5454 7.89637 13.9993 11.2119 13.9993 14.8885C13.9993 18.5651 15.5454 21.8806 18.0229 24.2204ZM20.416 7.01115C22.7003 8.87414 24.1591 11.711 24.1591 14.8885C24.1591 18.066 22.7003 20.9029 20.416 22.7659C18.1317 20.9029 16.673 18.066 16.673 14.8885C16.673 11.711 18.1317 8.87414 20.416 7.01115Z" fill="white"/>
</svg>
