<svg width="28" height="29" viewBox="0 0 28 29" fill="none" xmlns="http://www.w3.org/2000/svg">
<g opacity="0.8">
<path fill-rule="evenodd" clip-rule="evenodd" d="M12.8333 3.22181C9.61057 3.22825 7 5.84279 7 9.06707C7 12.2953 9.61701 14.9123 12.8453 14.9123C13.5693 14.9123 14.2627 14.7807 14.9026 14.54C15.4909 14.5694 15.8667 15.0191 15.8667 15.4543C15.8667 15.9045 15.4647 16.3701 14.8412 16.3701V16.3808C14.2184 16.1545 13.5463 16.0311 12.8453 16.0311C9.61701 16.0311 7 18.6482 7 21.8764C7 25.1047 9.61701 27.7217 12.8453 27.7217C16.0735 27.7217 18.6905 25.1047 18.6905 21.8764C18.6905 20.3225 18.0842 18.9102 17.0951 17.8632C17.7673 17.2775 18.2 16.4284 18.2 15.4543C18.2 14.4889 17.775 13.6463 17.1131 13.0612C18.0915 12.0162 18.6905 10.6116 18.6905 9.06707C18.6905 7.74903 18.2543 6.53288 17.5183 5.55514H19.8333V3.2218L12.8333 3.22181ZM9.33333 9.06707C9.33333 7.12748 10.9057 5.55514 12.8453 5.55514C14.7849 5.55514 16.3572 7.12748 16.3572 9.06707C16.3572 11.0067 14.7849 12.579 12.8453 12.579C10.9057 12.579 9.33333 11.0067 9.33333 9.06707ZM9.33333 21.8764C9.33333 19.9368 10.9057 18.3645 12.8453 18.3645C14.7849 18.3645 16.3572 19.9368 16.3572 21.8764C16.3572 23.816 14.7849 25.3883 12.8453 25.3883C10.9057 25.3883 9.33333 23.816 9.33333 21.8764Z" fill="white"/>
</g>
</svg>
