<svg width="28" height="29" viewBox="0 0 28 29" fill="none" xmlns="http://www.w3.org/2000/svg">
<g opacity="0.8">
<g clip-path="url(#clip0)">
<path d="M27.71 8.9115C27.5811 8.00932 27.0656 7.23601 26.2923 6.84936L14.9505 1.17848C14.1772 0.791826 13.4039 0.791826 12.6306 1.17848L1.41772 6.84936C0.515535 7.23601 0 8.1382 0 9.16927V9.29815V20.3822C0 21.2843 0.515535 22.1865 1.28884 22.5732L12.6306 28.6307C13.0173 28.8885 13.4039 28.8885 13.7906 28.8885C14.1772 28.8885 14.5639 28.7596 14.9505 28.6307L26.2923 22.5732C27.0656 22.1865 27.5811 21.2843 27.5811 20.3822L27.71 8.9115ZM13.9194 3.49839L25.2612 9.16927L13.9194 14.8402L2.57768 9.16927L13.9194 3.49839ZM2.57768 12.0047L12.6306 17.0312V25.7953L2.57768 20.3822V12.0047ZM15.2083 25.7953V17.0312L25.2612 12.0047V20.3822L15.2083 25.7953Z" fill="white"/>
<path d="M14.0009 10.6885C15.0963 10.6885 15.9842 9.80053 15.9842 8.70517C15.9842 7.6098 15.0963 6.72183 14.0009 6.72183C12.9055 6.72183 12.0176 7.6098 12.0176 8.70517C12.0176 9.80053 12.9055 10.6885 14.0009 10.6885Z" fill="white"/>
</g>
</g>
<defs>
<clipPath id="clip0">
<rect width="28" height="28" fill="white" transform="translate(0 0.888489)"/>
</clipPath>
</defs>
</svg>
