<svg width="37" height="32" viewBox="0 0 37 32" fill="none" xmlns="http://www.w3.org/2000/svg">
<path d="M18.4993 31.6667C17.8493 31.6667 17.2327 31.4333 16.7327 31.0333C15.2993 29.8333 13.916 28.7 12.6993 27.7C5.43268 21.7167 0.166016 17.4 0.166016 10.9167C0.166016 4.68333 4.68268 0 10.6827 0C12.866 0 14.8493 0.666667 16.5993 1.96667C17.3327 2.51667 17.966 3.13333 18.4827 3.75C18.9993 3.13333 19.6327 2.51667 20.366 1.96667C22.1493 0.666667 24.1327 0 26.316 0C32.316 0 36.8327 4.68333 36.8327 10.9167C36.8327 17.4 31.566 21.7167 24.2993 27.6833C23.066 28.6833 21.6993 29.8167 20.266 31.0167C19.766 31.4333 19.1493 31.6667 18.4993 31.6667ZM10.6827 3.33333C6.58268 3.33333 3.49935 6.6 3.49935 10.9167C3.49935 15.8167 7.99935 19.5167 14.8327 25.1167C15.9493 26.0333 17.1993 27.0667 18.4993 28.15C19.7993 27.05 21.0493 26.0333 22.166 25.1167C28.9993 19.5167 33.4993 15.8167 33.4993 10.9167C33.4993 6.6 30.416 3.33333 26.316 3.33333C24.866 3.33333 23.5493 3.76667 22.3827 4.65C21.1993 5.53333 20.416 6.66667 19.9493 7.48333C19.3493 8.51667 17.6493 8.51667 17.0493 7.48333C16.5993 6.66667 15.7993 5.51667 14.616 4.65C13.4493 3.76667 12.1327 3.33333 10.6827 3.33333Z" fill="url(#paint0_linear)"/>
<defs>
<linearGradient id="paint0_linear" x1="0.166016" y1="0" x2="35.8378" y2="-0.70508" gradientUnits="userSpaceOnUse">
<stop stop-color="#229AFA"/>
<stop offset="1" stop-color="#1168F8"/>
</linearGradient>
</defs>
</svg>
