<svg width="25" height="29" viewBox="0 0 25 29" fill="none" xmlns="http://www.w3.org/2000/svg">
<g clip-path="url(#clip0)">
<path d="M12.5678 4.33643C12.2964 4.52288 12.069 4.78255 11.9577 5.09299C11.8171 5.48347 11.8708 5.9208 12.0065 6.31324C12.1451 6.71543 12.3765 7.0981 12.7269 7.33922C12.9017 7.46027 13.1047 7.54227 13.3156 7.56766C13.5264 7.59304 13.7461 7.55887 13.9345 7.46027C14.1639 7.3402 14.3396 7.13129 14.448 6.89603C14.5563 6.66076 14.6032 6.40109 14.6178 6.1424C14.6364 5.81245 14.6042 5.47761 14.4958 5.1662C14.3777 4.82746 14.1649 4.51507 13.8642 4.31983C13.7139 4.22221 13.543 4.15583 13.3654 4.13045C13.1877 4.10605 13.0042 4.12459 12.8363 4.18902C12.7416 4.22709 12.6518 4.27883 12.5678 4.33643Z" fill="url(#paint0_radial)"/>
<path d="M12.0899 -0.000182768C11.3899 -0.00799238 10.6822 0.133557 10.0662 0.466441C9.41119 0.81885 8.87525 1.38407 8.54432 2.04984C8.21437 2.71561 8.08453 3.42726 8.06501 4.21017C8.02791 5.69888 8.0982 7.25982 8.21046 8.67434C8.24072 9.10484 8.29344 9.3567 8.23877 9.79892C8.05427 10.739 7.23231 11.3716 6.79399 12.1974C6.31077 13.1082 6.10675 14.1381 5.74165 15.1026C5.40779 15.9851 4.93824 16.8129 4.62195 17.7022C4.17973 18.9459 4.04696 20.3116 4.33982 21.5983C4.5624 22.5793 5.02805 23.4989 5.65574 24.2857C5.56496 24.4497 5.4771 24.6147 5.38338 24.7768C5.09248 25.2795 4.73714 25.7559 4.57118 26.3123C4.48821 26.5906 4.45599 26.8873 4.50968 27.1724C4.56337 27.4574 4.70785 27.7308 4.93433 27.9114C5.08271 28.0295 5.26233 28.1056 5.44684 28.1486C5.63231 28.1915 5.82365 28.2023 6.01303 28.1974C6.73445 28.1818 7.43438 27.9621 8.13236 27.7796C8.54627 27.6712 8.96311 27.5746 9.3819 27.4877C10.8696 27.1831 12.5301 27.3042 13.9115 27.5053C14.3791 27.5755 14.8437 27.6683 15.3035 27.7796C16.024 27.9543 16.7415 28.1769 17.4824 28.1974C17.6777 28.2032 17.8739 28.1945 18.0642 28.1525C18.2546 28.1105 18.4391 28.0324 18.5914 27.9114C18.8188 27.7298 18.9633 27.4564 19.017 27.1704C19.0707 26.8844 19.0375 26.5866 18.9536 26.3084C18.7856 25.751 18.4274 25.2766 18.1296 24.7758C18.0125 24.5786 17.9032 24.3765 17.787 24.1784C18.6822 23.1729 19.4026 22.0112 19.8194 20.7343C20.2744 19.3403 20.3573 17.8399 20.166 16.3873C19.9747 14.9337 19.5139 13.5251 18.9067 12.1906C18.1453 10.5174 17.5058 9.91314 17.0422 8.44396C16.5414 6.85568 16.9553 4.97747 16.5824 3.53659C16.4496 3.04654 16.2378 2.57894 15.9644 2.15136C15.6452 1.6496 15.2401 1.20054 14.7578 0.851064C13.9905 0.296582 13.0388 0.0105554 12.0899 -0.000182768Z" fill="#020204"/>
<path d="M9.34503 8.38339C9.24253 8.51127 9.17615 8.66551 9.13612 8.82366C9.0961 8.98278 9.08146 9.14678 9.07462 9.30981C9.06193 9.63684 9.08243 9.9707 8.99555 10.287C8.90281 10.6248 8.69488 10.9176 8.49183 11.2027C8.1404 11.6966 7.78409 12.2033 7.61032 12.7841C7.50489 13.1355 7.46975 13.5085 7.50782 13.8736C7.11344 14.4524 6.77274 15.0665 6.49062 15.7069C6.06207 16.6772 5.76823 17.711 5.66573 18.7663C5.53883 20.0588 5.70478 21.3884 6.21533 22.5832C6.58434 23.4472 7.13491 24.2369 7.84461 24.8529C8.20581 25.1653 8.60605 25.4328 9.0346 25.6436C10.5194 26.3738 12.3547 26.3748 13.8151 25.5968C14.5784 25.1897 15.2227 24.5952 15.8436 23.9938C16.2175 23.6317 16.5894 23.2607 16.8754 22.8243C17.425 21.9858 17.6164 20.9657 17.7355 19.9709C17.9434 18.2303 17.9502 16.3912 17.1868 14.8127C16.9242 14.2689 16.5738 13.7681 16.154 13.3347C16.0418 12.5752 15.8211 11.8313 15.5009 11.1343C15.2696 10.6306 14.9865 10.1523 14.7717 9.64172C14.6839 9.43183 14.6067 9.21804 14.5091 9.01207C14.4115 8.80706 14.2905 8.60987 14.1265 8.45173C13.9586 8.29065 13.7487 8.17644 13.5271 8.10322C13.3065 8.03001 13.0731 7.99682 12.8408 7.9851C12.3761 7.96167 11.9095 8.0222 11.4439 8.00365C11.0739 7.98901 10.7039 7.9236 10.3339 7.94605C10.1484 7.95679 9.96394 7.98998 9.79213 8.05929C9.61837 8.13056 9.46022 8.23794 9.34503 8.38339Z" fill="#FDFDFB"/>
<path opacity="0.25" d="M7.7056 13.048C7.80517 13.1964 7.64409 13.7098 9.95476 13.3818C9.95476 13.3818 9.54866 13.4267 9.14842 13.5185C8.52658 13.7264 7.98479 13.9597 7.566 14.2682C7.15209 14.5728 6.84849 14.9711 6.46875 15.3128C6.46875 15.3128 7.08376 14.1882 7.238 13.8494C7.39126 13.5107 7.21261 13.5263 7.33366 13.0284C7.45471 12.5306 7.75245 12.0513 7.75245 12.0513C7.75245 12.0513 7.51036 12.7541 7.7056 13.048Z" fill="url(#paint1_radial)"/>
<path opacity="0.42" d="M15.1364 12.9132C14.6649 13.2412 14.3896 13.2021 13.8176 13.2665C13.2465 13.331 11.6992 13.3075 11.6992 13.3075C11.6992 13.3075 11.9228 13.3036 12.4197 13.3954C12.9156 13.4881 13.9279 13.576 14.498 13.7927C15.0681 14.0094 15.276 14.0719 15.6226 14.2906C16.1155 14.602 16.4777 15.0911 16.9492 15.4327C16.9492 15.4327 16.9717 14.9798 16.7813 14.641C16.591 14.3023 16.0794 13.7693 15.9291 13.2704C15.7788 12.7716 15.7075 11.7935 15.7075 11.7935C15.7075 11.7935 15.6079 12.5852 15.1364 12.9132Z" fill="url(#paint2_radial)"/>
<path opacity="0.2" d="M10.7076 12.2119C10.69 12.3544 10.6676 12.496 10.6393 12.6356C10.6256 12.7049 10.611 12.7742 10.5846 12.8396C10.5592 12.905 10.5221 12.9675 10.4694 13.0153C10.4235 13.0563 10.3679 13.0856 10.3113 13.111C10.0916 13.2115 9.85733 13.2779 9.61719 13.3082C9.71286 13.315 9.80852 13.3238 9.90419 13.3345C9.96471 13.3414 10.0243 13.3482 10.0828 13.3638C10.1414 13.3785 10.198 13.4019 10.2468 13.438C10.3005 13.4771 10.3425 13.5308 10.3737 13.5893C10.4362 13.7055 10.4567 13.8392 10.4684 13.971C10.4831 14.1389 10.4841 14.3088 10.4714 14.4767C10.4831 14.3644 10.5065 14.2522 10.5417 14.1448C10.6051 13.9505 10.7076 13.769 10.8462 13.6186C10.9009 13.5591 10.9614 13.5044 11.0278 13.4575C11.2308 13.315 11.4886 13.2516 11.7346 13.2857C11.4847 13.2965 11.2318 13.2184 11.0327 13.068C10.9312 12.9909 10.8423 12.8962 10.7808 12.7849C10.6861 12.6122 10.6588 12.4032 10.7076 12.2119Z" fill="url(#paint3_radial)"/>
<path opacity="0.11" d="M10.1066 15.5352C9.9865 15.992 9.90353 16.4586 9.8596 16.9292C9.79712 17.594 9.81274 18.2636 9.77662 18.9304C9.74636 19.4966 9.67998 20.0686 9.77857 20.626C9.82543 20.8925 9.90938 21.1522 10.0275 21.3943C10.0461 21.3016 10.0597 21.2079 10.0685 21.1132C10.1105 20.6602 10.0343 20.2063 10.008 19.7523C9.96307 18.9567 10.0734 18.1621 10.1173 17.3665C10.1534 16.7583 10.1495 16.1453 10.1066 15.5352Z" fill="black"/>
<path opacity="0.25" d="M7.966 11.0375C7.95428 10.8969 7.75417 10.8764 7.66533 10.9458C7.59017 11.0043 7.5189 11.2064 7.58431 11.2855C7.68974 11.4134 7.98162 11.2289 7.966 11.0375Z" fill="#7C7C7C"/>
<path opacity="0.75" d="M18.062 14.8661C18.1782 14.8485 18.8938 15.4567 18.7952 15.6822C18.6975 15.9087 18.514 15.772 18.3822 15.774C18.2504 15.7759 17.8912 15.9389 17.8307 15.8355C17.7701 15.732 17.9898 15.4918 18.104 15.2907C18.1977 15.1287 17.9459 14.8837 18.062 14.8661Z" fill="#7C7C7C"/>
<path d="M13.6913 1.26004C13.4414 1.43673 13.5507 1.65735 13.6581 1.87797C13.7655 2.0986 13.4219 2.73703 13.418 2.76436C13.4141 2.7917 14.0955 2.44124 14.2809 2.21281C14.5006 1.94338 15.0541 2.57693 15.0238 2.48029C15.0248 2.30946 13.9422 1.08335 13.6913 1.26004Z" fill="#7C7C7C"/>
<path d="M15.5909 8.68024C15.38 8.87255 15.6895 9.1615 15.8369 9.50024C15.9286 9.7111 16.1815 10.0088 16.4255 9.96101C16.6091 9.92489 16.7233 9.66034 16.7067 9.47389C16.6735 9.11367 16.3689 9.02972 16.1483 8.90574C15.9735 8.80812 15.7393 8.54552 15.5909 8.68024Z" fill="#838384"/>
<path opacity="0.2588" d="M9.11639 10.119C9.28234 10.6012 9.61718 11.0122 10.0135 11.3334C10.1453 11.4398 10.2849 11.5384 10.4401 11.6087C10.5944 11.678 10.7652 11.718 10.9341 11.7034C11.099 11.6897 11.2572 11.6243 11.4017 11.5423C11.5461 11.4603 11.6809 11.3617 11.8205 11.2728C12.0606 11.1206 12.3183 10.9976 12.5682 10.8609C12.8689 10.6959 13.1608 10.5104 13.4136 10.2791C13.5298 10.1736 13.6381 10.0575 13.766 9.96669C13.8939 9.87591 14.0472 9.80953 14.2043 9.82026C14.3215 9.82807 14.4318 9.87786 14.547 9.90324C14.6046 9.91593 14.6641 9.92179 14.7227 9.913C14.7813 9.90422 14.8379 9.87981 14.8789 9.83686C14.9287 9.78512 14.9511 9.70995 14.9482 9.63771C14.9453 9.56548 14.9209 9.49617 14.8867 9.43174C14.8193 9.30385 14.7178 9.19354 14.6719 9.05688C14.6319 8.93485 14.6397 8.80306 14.6436 8.67518C14.6475 8.54632 14.6446 8.41258 14.5851 8.29837C14.5402 8.21149 14.464 8.14218 14.3781 8.09727C14.2912 8.05139 14.1946 8.02796 14.097 8.01918C13.9017 8.00063 13.7075 8.0387 13.5122 8.04944C13.2525 8.06408 12.9929 8.03187 12.7332 8.04749C12.4101 8.06701 12.0928 8.16073 11.7697 8.1617C11.3997 8.16268 11.0307 8.04163 10.6656 8.09922C10.5094 8.12363 10.3601 8.18123 10.2088 8.23101C10.0584 8.2808 9.9032 8.3257 9.74408 8.32277C9.56446 8.31985 9.38972 8.25737 9.2101 8.24468C9.12029 8.23784 9.02853 8.24468 8.9436 8.27592C8.85867 8.30715 8.7835 8.36573 8.74153 8.44578C8.7181 8.49166 8.70638 8.5434 8.70345 8.59416C8.7015 8.6459 8.70834 8.69763 8.72103 8.74742C8.74641 8.84797 8.79131 8.94071 8.82938 9.03735C8.96605 9.38683 8.99436 9.76755 9.11639 10.119Z" fill="black"/>
<path opacity="0.3" d="M8.65277 8.74536C8.97589 8.94451 9.26583 9.18954 9.5089 9.4697C9.7344 9.72937 9.92671 10.0232 10.2215 10.2145C10.4295 10.3502 10.6794 10.4264 10.9332 10.4498C11.2309 10.4771 11.5326 10.4332 11.8196 10.3551C12.0861 10.2829 12.3428 10.1814 12.579 10.0476C13.0281 9.79283 13.403 9.41894 13.8979 9.25104C14.0063 9.21492 14.1185 9.18856 14.223 9.14268C14.3274 9.09777 14.425 9.02944 14.4748 8.93475C14.5227 8.84298 14.5207 8.73658 14.5363 8.63603C14.5529 8.52767 14.59 8.42322 14.6105 8.31584C14.631 8.20845 14.6339 8.09326 14.5832 7.99467C14.5412 7.91267 14.4651 7.84824 14.3782 7.80724C14.2913 7.76623 14.1927 7.74769 14.0951 7.74281C13.8989 7.73402 13.7056 7.7799 13.5103 7.7965C13.2516 7.81797 12.991 7.78771 12.7313 7.79454C12.4082 7.80333 12.09 7.87069 11.7678 7.88533C11.3998 7.90095 11.0327 7.84824 10.6637 7.83555C10.5046 7.83066 10.3436 7.83262 10.1874 7.858C10.0302 7.88338 9.87595 7.93219 9.74319 8.01321C9.61433 8.09229 9.5089 8.19869 9.39078 8.29143C9.33221 8.33731 9.26875 8.38027 9.20042 8.41248C9.13111 8.44469 9.05594 8.46715 8.97882 8.47008C8.9388 8.47203 8.89878 8.4691 8.85973 8.47398C8.79335 8.48374 8.73282 8.51791 8.69377 8.56867C8.6557 8.62041 8.64008 8.68484 8.65277 8.74536Z" fill="black"/>
<path d="M18.3693 14.3996C18.9628 14.877 19.3406 15.5994 19.4568 16.352C19.5476 16.9397 19.489 17.542 19.3563 18.1219C19.2235 18.7017 19.0195 19.2621 18.8164 19.8204C18.7354 20.043 18.6544 20.2685 18.6222 20.5028C18.5899 20.7381 18.6104 20.986 18.7237 21.1949C18.8535 21.4341 19.0956 21.5981 19.3563 21.6752C19.613 21.7514 19.8912 21.7504 20.1519 21.685C20.4125 21.6206 20.8508 21.5356 21.0626 21.3716C21.6015 20.9538 21.7284 20.2275 21.8563 19.5901C21.9891 18.9253 21.9246 18.2283 21.8075 17.5566C21.6484 16.641 21.3799 15.7458 21.0382 14.8809C20.7874 14.2454 20.4652 13.6372 20.0825 13.0729C19.7067 12.5194 19.1737 12.088 18.7803 11.5462C18.6436 11.3578 18.4786 11.1625 18.3449 10.9722C18.055 10.5622 18.1204 10.6393 17.9408 10.3737C17.81 10.1814 17.604 10.1151 17.3873 10.0311C17.1705 9.94715 16.9275 9.92177 16.7029 9.98522C16.4081 10.0682 16.167 10.3005 16.0391 10.5788C15.9112 10.857 15.8888 11.1762 15.9386 11.4788C16.003 11.8693 16.1817 12.2305 16.3827 12.5712C16.6102 12.9558 16.8728 13.3258 17.2164 13.6108C17.5737 13.9115 18.0062 14.1077 18.3693 14.3996Z" fill="#020204"/>
<path d="M7.1771 11.4308C6.48692 12.2156 5.77625 12.9751 5.38577 13.8234C5.19248 14.2539 5.10169 14.7225 4.96991 15.1755C4.81957 15.6899 4.61554 16.1878 4.38711 16.673C4.17625 17.121 3.94294 17.5574 3.70963 17.9947C3.53977 18.312 3.36698 18.6371 3.30841 18.9924C3.26155 19.2736 3.28889 19.5625 3.36015 19.8388C3.43141 20.1141 3.5466 20.3767 3.67644 20.6305C4.22995 21.7121 5.05972 22.6434 6.04275 23.356C6.48887 23.6792 6.96721 23.9593 7.468 24.1887C7.73939 24.3127 8.02542 24.423 8.32413 24.4289C8.47349 24.4318 8.62383 24.4064 8.76049 24.3469C8.89716 24.2864 9.01919 24.1907 9.10021 24.0648C9.19979 23.9105 9.23395 23.7192 9.21345 23.5366C9.19295 23.3541 9.12267 23.1803 9.027 23.0232C8.79369 22.6405 8.42468 22.3632 8.07032 22.0889C7.30498 21.4964 6.56502 20.8706 5.8563 20.2107C5.65617 20.0243 5.45605 19.832 5.31646 19.5977C5.18076 19.3692 5.10657 19.1086 5.05679 18.847C4.92012 18.1295 4.95526 17.3749 5.19931 16.6866C5.29498 16.4172 5.42091 16.1605 5.54294 15.9018C5.7538 15.4537 5.95392 14.9968 6.23116 14.5868C6.57673 14.0763 7.03848 13.6438 7.31962 13.0952C7.55684 12.6325 7.65348 12.1122 7.74525 11.5997C7.81748 11.1994 7.95513 10.807 8.02541 10.4058C7.8907 10.6635 7.44848 11.0911 7.1771 11.4308Z" fill="#020204"/>
<path d="M18.4214 14.3147C18.0554 14.0443 17.6366 13.852 17.2344 13.6333C17.5878 13.9203 18.0075 14.1146 18.3629 14.3996C18.9564 14.877 19.3342 15.5994 19.4504 16.352C19.5411 16.9397 19.4826 17.542 19.3498 18.1219C19.217 18.7017 19.013 19.2621 18.81 19.8205C18.7289 20.043 18.6479 20.2685 18.6157 20.5028C18.5972 20.6375 18.5972 20.7771 18.6206 20.9109C18.6772 20.6678 18.7553 20.4306 18.8383 20.1953C19.0843 19.5003 19.3664 18.8189 19.5607 18.1053C19.7549 17.3917 19.7334 16.8792 19.6319 16.2661C19.505 15.4969 19.0569 14.7852 18.4214 14.3147Z" fill="#838384"/>
<path opacity="0.95" d="M5.85592 20.2087C5.65579 20.0222 5.45567 19.8299 5.31608 19.5956C5.18038 19.3672 5.10619 19.1065 5.05641 18.8449C4.91974 18.1274 4.95488 17.3728 5.19893 16.6846C5.2946 16.4152 5.42053 16.1584 5.54256 15.8997C5.75341 15.4516 5.95354 14.9948 6.23078 14.5848C6.34597 14.4139 6.47483 14.2519 6.60564 14.0918C6.56366 14.1035 6.52461 14.1221 6.49045 14.1474C6.44261 14.1826 6.40454 14.2314 6.38014 14.2861C6.15366 14.495 5.95744 14.7361 5.7993 15.0006C5.53865 15.436 5.38539 15.9251 5.196 16.3956C5.05543 16.7461 4.89045 17.0975 4.87093 17.4753C4.86117 17.6686 4.88948 17.8629 4.89631 18.0561C4.90314 18.2504 4.8846 18.4515 4.7899 18.6204C4.71083 18.7619 4.57807 18.8732 4.42578 18.9269C4.63274 18.9962 4.81626 19.13 4.94707 19.3047C5.05543 19.4511 5.12572 19.622 5.22041 19.7782C5.29753 19.9051 5.39124 20.0222 5.50741 20.114C5.62358 20.2057 5.7622 20.2721 5.90961 20.2907C5.92327 20.2926 5.93596 20.2926 5.94963 20.2936C5.91839 20.2643 5.88715 20.237 5.85592 20.2087Z" fill="#7C7C7C"/>
<path opacity="0.2" d="M22.3658 24.4235C22.3199 24.5748 22.2506 24.7212 22.1608 24.854C21.9626 25.1478 21.6746 25.3694 21.3866 25.5734C20.8956 25.9219 20.3841 26.2412 19.9272 26.6365C19.6207 26.902 19.3415 27.1988 19.0828 27.5112C18.8612 27.7787 18.6533 28.0598 18.4014 28.298C18.1466 28.5382 17.8469 28.7324 17.5238 28.8379C17.1314 28.9667 16.7165 28.9599 16.3377 28.8632C16.0722 28.7949 15.8145 28.6768 15.6495 28.463C15.4845 28.2482 15.4308 27.9602 15.4123 27.6771C15.3781 27.1764 15.4387 26.6648 15.4923 26.1562C15.5372 25.7335 15.5792 25.3118 15.5968 24.8901C15.628 24.1238 15.5773 23.3633 15.4738 22.6185C15.4562 22.4935 15.4377 22.3676 15.4484 22.2387C15.4592 22.1099 15.5021 21.9761 15.5919 21.8766C15.6749 21.7848 15.792 21.7301 15.9082 21.7038C16.0244 21.6774 16.1415 21.6755 16.2587 21.6725C16.533 21.6657 16.8092 21.6491 17.0806 21.6735C17.2515 21.6891 17.4184 21.7194 17.5892 21.736C17.8733 21.7633 18.1691 21.7487 18.4541 21.6657C18.7616 21.5759 19.0545 21.407 19.3659 21.3601C19.4938 21.3406 19.6227 21.3435 19.7466 21.3611C19.8735 21.3787 20.0004 21.4138 20.0981 21.4919C20.1723 21.5505 20.2269 21.6315 20.2689 21.7184C20.3323 21.8473 20.3714 21.9888 20.3929 22.1343C20.4124 22.2631 20.4192 22.3959 20.4524 22.5208C20.5071 22.7258 20.6311 22.9006 20.7804 23.0421C20.9298 23.1837 21.1035 23.2959 21.2773 23.4063C21.4511 23.5166 21.6248 23.6259 21.8103 23.7167C21.8972 23.7596 21.986 23.7977 22.07 23.8465C22.153 23.8953 22.2301 23.9559 22.2857 24.0359C22.358 24.1433 22.3882 24.2848 22.3658 24.4235Z" fill="url(#paint4_linear)"/>
<path d="M24.037 25.2522C23.7813 25.5558 23.4249 25.7569 23.0706 25.9375C22.4663 26.245 21.8406 26.5154 21.2724 26.8864C20.8917 27.1343 20.5403 27.4262 20.2123 27.7396C19.9311 28.008 19.6646 28.295 19.3503 28.5225C19.032 28.7519 18.665 28.9179 18.2774 28.9764C17.8059 29.0467 17.3188 28.9559 16.8815 28.7656C16.5749 28.6318 16.2801 28.4415 16.1044 28.1574C15.9277 27.8723 15.8867 27.5238 15.8867 27.189C15.8857 26.5955 15.9961 26.0088 16.0995 25.425C16.1854 24.9398 16.2674 24.4537 16.3202 23.9626C16.4158 23.0714 16.4158 22.1713 16.3514 21.2771C16.3407 21.1278 16.328 20.9764 16.3504 20.8281C16.3729 20.6797 16.4334 20.5313 16.5476 20.4337C16.653 20.3429 16.7936 20.3029 16.9322 20.296C17.0709 20.2882 17.2085 20.3107 17.3461 20.3302C17.6693 20.3771 17.9953 20.4141 18.3116 20.4981C18.5108 20.5508 18.705 20.6211 18.9042 20.6748C19.2361 20.7646 19.5846 20.8076 19.9262 20.7675C20.2943 20.7246 20.6516 20.586 21.0215 20.5957C21.1738 20.5996 21.3242 20.6279 21.4696 20.6738C21.618 20.7207 21.7635 20.7871 21.8718 20.8983C21.9548 20.9823 22.0124 21.0887 22.0553 21.198C22.1198 21.3611 22.1539 21.5358 22.1696 21.7105C22.1822 21.8658 22.1803 22.022 22.2096 22.1752C22.2584 22.4261 22.3902 22.6555 22.5542 22.8517C22.7182 23.0479 22.9144 23.2149 23.1106 23.3798C23.3058 23.5439 23.5021 23.7069 23.7129 23.8514C23.8115 23.9187 23.914 23.9822 24.0077 24.0564C24.1015 24.1306 24.1874 24.2174 24.2469 24.3219C24.326 24.4634 24.3504 24.6352 24.2996 24.7983C24.2489 24.9613 24.1532 25.1146 24.037 25.2522Z" fill="url(#paint5_linear)"/>
<path d="M24.0079 24.4818C23.9474 24.6331 23.8624 24.7737 23.757 24.8976C23.5227 25.172 23.1976 25.3516 22.8745 25.5136C22.323 25.7899 21.7519 26.033 21.2326 26.3668C20.886 26.5894 20.5648 26.852 20.2642 27.1341C20.0074 27.3752 19.7643 27.6339 19.4764 27.838C19.1855 28.0449 18.8497 28.1943 18.4963 28.246C18.0658 28.3095 17.6216 28.2275 17.2213 28.0556C16.9422 27.9365 16.6727 27.7657 16.5117 27.509C16.3506 27.2532 16.3135 26.9398 16.3125 26.6382C16.3115 26.1052 16.4121 25.5771 16.5068 25.0519C16.5858 24.6155 16.661 24.1782 16.7079 23.7379C16.7947 22.9365 16.7908 22.1272 16.7362 21.3228C16.7274 21.1881 16.7167 21.0524 16.7372 20.9186C16.7577 20.7849 16.8133 20.6521 16.9158 20.5643C17.0115 20.4813 17.1403 20.4452 17.2672 20.4384C17.3941 20.4315 17.5201 20.452 17.645 20.4706C17.9398 20.5135 18.2376 20.5467 18.5265 20.6209C18.7091 20.6678 18.8858 20.7312 19.0683 20.78C19.3719 20.8611 19.6892 20.8991 20.0016 20.864C20.3374 20.8249 20.6644 20.701 21.0022 20.7088C21.1408 20.7117 21.2784 20.738 21.4112 20.779C21.5459 20.821 21.6797 20.8796 21.7792 20.9801C21.8544 21.0563 21.9061 21.151 21.9471 21.2496C22.0086 21.396 22.0477 21.5522 22.0516 21.7103C22.0545 21.8753 22.0184 22.0413 22.0408 22.2053C22.0594 22.338 22.115 22.464 22.1873 22.5772C22.2595 22.6904 22.3464 22.793 22.4333 22.8955C22.6012 23.0936 22.7691 23.2957 22.979 23.447C23.2181 23.6198 23.5022 23.7213 23.7502 23.8834C23.8244 23.9312 23.8956 23.9859 23.9474 24.0571C24.0352 24.1782 24.0587 24.3422 24.0079 24.4818Z" fill="#CD8907"/>
<path d="M23.9759 24.3111C23.9085 24.4634 23.8216 24.605 23.7182 24.7309C23.478 25.0228 23.1539 25.2239 22.8122 25.3527C22.25 25.5655 21.6359 25.5938 21.0834 25.8359C20.7466 25.9833 20.444 26.2059 20.1375 26.4158C19.8895 26.5857 19.6367 26.7487 19.3643 26.8678C19.0568 27.0015 18.7298 27.0767 18.4018 27.1294C18.1929 27.1626 17.982 27.188 17.7711 27.1763C17.5603 27.1646 17.3484 27.1148 17.163 27.0074C17.0224 26.9264 16.8955 26.8082 16.8193 26.6559C16.7354 26.4871 16.7207 26.2879 16.7227 26.0966C16.7276 25.586 16.8369 25.0804 16.834 24.5698C16.8311 24.1256 16.7432 23.6863 16.7178 23.2422C16.669 22.389 16.8525 21.5202 16.6915 20.6835C16.6661 20.5498 16.6309 20.4161 16.6329 20.2784C16.6339 20.2101 16.6436 20.1408 16.668 20.0783C16.6924 20.0149 16.7305 19.9573 16.7822 19.9172C16.8252 19.884 16.8769 19.8635 16.9297 19.8538C16.9824 19.845 17.0361 19.846 17.0898 19.8548C17.1952 19.8713 17.2967 19.9123 17.3992 19.9436C17.694 20.0314 18.0054 20.0295 18.3051 20.0959C18.4935 20.1379 18.6751 20.2052 18.8616 20.256C19.1739 20.3409 19.5 20.378 19.8202 20.3399C20.1648 20.2999 20.5016 20.1749 20.8481 20.1837C20.9907 20.1876 21.1312 20.214 21.2679 20.255C21.4046 20.296 21.5422 20.3536 21.6457 20.458C21.7199 20.5332 21.7745 20.6299 21.8175 20.7304C21.8809 20.8759 21.9259 21.035 21.9239 21.1961C21.9229 21.28 21.9102 21.363 21.9034 21.446C21.8956 21.5289 21.8936 21.6148 21.9132 21.6959C21.9337 21.7769 21.9747 21.8511 22.0225 21.9175C22.0703 21.9838 22.125 22.0454 22.1738 22.1098C22.3124 22.2923 22.411 22.5051 22.5194 22.7101C22.6277 22.9151 22.7488 23.1182 22.9186 23.2656C23.151 23.4667 23.4517 23.5467 23.7103 23.7059C23.7865 23.7527 23.8597 23.8074 23.9124 23.8816C23.9554 23.9411 23.9837 24.0124 23.9944 24.0866C24.0061 24.1627 23.9993 24.2399 23.9759 24.3111Z" fill="#F5C021"/>
<path d="M16.6289 20.5693C16.9491 20.4824 17.2214 20.7254 17.4528 20.908C17.6031 21.0359 17.8189 21.0037 18.0034 21.0095C18.3079 20.9988 18.6115 21.0603 18.9161 21.0232C19.5155 20.9724 20.1041 20.825 20.7065 20.7996C20.9944 20.7811 21.3176 20.7645 21.5665 20.9334C21.667 21.0037 21.8154 21.2985 21.915 21.1872C21.874 20.8768 21.6436 20.5761 21.3351 20.4941C21.094 20.456 20.848 20.5224 20.604 20.5009C19.8796 20.4833 19.1602 20.3486 18.4339 20.3877C17.9282 20.3916 17.4235 20.3682 16.9188 20.3486C16.7206 20.3086 16.6504 20.4843 16.543 20.5517" fill="url(#paint6_linear)"/>
<path d="M3.96445 19.824C4.12064 19.7596 4.29636 19.7478 4.46231 19.7781C4.62826 19.8084 4.78543 19.8806 4.92503 19.9753C5.20422 20.1657 5.41215 20.4419 5.61032 20.7153C6.06621 21.343 6.5055 21.9843 6.90281 22.6511C7.22593 23.1919 7.52172 23.7503 7.89463 24.2569C8.13771 24.5878 8.413 24.8953 8.65705 25.2253C8.90207 25.5553 9.11879 25.9145 9.22715 26.3108C9.36772 26.8263 9.31305 27.3934 9.06803 27.8679C8.89524 28.2017 8.63069 28.4878 8.30952 28.682C7.98737 28.8763 7.60958 28.9759 7.23374 28.9622C6.63729 28.9397 6.09159 28.641 5.53711 28.4204C4.40667 27.9704 3.17861 27.8288 2.01302 27.4784C1.65476 27.371 1.30235 27.2431 0.942131 27.1435C0.782034 27.0996 0.619009 27.0606 0.467697 26.9922C0.316386 26.9239 0.174837 26.8214 0.090884 26.6779C0.0254785 26.5676 -0.0018551 26.4368 9.7297e-05 26.3079C0.0020497 26.1791 0.032312 26.0531 0.0752648 25.9321C0.163123 25.691 0.303696 25.4723 0.399363 25.2331C0.555556 24.8436 0.582889 24.4141 0.562389 23.9953C0.540913 23.5765 0.473555 23.1616 0.445245 22.7428C0.432554 22.5564 0.427673 22.367 0.462816 22.1825C0.49796 21.998 0.578008 21.8193 0.712724 21.6885C0.836701 21.5685 1.00168 21.4972 1.17154 21.462C1.3414 21.4269 1.51516 21.425 1.68697 21.4289C1.85976 21.4328 2.03255 21.4415 2.20436 21.4279C2.37617 21.4142 2.54896 21.3752 2.69929 21.2893C2.84182 21.2082 2.95799 21.0872 3.05463 20.9544C3.15127 20.8217 3.22937 20.6762 3.30942 20.5337C3.38947 20.3902 3.47244 20.2477 3.5769 20.1207C3.68428 19.9968 3.81314 19.8874 3.96445 19.824Z" fill="url(#paint7_linear)"/>
<path d="M4.21088 20.0938C4.3534 20.0362 4.51253 20.0303 4.66188 20.0645C4.81124 20.0987 4.94986 20.1709 5.07091 20.2646C5.31301 20.4511 5.48092 20.7146 5.64199 20.9743C6.02954 21.602 6.40831 22.2365 6.76657 22.8847C7.03796 23.3719 7.29567 23.8697 7.62954 24.3178C7.85016 24.6146 8.10299 24.8869 8.3285 25.1808C8.554 25.4746 8.75509 25.7938 8.85467 26.1501C8.98353 26.6099 8.93081 27.1176 8.70824 27.5393C8.54814 27.8429 8.30311 28.1006 8.00635 28.2724C7.70958 28.4442 7.36401 28.5311 7.02136 28.5155C6.47469 28.4901 5.97585 28.2177 5.46139 28.0323C4.47543 27.674 3.40649 27.6262 2.39417 27.347C2.032 27.2484 1.67764 27.1176 1.31352 27.0258C1.15244 26.9848 0.988441 26.9516 0.835178 26.8872C0.681914 26.8227 0.537436 26.7222 0.454459 26.5787C0.392959 26.4713 0.367577 26.3454 0.371482 26.2224C0.375387 26.0994 0.406625 25.9773 0.450554 25.8622C0.538413 25.6308 0.677033 25.4219 0.765867 25.1915C0.900583 24.843 0.917178 24.4594 0.891797 24.0855C0.866416 23.7116 0.801987 23.3426 0.779534 22.9697C0.769772 22.8027 0.76782 22.6339 0.801987 22.4699C0.836154 22.3059 0.907416 22.1467 1.02554 22.0296C1.1544 21.9017 1.33206 21.8324 1.51168 21.8051C1.69131 21.7777 1.87386 21.7894 2.05348 21.806C2.23407 21.8217 2.41565 21.8422 2.59624 21.8314C2.77782 21.8207 2.96134 21.7768 3.1107 21.6743C3.24737 21.5825 3.34987 21.4478 3.42699 21.3033C3.50509 21.1598 3.56073 21.0046 3.62028 20.8523C3.67983 20.7 3.74426 20.5477 3.83699 20.412C3.93266 20.2744 4.05762 20.1553 4.21088 20.0938Z" fill="#D99A03"/>
<path d="M4.0809 19.7393C4.21855 19.671 4.3806 19.6573 4.53191 19.6876C4.68322 19.7188 4.82282 19.792 4.94191 19.8887C5.17913 20.081 5.33044 20.3563 5.47101 20.6257C5.79316 21.2446 6.09383 21.8772 6.4804 22.459C6.76057 22.8817 7.0837 23.2751 7.36679 23.6959C7.75142 24.266 8.0638 24.8937 8.19266 25.5663C8.27954 26.0182 8.27661 26.5064 8.05892 26.9144C7.91542 27.1829 7.68308 27.4025 7.40877 27.5401C7.13446 27.6778 6.81915 27.7334 6.51164 27.7061C6.02842 27.6632 5.58913 27.4259 5.13325 27.26C4.32593 26.9661 3.45223 26.8959 2.62148 26.6733C2.27103 26.5796 1.9274 26.4585 1.57207 26.3843C1.4149 26.3511 1.25578 26.3277 1.10544 26.2711C0.956084 26.2145 0.813558 26.1208 0.737415 25.9831C0.683724 25.8855 0.665176 25.7713 0.673962 25.661C0.681771 25.5506 0.714962 25.4433 0.757915 25.3408C0.844797 25.1358 0.972679 24.9483 1.04004 24.7375C1.13863 24.427 1.09861 24.0893 1.02442 23.772C0.950227 23.4547 0.842844 23.1433 0.81063 22.8192C0.795987 22.6748 0.795987 22.5274 0.829178 22.3868C0.862368 22.2452 0.929726 22.1095 1.03516 22.008C1.17085 21.8772 1.36121 21.8128 1.55059 21.7942C1.73997 21.7757 1.93033 21.8011 2.11874 21.8274C2.30715 21.8548 2.49653 21.884 2.68591 21.8753C2.87627 21.8665 3.06956 21.8167 3.21794 21.7005C3.36535 21.5853 3.45809 21.4145 3.5108 21.2368C3.56352 21.0591 3.58109 20.8746 3.60256 20.6911C3.62404 20.5076 3.65137 20.3221 3.72264 20.1513C3.79195 19.9804 3.913 19.8223 4.0809 19.7393Z" fill="#F5BD0C"/>
<path d="M5.80078 21.2837C6.05557 21.7435 6.21079 22.2716 6.46265 22.7363C6.69498 23.1629 6.95855 23.6022 7.1948 23.9966C7.30023 24.1723 7.54428 24.4407 7.79223 24.8595C8.01676 25.2383 8.24324 25.7674 8.37014 25.945C8.29693 25.7371 8.14757 25.1787 7.96892 24.7814C7.80199 24.4095 7.60773 24.1977 7.48766 23.9975C7.25142 23.6041 6.9976 23.2498 6.75551 22.8749C6.42165 22.3556 6.16588 21.7767 5.80078 21.2837Z" fill="url(#paint8_linear)"/>
<path opacity="0.35" d="M20.9415 21.2518C20.8868 21.1444 20.7863 21.0634 20.675 21.0175C20.5637 20.9706 20.4407 20.956 20.3206 20.957C20.0795 20.9589 19.8393 21.0214 19.5982 21.0009C19.3952 20.9833 19.2019 20.9072 19.0037 20.8584C18.7987 20.8086 18.582 20.7891 18.379 20.8447C18.1613 20.9042 17.9699 21.0487 17.8499 21.2401C17.7444 21.408 17.6937 21.6061 17.678 21.8043C17.6624 22.0025 17.679 22.2016 17.6995 22.3988C17.7142 22.5413 17.7298 22.6848 17.7649 22.8244C17.7991 22.964 17.8528 23.0997 17.9377 23.2169C18.0588 23.3848 18.2384 23.5039 18.4326 23.5751C18.7489 23.6923 19.1091 23.6864 19.4215 23.5576C19.9741 23.3174 20.4417 22.8879 20.7267 22.3568C20.8292 22.1665 20.9083 21.9644 20.959 21.7545C20.9795 21.6715 20.9952 21.5866 20.9961 21.5007C20.9952 21.4158 20.9795 21.3279 20.9415 21.2518Z" fill="url(#paint9_radial)"/>
<path opacity="0.35" d="M20.9415 20.9441C20.8868 20.8661 20.7863 20.8085 20.675 20.7743C20.5637 20.7411 20.4407 20.7304 20.3206 20.7304C20.0795 20.7313 19.8393 20.7772 19.5982 20.7626C19.3952 20.7499 19.2019 20.6942 19.0037 20.6601C18.7987 20.624 18.582 20.6103 18.379 20.6503C18.1613 20.6933 17.9699 20.7977 17.8499 20.9354C17.7444 21.0564 17.6937 21.1999 17.678 21.3434C17.6624 21.4869 17.679 21.6304 17.6995 21.7729C17.7142 21.8764 17.7298 21.9799 17.7649 22.0804C17.7991 22.181 17.8528 22.2796 17.9377 22.3635C18.0588 22.4846 18.2384 22.5715 18.4326 22.6232C18.7489 22.7081 19.1091 22.7033 19.4215 22.6105C19.9741 22.4368 20.4417 22.1263 20.7267 21.7427C20.8292 21.605 20.9083 21.4586 20.959 21.3073C20.9795 21.2468 20.9952 21.1853 20.9961 21.1238C20.9952 21.0623 20.9795 20.9988 20.9415 20.9441Z" fill="url(#paint10_radial)"/>
<path d="M21.4008 20.2451C21.3608 20.1377 21.2915 20.042 21.2066 19.9649C21.1216 19.8878 21.0211 19.8292 20.9157 19.7843C20.7048 19.6945 20.4744 19.6613 20.2489 19.6184C20.0361 19.5783 19.8252 19.5295 19.6115 19.4934C19.3899 19.4553 19.1605 19.4319 18.9408 19.4807C18.7485 19.5237 18.5718 19.6232 18.4263 19.756C18.2809 19.8888 18.1677 20.0547 18.0866 20.2334C17.9431 20.5487 17.8982 20.904 17.9256 21.2486C17.9461 21.5053 18.0115 21.7709 18.1803 21.9651C18.317 22.1223 18.5113 22.2209 18.7104 22.2795C19.055 22.381 19.4299 22.3761 19.7706 22.2639C20.3338 22.0754 20.8327 21.7006 21.1695 21.2115C21.2808 21.0504 21.3755 20.8747 21.4184 20.6844C21.4506 20.5409 21.4526 20.3847 21.4008 20.2451Z" fill="#020204"/>
<path d="M19.0613 19.3795C19.0076 19.3824 18.9559 19.3882 18.9032 19.398C18.5644 19.4585 18.254 19.6723 18.0792 19.9681C17.9562 20.177 17.8996 20.425 17.9172 20.6671C17.924 20.4972 17.9689 20.3303 18.0519 20.1819C18.1915 19.93 18.4453 19.7397 18.7294 19.6879C18.9041 19.6557 19.0838 19.6752 19.2604 19.6967C19.4293 19.7182 19.6002 19.7397 19.7671 19.7758C20.0248 19.8314 20.2796 19.9173 20.4963 20.0687C20.5471 20.1038 20.5939 20.1438 20.634 20.1907C20.674 20.2375 20.7042 20.2922 20.716 20.3527C20.7335 20.4406 20.7082 20.5333 20.6642 20.6124C20.6203 20.6905 20.5607 20.7598 20.4963 20.8233C20.4446 20.875 20.3899 20.9238 20.3343 20.9726C20.5842 20.9238 20.837 20.8555 21.0449 20.71C21.1328 20.6485 21.2128 20.5753 21.2646 20.4816C21.3163 20.3879 21.3388 20.2746 21.3134 20.1702C21.2958 20.0999 21.2578 20.0355 21.2099 19.9808C21.1621 19.9261 21.1045 19.8822 21.0449 19.8402C20.7833 19.6567 20.4778 19.5396 20.1605 19.5015C19.9575 19.4644 19.7525 19.4322 19.5475 19.4068C19.3864 19.3863 19.2224 19.3707 19.0613 19.3795Z" fill="url(#paint11_radial)"/>
<path d="M19.0613 19.3795C19.0076 19.3824 18.9559 19.3882 18.9032 19.398C18.5644 19.4585 18.254 19.6723 18.0792 19.9681C17.9562 20.177 17.8996 20.425 17.9172 20.6671C17.924 20.4972 17.9689 20.3303 18.0519 20.1819C18.1915 19.93 18.4453 19.7397 18.7294 19.6879C18.9041 19.6557 19.0838 19.6752 19.2604 19.6967C19.4293 19.7182 19.6002 19.7397 19.7671 19.7758C20.0248 19.8314 20.2796 19.9173 20.4963 20.0687C20.5471 20.1038 20.5939 20.1438 20.634 20.1907C20.674 20.2375 20.7042 20.2922 20.716 20.3527C20.7335 20.4406 20.7082 20.5333 20.6642 20.6124C20.6203 20.6905 20.5607 20.7598 20.4963 20.8233C20.4446 20.875 20.3899 20.9238 20.3343 20.9726C20.5842 20.9238 20.837 20.8555 21.0449 20.71C21.1328 20.6485 21.2128 20.5753 21.2646 20.4816C21.3163 20.3879 21.3388 20.2746 21.3134 20.1702C21.2958 20.0999 21.2578 20.0355 21.2099 19.9808C21.1621 19.9261 21.1045 19.8822 21.0449 19.8402C20.7833 19.6567 20.4778 19.5396 20.1605 19.5015C19.9575 19.4644 19.7525 19.4322 19.5475 19.4068C19.3864 19.3863 19.2224 19.3707 19.0613 19.3795Z" fill="url(#paint12_linear)"/>
<path d="M9.49588 4.33585C9.32212 4.34561 9.15616 4.42566 9.02828 4.54475C8.90137 4.66385 8.81156 4.81907 8.75592 4.98404C8.64561 5.314 8.67001 5.67226 8.6954 6.01979C8.71785 6.33413 8.74128 6.6553 8.8594 6.94718C8.91797 7.09361 9.00095 7.23125 9.11126 7.34352C9.22157 7.45578 9.36019 7.54266 9.51345 7.58073C9.65695 7.61685 9.81022 7.60904 9.95079 7.56511C10.0914 7.52119 10.2202 7.44016 10.3266 7.33668C10.4809 7.18537 10.5843 6.98818 10.6439 6.78123C10.7034 6.57427 10.72 6.35658 10.7171 6.14084C10.7132 5.87141 10.6781 5.60003 10.5931 5.34426C10.5082 5.0885 10.3735 4.8464 10.1861 4.65214C10.0953 4.55842 9.99081 4.47544 9.87367 4.41785C9.7575 4.3622 9.62669 4.32901 9.49588 4.33585Z" fill="url(#paint13_radial)"/>
<path d="M9.07691 5.77617C9.04079 5.99582 9.03884 6.22523 9.11498 6.43413C9.16477 6.57178 9.24677 6.69771 9.34634 6.80509C9.41175 6.87537 9.48594 6.9398 9.57282 6.9808C9.6597 7.0218 9.76025 7.04035 9.85299 7.01692C9.9389 6.99545 10.0141 6.9398 10.0697 6.87049C10.1254 6.80118 10.1624 6.71918 10.1888 6.63425C10.2669 6.38435 10.2542 6.11101 10.1771 5.8611C10.1205 5.67855 10.0277 5.50284 9.8813 5.37984C9.81199 5.32126 9.72999 5.27538 9.64213 5.25391C9.5533 5.23243 9.45763 5.23731 9.37465 5.27538C9.28289 5.31736 9.21163 5.39643 9.16477 5.48624C9.11791 5.57703 9.09351 5.6766 9.07691 5.77617Z" fill="#020204"/>
<path d="M9.54041 5.61819C9.56384 5.6797 9.64291 5.70215 9.68684 5.75291C9.72882 5.80172 9.77372 5.85151 9.79617 5.91106C9.8401 6.02625 9.75224 6.19611 9.84498 6.27713C9.87427 6.30251 9.93187 6.30349 9.96115 6.27713C10.0734 6.17561 10.048 5.9706 10.0041 5.82613C9.96408 5.69531 9.86451 5.57036 9.74248 5.50788C9.68586 5.4786 9.60093 5.45517 9.55212 5.49617C9.52186 5.52253 9.52577 5.58012 9.54041 5.61819Z" fill="url(#paint14_linear)"/>
<path d="M8.67773 5.44213C8.80952 5.28789 8.94717 5.1395 9.11995 5.03603C9.38255 4.87984 9.70177 4.84372 10.0054 4.87203C10.1401 4.88472 10.2738 4.9101 10.4056 4.94036C10.3422 4.83786 10.2709 4.74024 10.186 4.65336C10.0952 4.55964 9.99073 4.47666 9.87358 4.41907C9.75644 4.36147 9.62563 4.32828 9.49482 4.33609C9.32105 4.34585 9.1551 4.4259 9.02721 4.545C8.89933 4.66409 8.8105 4.81931 8.75485 4.98429C8.70604 5.13267 8.68457 5.28593 8.67773 5.44213Z" fill="url(#paint15_linear)"/>
<path d="M10.2104 4.14277C10.4545 4.37218 10.637 4.6543 10.759 4.95399C10.7053 4.62404 10.6204 4.35851 10.4056 4.14277C10.2739 4.01879 10.1235 3.91043 9.95464 3.83429C9.80626 3.76791 9.64128 3.72593 9.54659 3.72398C9.4519 3.72203 9.42944 3.72398 9.40992 3.72496C9.3904 3.72593 9.37478 3.72691 9.43628 3.73374C9.49778 3.74058 9.63444 3.77767 9.78185 3.84405C9.92926 3.91043 10.0786 4.01879 10.2104 4.14277Z" fill="url(#paint16_linear)"/>
<path d="M12.5737 4.33594C12.3023 4.5224 12.0748 4.78206 11.9635 5.0925C11.823 5.48298 11.8767 5.92032 12.0123 6.31275C12.151 6.71494 12.3823 7.09761 12.7328 7.33874C12.9075 7.45978 13.1106 7.54178 13.3214 7.56717C13.5323 7.59255 13.7519 7.55838 13.9403 7.45978C14.1698 7.33971 14.3455 7.1308 14.4538 6.89554C14.5622 6.66028 14.609 6.40061 14.6237 6.14191C14.6422 5.81196 14.61 5.47712 14.5017 5.16571C14.3835 4.82697 14.1707 4.51459 13.8701 4.31935C13.7197 4.22173 13.5489 4.15534 13.3712 4.12996C13.1935 4.10556 13.01 4.12411 12.8421 4.18853C12.7474 4.22661 12.6576 4.27835 12.5737 4.33594Z" fill="url(#paint17_radial)"/>
<path d="M13.2001 5.15625C13.0976 5.16308 12.999 5.19823 12.9121 5.25289C12.8252 5.30756 12.752 5.38175 12.6934 5.46571C12.5773 5.63459 12.5265 5.84155 12.5187 6.04557C12.5128 6.19884 12.5294 6.35503 12.5802 6.49951C12.631 6.64398 12.7169 6.7787 12.835 6.87632C12.956 6.97687 13.1103 7.03642 13.2665 7.04423C13.4236 7.05204 13.5828 7.00615 13.7116 6.91634C13.8141 6.84508 13.8971 6.74648 13.9566 6.63617C14.0152 6.52586 14.0513 6.40384 14.0679 6.27888C14.0962 6.05924 14.064 5.83081 13.9625 5.63361C13.861 5.4374 13.6892 5.27535 13.4812 5.19823C13.3924 5.16699 13.2958 5.14942 13.2001 5.15625Z" fill="#020204"/>
<path d="M13.4444 5.82476C13.3595 5.85795 13.2257 5.83745 13.1886 5.92043C13.1672 5.96924 13.1974 6.05027 13.2472 6.07077C13.3478 6.11177 13.504 6.03758 13.545 5.93605C13.5625 5.89212 13.5362 5.82281 13.4922 5.80426C13.4766 5.79841 13.46 5.81891 13.4444 5.82476Z" fill="#141413"/>
<path d="M13.8332 6.04453C13.9464 5.93129 13.7522 5.63062 13.6009 5.50762C13.4915 5.41878 13.1723 5.32507 13.186 5.42171C13.1996 5.51836 13.3431 5.64331 13.4388 5.738C13.5579 5.85515 13.7795 6.0992 13.8332 6.04453Z" fill="url(#paint18_linear)"/>
<path d="M12.3426 4.89579C12.9371 4.71227 13.6117 4.78451 14.1369 5.11837C14.2931 5.21794 14.4356 5.33801 14.5801 5.45418C14.5606 5.35656 14.5352 5.26089 14.503 5.16718C14.3849 4.82843 14.172 4.51605 13.8714 4.32081C13.721 4.22319 13.5502 4.15681 13.3725 4.13143C13.1949 4.10702 13.0113 4.12557 12.8434 4.19C12.7478 4.22709 12.6589 4.27883 12.575 4.33643C12.3192 4.51215 12.1035 4.75424 11.9863 5.04222C12.1015 4.98463 12.2196 4.93386 12.3426 4.89579Z" fill="url(#paint19_linear)"/>
<path d="M13.5185 3.53271C13.4717 3.59129 13.4297 3.65474 13.3965 3.72503C13.6064 3.76993 13.8065 3.85681 13.9851 3.97493C14.3317 4.20434 14.5943 4.54113 14.7778 4.91404C14.8208 4.86621 14.8598 4.81544 14.894 4.75882C14.7085 4.36932 14.441 4.01789 14.0828 3.77969C13.9109 3.66548 13.7186 3.57957 13.5185 3.53271Z" fill="url(#paint20_linear)"/>
<path d="M10.3105 6.63038C10.4833 6.43612 10.6014 6.19988 10.7664 5.99976C10.8494 5.90018 10.9451 5.80842 11.0573 5.74399C11.1696 5.67956 11.3004 5.64247 11.4302 5.65321C11.5737 5.6659 11.7085 5.73716 11.8139 5.83575C11.9193 5.93435 11.9974 6.0593 12.0599 6.19011C12.1194 6.31507 12.1673 6.44783 12.2532 6.55619C12.3449 6.67138 12.4738 6.75045 12.59 6.84124C12.6485 6.88712 12.7042 6.93593 12.7501 6.99353C12.7959 7.05112 12.8321 7.11848 12.8467 7.19072C12.8613 7.26393 12.8545 7.34203 12.8282 7.41232C12.8028 7.4826 12.7588 7.54606 12.7052 7.59779C12.5968 7.70225 12.4504 7.75789 12.302 7.77839C12.0052 7.82037 11.7055 7.73153 11.4058 7.74032C11.1022 7.7491 10.8064 7.85551 10.5028 7.84477C10.3515 7.83891 10.1973 7.80182 10.0733 7.71591C10.0108 7.67296 9.95715 7.61732 9.91712 7.55191C9.87807 7.48651 9.85367 7.41232 9.85172 7.33617C9.84977 7.26393 9.86636 7.19169 9.89467 7.12531C9.92396 7.05893 9.96398 6.99841 10.0099 6.94179C10.1026 6.83245 10.2149 6.73874 10.3105 6.63038Z" fill="url(#paint21_radial)"/>
<path d="M8.66797 8.50183C8.67383 8.53111 8.68456 8.55845 8.70018 8.58383C8.72654 8.62776 8.76364 8.6629 8.80464 8.69219C8.84564 8.72245 8.88957 8.74686 8.93252 8.77419C9.15997 8.91769 9.34643 9.11879 9.51043 9.3316C9.73203 9.61665 9.92727 9.93294 10.2231 10.1409C10.432 10.2873 10.6819 10.3713 10.9347 10.3966C11.2324 10.4269 11.5341 10.3781 11.8211 10.2941C12.0876 10.216 12.3443 10.1057 12.5806 9.96028C13.0296 9.68304 13.4045 9.27791 13.8994 9.09536C14.0078 9.05534 14.12 9.02703 14.2245 8.97822C14.329 8.92941 14.4266 8.85619 14.4764 8.75174C14.5242 8.65216 14.5222 8.53697 14.5379 8.42764C14.5545 8.31049 14.5916 8.19725 14.6121 8.08011C14.6326 7.96394 14.6355 7.83899 14.5847 7.7316C14.5427 7.64277 14.4666 7.57248 14.3797 7.52855C14.2928 7.48365 14.1942 7.46412 14.0966 7.45924C13.9004 7.44948 13.7071 7.50024 13.5119 7.51782C13.2532 7.54124 12.9925 7.50805 12.7329 7.51586C12.4097 7.52563 12.0915 7.59786 11.7694 7.61446C11.4013 7.63203 11.0343 7.57541 10.6653 7.56077C10.5062 7.55393 10.3451 7.55589 10.1879 7.58322C10.0307 7.61056 9.87553 7.66327 9.74472 7.75406C9.61684 7.84289 9.51434 7.96296 9.39719 8.06449C9.33862 8.11525 9.27517 8.16211 9.20488 8.19628C9.13459 8.23044 9.05747 8.25094 8.98035 8.24997C8.94033 8.24899 8.89933 8.24216 8.86126 8.25485C8.83783 8.26266 8.81635 8.2773 8.79878 8.29487C8.78121 8.31245 8.76657 8.33295 8.75192 8.35345C8.72068 8.39835 8.69237 8.44911 8.66797 8.50183Z" fill="url(#paint22_radial)"/>
<path d="M10.1117 8.8992C10.0736 9.05539 10.097 9.22428 10.1741 9.36485C10.2522 9.50542 10.383 9.61476 10.5353 9.66552C10.7286 9.72995 10.9463 9.69871 11.1259 9.60402C11.2304 9.54935 11.3261 9.47223 11.3866 9.37168C11.4168 9.32092 11.4373 9.2643 11.4452 9.20573C11.453 9.14716 11.4471 9.08663 11.4276 9.03099C11.4051 8.97046 11.3651 8.91677 11.3153 8.8748C11.2655 8.83282 11.2079 8.80256 11.1464 8.78206C11.0234 8.74106 10.8916 8.74106 10.7628 8.74691C10.5666 8.75668 10.3723 8.78108 10.18 8.82013" fill="#D9B30D"/>
<path d="M9.4796 7.68713C9.34879 7.76425 9.22286 7.84918 9.09888 7.93704C9.03445 7.98292 8.96905 8.03173 8.93488 8.10299C8.91048 8.15278 8.9056 8.21037 8.90462 8.26602C8.90364 8.32166 8.90755 8.3773 8.89974 8.43295C8.89486 8.47102 8.88509 8.50812 8.88314 8.54619C8.88217 8.56474 8.88314 8.58426 8.889 8.60281C8.89388 8.62135 8.90267 8.63893 8.91633 8.65259C8.93293 8.67016 8.95636 8.68188 8.97979 8.68871C9.00322 8.69555 9.02762 8.69945 9.05202 8.70531C9.16624 8.73264 9.26679 8.80293 9.35367 8.88102C9.44055 8.95912 9.51963 9.04795 9.61139 9.12312C9.85934 9.32422 10.1864 9.40817 10.5056 9.41305C10.8248 9.41793 11.1401 9.35155 11.4525 9.28127C11.6975 9.2266 11.9416 9.169 12.1778 9.08212C12.539 8.94838 12.8748 8.74728 13.1657 8.49445C13.2975 8.38023 13.4215 8.2543 13.5689 8.16059C13.6997 8.07859 13.8462 8.02392 13.9799 7.94582C13.9916 7.93899 14.0033 7.93118 14.0141 7.9224C14.0248 7.91361 14.0346 7.90287 14.0404 7.89116C14.0512 7.86968 14.0512 7.8443 14.0443 7.82087C14.0375 7.79842 14.0238 7.77792 14.0092 7.75937C13.9926 7.73887 13.974 7.72032 13.9535 7.70275C13.8149 7.58365 13.6255 7.5407 13.443 7.52606C13.2604 7.51141 13.0759 7.52215 12.8953 7.49189C12.7255 7.46358 12.5644 7.40013 12.4004 7.34741C12.2286 7.29177 12.0529 7.24882 11.8742 7.21953C11.4554 7.1512 11.023 7.16389 10.6071 7.25077C10.2098 7.33277 9.82811 7.48115 9.4796 7.68713Z" fill="#604405"/>
<path d="M9.43721 7.24558C9.2488 7.37249 9.07894 7.52673 8.93544 7.70342C8.85344 7.80397 8.77925 7.9133 8.73727 8.0363C8.70506 8.13295 8.69335 8.23545 8.67285 8.336C8.66504 8.37309 8.65625 8.41116 8.65625 8.44923C8.65625 8.46876 8.65918 8.48731 8.66504 8.50585C8.67089 8.5244 8.68065 8.541 8.69335 8.55467C8.71482 8.57712 8.74606 8.58981 8.7773 8.59664C8.80854 8.60348 8.83978 8.60445 8.87199 8.60738C9.01354 8.62398 9.14435 8.69231 9.26247 8.77333C9.38059 8.85436 9.48895 8.94905 9.60902 9.02519C9.87552 9.19408 10.1938 9.26924 10.5101 9.28096C10.8254 9.29267 11.1407 9.24484 11.4501 9.18334C11.6961 9.13453 11.9412 9.07596 12.1755 8.98419C12.5327 8.84362 12.8549 8.62593 13.1634 8.39652C13.303 8.29207 13.4416 8.18468 13.5665 8.06266C13.6095 8.02166 13.6505 7.97871 13.6964 7.94063C13.7423 7.90256 13.793 7.87035 13.8496 7.8518C13.9355 7.82447 14.0293 7.83228 14.1181 7.84692C14.1855 7.85766 14.2528 7.87328 14.3202 7.87035C14.3543 7.86937 14.3885 7.86351 14.4197 7.85082C14.451 7.83813 14.4803 7.81861 14.5017 7.79225C14.53 7.75809 14.5447 7.71318 14.5447 7.66827C14.5447 7.62337 14.531 7.57944 14.5086 7.54039C14.4637 7.46327 14.3846 7.41153 14.3026 7.37444C14.1903 7.32465 14.0693 7.30025 13.9502 7.27096C13.5841 7.1831 13.2297 7.05229 12.892 6.88536C12.7241 6.80238 12.562 6.70964 12.3971 6.62179C12.2272 6.531 12.0554 6.44412 11.8709 6.3875C11.4599 6.26254 11.0099 6.30355 10.6038 6.44509C10.1547 6.60226 9.74667 6.88146 9.43721 7.24558Z" fill="url(#paint23_linear)"/>
<path d="M12.3262 7.33563C12.3037 7.30732 12.2725 7.2878 12.2383 7.27804C12.2041 7.26827 12.168 7.2673 12.1329 7.27316C12.0626 7.28487 12.0001 7.32294 11.9406 7.36297C11.7736 7.47816 11.6262 7.61971 11.4974 7.7759C11.3265 7.98285 11.1869 8.22202 11.1391 8.4856C11.1313 8.5305 11.1254 8.57541 11.1313 8.62031C11.1371 8.66522 11.1537 8.70915 11.186 8.74136C11.2143 8.76967 11.2523 8.78626 11.2914 8.79212C11.3304 8.79798 11.3714 8.79212 11.4085 8.77943C11.4837 8.75405 11.5462 8.70134 11.6047 8.64862C11.9308 8.35674 12.2246 8.00726 12.3428 7.58652C12.3545 7.54454 12.3642 7.50061 12.3642 7.45766C12.3652 7.41568 12.3535 7.3698 12.3262 7.33563Z" fill="#F6DA4A"/>
<path opacity="0.8" d="M11.5442 6.73093C11.5666 6.80317 11.6838 6.79146 11.7511 6.8266C11.8107 6.85686 11.8575 6.92422 11.9249 6.92617C11.9883 6.92812 12.0869 6.90372 12.0957 6.84124C12.1065 6.75827 11.9854 6.70457 11.9063 6.67431C11.8058 6.63526 11.6769 6.61476 11.5822 6.66748C11.5608 6.67919 11.5373 6.7075 11.5442 6.73093Z" fill="url(#paint24_radial)"/>
<path opacity="0.8" d="M10.431 6.68997C10.3441 6.66166 10.2006 6.81492 10.2475 6.89302C10.2601 6.91449 10.2992 6.94183 10.3265 6.92718C10.3666 6.90571 10.3988 6.82663 10.4427 6.79637C10.471 6.77587 10.4642 6.70071 10.431 6.68997Z" fill="url(#paint25_radial)"/>
<path d="M14.5719 7.83288C14.5504 8.02324 14.4079 8.17748 14.2546 8.17748C14.1004 8.17748 13.993 8.02324 14.0145 7.83288C14.0359 7.64252 14.1785 7.48828 14.3317 7.48828C14.486 7.48828 14.5933 7.64252 14.5719 7.83288Z" fill="url(#paint26_linear)"/>
</g>
<defs>
<radialGradient id="paint0_radial" cx="0" cy="0" r="1" gradientUnits="userSpaceOnUse" gradientTransform="translate(13.2992 5.82413) rotate(-1.80935) scale(1.54537 1.77621)">
<stop stop-color="#FEFEFC"/>
<stop offset="0.7573" stop-color="#FEFEFC"/>
<stop offset="1" stop-color="#D4D4D4"/>
</radialGradient>
<radialGradient id="paint1_radial" cx="0" cy="0" r="1" gradientUnits="userSpaceOnUse" gradientTransform="translate(6.8554 13.7286) rotate(180) scale(2.15572 2.04128)">
<stop/>
<stop offset="1" stop-opacity="0.2489"/>
</radialGradient>
<radialGradient id="paint2_radial" cx="0" cy="0" r="1" gradientUnits="userSpaceOnUse" gradientTransform="translate(14.1697 14.908) scale(2.67393 2.04128)">
<stop/>
<stop offset="1" stop-opacity="0.2489"/>
</radialGradient>
<radialGradient id="paint3_radial" cx="0" cy="0" r="1" gradientUnits="userSpaceOnUse" gradientTransform="translate(10.5988 14.4405) scale(1.05873 1.13199)">
<stop/>
<stop offset="1" stop-opacity="0.2489"/>
</radialGradient>
<linearGradient id="paint4_linear" x1="18.5809" y1="23.7491" x2="18.9326" y2="26.4445" gradientUnits="userSpaceOnUse">
<stop/>
<stop offset="1" stop-opacity="0"/>
</linearGradient>
<linearGradient id="paint5_linear" x1="16.8072" y1="28.4865" x2="21.5011" y2="20.8761" gradientUnits="userSpaceOnUse">
<stop stop-color="#3E2A06"/>
<stop offset="1" stop-color="#AD780A"/>
</linearGradient>
<linearGradient id="paint6_linear" x1="19.2624" y1="20.5649" x2="19.1244" y2="21.8074" gradientUnits="userSpaceOnUse">
<stop stop-color="#F3CD0C"/>
<stop offset="1" stop-color="#F3CD0C" stop-opacity="0"/>
</linearGradient>
<linearGradient id="paint7_linear" x1="2.09543" y1="22.101" x2="6.75482" y2="29.9184" gradientUnits="userSpaceOnUse">
<stop stop-color="#B98309"/>
<stop offset="1" stop-color="#382605"/>
</linearGradient>
<linearGradient id="paint8_linear" x1="7.25804" y1="23.8315" x2="8.72488" y2="26.5926" gradientUnits="userSpaceOnUse">
<stop stop-color="#EBC40C"/>
<stop offset="1" stop-color="#EBC40C" stop-opacity="0"/>
</linearGradient>
<radialGradient id="paint9_radial" cx="0" cy="0" r="1" gradientUnits="userSpaceOnUse" gradientTransform="translate(19.1546 22.0361) rotate(14.9987) scale(2.22718 2.33788)">
<stop stop-color="#110800"/>
<stop offset="0.5907" stop-color="#A65A00" stop-opacity="0.8"/>
<stop offset="1" stop-color="#FF921E" stop-opacity="0"/>
</radialGradient>
<radialGradient id="paint10_radial" cx="0" cy="0" r="1" gradientUnits="userSpaceOnUse" gradientTransform="translate(19.1541 21.5111) rotate(10.9625) scale(2.19129 1.71777)">
<stop stop-color="#110800"/>
<stop offset="0.5907" stop-color="#A65A00" stop-opacity="0.8"/>
<stop offset="1" stop-color="#FF921E" stop-opacity="0"/>
</radialGradient>
<radialGradient id="paint11_radial" cx="0" cy="0" r="1" gradientUnits="userSpaceOnUse" gradientTransform="translate(20.8486 20.0145) rotate(23.5184) scale(0.787802 0.364088)">
<stop stop-color="#7C7C7C"/>
<stop offset="1" stop-color="#7C7C7C" stop-opacity="0.3294"/>
</radialGradient>
<linearGradient id="paint12_linear" x1="18.7214" y1="20.2161" x2="19.0142" y2="20.2039" gradientUnits="userSpaceOnUse">
<stop stop-color="#7C7C7C"/>
<stop offset="1" stop-color="#7C7C7C" stop-opacity="0.3294"/>
</linearGradient>
<radialGradient id="paint13_radial" cx="0" cy="0" r="1" gradientUnits="userSpaceOnUse" gradientTransform="translate(9.72593 5.82384) rotate(-2.40933) scale(1.16068 1.77553)">
<stop stop-color="#FEFEFC"/>
<stop offset="0.7573" stop-color="#FEFEFC"/>
<stop offset="1" stop-color="#D4D4D4"/>
</radialGradient>
<linearGradient id="paint14_linear" x1="9.49339" y1="5.27527" x2="10.0629" y2="6.29343" gradientUnits="userSpaceOnUse">
<stop stop-color="#757574" stop-opacity="0"/>
<stop offset="0.2629" stop-color="#757574"/>
<stop offset="0.5" stop-color="#757574"/>
<stop offset="1" stop-color="#757574" stop-opacity="0"/>
</linearGradient>
<linearGradient id="paint15_linear" x1="8.6663" y1="4.53447" x2="10.1188" y2="5.47021" gradientUnits="userSpaceOnUse">
<stop offset="0.2939" stop-color="#C8C8C8"/>
<stop offset="1" stop-color="#797978"/>
</linearGradient>
<linearGradient id="paint16_linear" x1="9.51266" y1="3.56296" x2="10.8207" y2="4.82271" gradientUnits="userSpaceOnUse">
<stop stop-color="#646464" stop-opacity="0"/>
<stop offset="0.3063" stop-color="#646464" stop-opacity="0.5825"/>
<stop offset="0.47" stop-color="#646464"/>
<stop offset="0.7283" stop-color="#646464" stop-opacity="0.2573"/>
<stop offset="1" stop-color="#646464" stop-opacity="0"/>
</linearGradient>
<radialGradient id="paint17_radial" cx="0" cy="0" r="1" gradientUnits="userSpaceOnUse" gradientTransform="translate(13.305 5.82364) rotate(-1.80935) scale(1.54537 1.77621)">
<stop stop-color="#FEFEFC"/>
<stop offset="0.7573" stop-color="#FEFEFC"/>
<stop offset="1" stop-color="#D4D4D4"/>
</radialGradient>
<linearGradient id="paint18_linear" x1="13.286" y1="5.35207" x2="13.9418" y2="6.12862" gradientUnits="userSpaceOnUse">
<stop stop-color="#949494" stop-opacity="0.3922"/>
<stop offset="0.5" stop-color="#949494"/>
<stop offset="1" stop-color="#949494" stop-opacity="0.3922"/>
</linearGradient>
<linearGradient id="paint19_linear" x1="12.8904" y1="5.29455" x2="14.6654" y2="4.25649" gradientUnits="userSpaceOnUse">
<stop stop-color="#C8C8C8"/>
<stop offset="1" stop-color="#797978"/>
</linearGradient>
<linearGradient id="paint20_linear" x1="13.4977" y1="3.50425" x2="14.8869" y2="4.81577" gradientUnits="userSpaceOnUse">
<stop stop-color="#646464" stop-opacity="0"/>
<stop offset="0.3063" stop-color="#646464" stop-opacity="0.5825"/>
<stop offset="0.47" stop-color="#646464"/>
<stop offset="0.7283" stop-color="#646464" stop-opacity="0.2573"/>
<stop offset="1" stop-color="#646464" stop-opacity="0"/>
</linearGradient>
<radialGradient id="paint21_radial" cx="0" cy="0" r="1" gradientUnits="userSpaceOnUse" gradientTransform="translate(10.9859 6.81092) rotate(-36.0117) scale(1.29537 1.17574)">
<stop stop-color="#020204"/>
<stop offset="0.7345" stop-color="#020204"/>
<stop offset="1" stop-color="#5C5C5C"/>
</radialGradient>
<radialGradient id="paint22_radial" cx="0" cy="0" r="1" gradientUnits="userSpaceOnUse" gradientTransform="translate(12.363 7.99928) rotate(-22.4276) scale(3.076 2.15994)">
<stop stop-color="#D2940A"/>
<stop offset="0.7514" stop-color="#D89C08"/>
<stop offset="0.8658" stop-color="#B67E07"/>
<stop offset="1" stop-color="#946106"/>
</radialGradient>
<linearGradient id="paint23_linear" x1="8.77495" y1="7.81563" x2="14.2885" y2="7.77249" gradientUnits="userSpaceOnUse">
<stop stop-color="#AD780A"/>
<stop offset="0.1197" stop-color="#D89E08"/>
<stop offset="0.2551" stop-color="#EDB80B"/>
<stop offset="0.3919" stop-color="#EBC80D"/>
<stop offset="0.5274" stop-color="#F5D838"/>
<stop offset="0.7691" stop-color="#F6D811"/>
<stop offset="1" stop-color="#F5CD31"/>
</linearGradient>
<radialGradient id="paint24_radial" cx="0" cy="0" r="1" gradientUnits="userSpaceOnUse" gradientTransform="translate(11.7808 6.76317) scale(0.315323 0.183928)">
<stop stop-color="#3A2903"/>
<stop offset="0.5547" stop-color="#735208"/>
<stop offset="1" stop-color="#AC8C04"/>
</radialGradient>
<radialGradient id="paint25_radial" cx="0" cy="0" r="1" gradientUnits="userSpaceOnUse" gradientTransform="translate(10.3624 6.78362) scale(0.149848 0.161101)">
<stop stop-color="#3A2903"/>
<stop offset="0.5547" stop-color="#735208"/>
<stop offset="1" stop-color="#AC8C04"/>
</radialGradient>
<linearGradient id="paint26_linear" x1="14.2926" y1="7.64485" x2="14.3765" y2="8.03459" gradientUnits="userSpaceOnUse">
<stop stop-color="#F5CE2D"/>
<stop offset="1" stop-color="#D79B08"/>
</linearGradient>
<clipPath id="clip0">
<rect width="24.322" height="29" fill="white"/>
</clipPath>
</defs>
</svg>
