<svg width="103" height="34" viewBox="0 0 103 34" fill="none" xmlns="http://www.w3.org/2000/svg">
<path d="M1.98077 23.0489L3.4377 24.3421L5.17292 22.3777L6.10601 23.1962L4.37079 25.1606L5.90957 26.5193L7.8576 24.3094L8.80706 25.1443L5.81135 28.5165L0 23.3763L2.97934 20.0041L3.9288 20.839L1.98077 23.0489Z" fill="#1B84F9"/>
<path d="M19.1365 16.6156L17.8761 17.5323L11.8846 15.2896L15.0113 19.6113L13.7508 20.528L9.18359 14.2255L10.4441 13.3088L16.4355 15.5515L13.3088 11.2298L14.5693 10.3131L19.1365 16.6156Z" fill="#1B84F9"/>
<path d="M26.9611 4.07611L27.4522 5.23838L25.5532 6.05688L28.1233 12.0483L26.6828 12.654L24.1127 6.66257L22.2138 7.48107L21.7227 6.3188L26.9611 4.07611Z" fill="#1B84F9"/>
<path d="M39.731 1.26048C40.4022 1.45692 40.9588 1.81705 41.3844 2.34089C41.81 2.86473 42.1047 3.50316 42.252 4.27255C42.3993 5.04194 42.3502 5.74585 42.121 6.36791C41.8919 7.00634 41.499 7.53018 40.9588 7.9558C40.4022 8.38142 39.731 8.65971 38.9289 8.80704L36.2606 9.29814L34.8691 1.65336L37.5375 1.16226C38.3232 1.0313 39.0599 1.06404 39.731 1.26048ZM40.3695 6.53161C40.7296 6.00777 40.8278 5.35297 40.6969 4.56721C40.5495 3.76508 40.2221 3.19213 39.6983 2.81562C39.1745 2.45548 38.5197 2.34089 37.7175 2.48822L36.6371 2.68466L37.5538 7.72662L38.6342 7.53018C39.42 7.38285 40.0093 7.05545 40.3695 6.53161Z" fill="#1B84F9"/>
<path d="M51.3034 1.32597L51.2215 3.274L53.8407 3.37222L53.7916 4.59997L51.1724 4.50175L51.0906 6.56437L54.0372 6.67896L53.9881 7.93945L49.4863 7.77575L49.781 0L54.2827 0.1637L54.2336 1.44056L51.3034 1.32597Z" fill="#1B84F9"/>
<path d="M62.3363 3.07756C62.8274 2.58646 63.4003 2.24269 64.0715 2.07899C64.7426 1.89892 65.4302 1.91529 66.1505 2.09536C66.9853 2.32454 67.6729 2.71742 68.1803 3.32311C68.7042 3.91243 68.9825 4.63271 69.0316 5.45121L67.2964 4.99285C67.2145 4.5836 67.0508 4.2562 66.7889 3.99428C66.527 3.73236 66.1832 3.55229 65.774 3.4377C65.332 3.32311 64.9227 3.32311 64.5298 3.4377C64.137 3.55229 63.7932 3.7651 63.4985 4.0925C63.2039 4.4199 63.0074 4.82915 62.8601 5.33662C62.7291 5.82772 62.7128 6.28608 62.7946 6.7117C62.8928 7.13732 63.0729 7.49746 63.3676 7.79212C63.6459 8.08678 64.0224 8.29959 64.448 8.41418C64.8572 8.52877 65.2501 8.52877 65.6103 8.43055C65.9704 8.33233 66.2814 8.11952 66.5597 7.80849L68.2949 8.26685C67.8366 8.97076 67.2473 9.44549 66.5106 9.70741C65.774 9.96933 64.9718 9.9857 64.1206 9.75652C63.4003 9.56008 62.7946 9.23268 62.3035 8.75795C61.8124 8.28322 61.485 7.71027 61.3049 7.0391C61.1249 6.36793 61.1249 5.66402 61.3213 4.92737C61.5014 4.20709 61.8452 3.58503 62.3363 3.07756Z" fill="#1B84F9"/>
<path d="M77.6914 15.2896L76.8566 10.9025L75.2032 13.9473L73.8281 13.2106L77.5277 6.38434L78.9028 7.12099L77.2495 10.1822L81.3911 8.46333L83.0444 9.36368L78.3954 11.2299L79.4267 16.2391L77.6914 15.2896Z" fill="#1B84F9"/>
<path d="M90.0852 16.0426L88.8084 17.5159L90.7891 19.2184L89.987 20.1515L88.0062 18.449L86.6639 20.0041L88.9066 21.9194L88.0717 22.918L84.6504 19.9878L89.7251 14.0782L93.1464 17.0084L92.3279 17.9742L90.0852 16.0426Z" fill="#1B84F9"/>
<path d="M96.7794 33.1001L95.8463 31.856L97.9908 25.8319L93.7182 29.024L92.7852 27.7799L99.0058 23.1144L99.9388 24.3586L97.778 30.3827L102.051 27.1742L102.984 28.4183L96.7794 33.1001Z" fill="#1B84F9"/>
</svg>
